<?xml version="1.0" encoding="utf-8" ?>
<svg xmlns="http://www.w3.org/2000/svg" xmlns:ev="http://www.w3.org/2001/xml-events" xmlns:s="https://github.com/nturley/netlistsvg" xmlns:xlink="http://www.w3.org/1999/xlink" baseProfile="full" height="100%" version="1.1" viewBox="-196.8 -244.8 1209.6 1049.6" width="100%">
  <title>opamp_summing.svg</title>
  <defs/>
  <rect data-claw-background="true" fill="white" height="1049.6" width="1209.6" x="-196.8" y="-244.8"/>
  <line stroke="black" stroke-linecap="round" stroke-width="2.0" x1="64" x2="176" y1="144" y2="144"/>
  <line stroke="black" stroke-linecap="round" stroke-width="2.0" x1="176" x2="176" y1="144" y2="240"/>
  <line stroke="black" stroke-linecap="round" stroke-width="2.0" x1="176" x2="248" y1="240" y2="240"/>
  <line stroke="black" stroke-linecap="round" stroke-width="2.0" x1="64" x2="248" y1="400" y2="400"/>
  <line stroke="black" stroke-linecap="round" stroke-width="2.0" x1="344" x2="352" y1="240" y2="240"/>
  <line stroke="black" stroke-linecap="round" stroke-width="2.0" x1="344" x2="352" y1="400" y2="400"/>
  <line stroke="black" stroke-linecap="round" stroke-width="2.0" x1="352" x2="352" y1="240" y2="304"/>
  <line stroke="black" stroke-linecap="round" stroke-width="2.0" x1="352" x2="352" y1="400" y2="304"/>
  <line stroke="black" stroke-linecap="round" stroke-width="2.0" x1="352" x2="416" y1="304" y2="304"/>
  <line stroke="black" stroke-linecap="round" stroke-width="2.0" x1="416" x2="416" y1="304" y2="128"/>
  <line stroke="black" stroke-linecap="round" stroke-width="2.0" x1="416" x2="464" y1="128" y2="128"/>
  <line stroke="black" stroke-linecap="round" stroke-width="2.0" x1="560" x2="560" y1="128" y2="272"/>
  <line stroke="black" stroke-linecap="round" stroke-width="2.0" x1="560" x2="704" y1="272" y2="272"/>
  <line stroke="black" stroke-linecap="round" stroke-width="2.0" x1="464" x2="464" y1="208" y2="160"/>
  <line stroke="black" stroke-linecap="round" stroke-width="2.0" x1="464" x2="464" y1="336" y2="384"/>
  <circle cx="352" cy="304" fill="black" r="3.0"/>
  <g s:height="96" s:type="voltage" s:width="48" transform="translate(96,144)">
    <line stroke="black" stroke-linecap="round" stroke-width="2.0" x1="0" x2="0" y1="0" y2="24"/>
    <line stroke="black" stroke-linecap="round" stroke-width="2.0" x1="0" x2="0" y1="72" y2="96"/>
    <line stroke="black" stroke-linecap="round" stroke-width="2.0" x1="-10" x2="10" y1="40" y2="40"/>
    <line stroke="black" stroke-linecap="round" stroke-width="2.0" x1="0" x2="0" y1="30" y2="50"/>
    <line stroke="black" stroke-linecap="round" stroke-width="2.0" x1="-10" x2="10" y1="56" y2="56"/>
    <circle cx="0.0" cy="48.0" fill="none" r="24.0" stroke="black" stroke-width="2.0"/>
    <g class="text-group">
      <text fill="black" font-family="Arial" font-size="10.0px" text-anchor="start" x="40" y="21.5">VIN1</text>
    </g>
    <g class="text-group">
      <text fill="black" font-family="Arial" font-size="10.0px" text-anchor="middle" x="0" y="125.5">PULSE(0 0.5 0 1u 1u 5m 10m)</text>
    </g>
  </g>
  <g s:height="96" s:type="voltage" s:width="48" transform="translate(96,400)">
    <line stroke="black" stroke-linecap="round" stroke-width="2.0" x1="0" x2="0" y1="0" y2="24"/>
    <line stroke="black" stroke-linecap="round" stroke-width="2.0" x1="0" x2="0" y1="72" y2="96"/>
    <line stroke="black" stroke-linecap="round" stroke-width="2.0" x1="-10" x2="10" y1="40" y2="40"/>
    <line stroke="black" stroke-linecap="round" stroke-width="2.0" x1="0" x2="0" y1="30" y2="50"/>
    <line stroke="black" stroke-linecap="round" stroke-width="2.0" x1="-10" x2="10" y1="56" y2="56"/>
    <circle cx="0.0" cy="48.0" fill="none" r="24.0" stroke="black" stroke-width="2.0"/>
    <g class="text-group">
      <text fill="black" font-family="Arial" font-size="10.0px" text-anchor="start" x="40" y="21.5">VIN2</text>
    </g>
    <g class="text-group">
      <text fill="black" font-family="Arial" font-size="10.0px" text-anchor="middle" x="0" y="125.5">PULSE(0 0.25 1m 1u 1u 5m 10m)</text>
    </g>
  </g>
  <g s:height="96" s:type="voltage" s:width="48" transform="translate(720,48)">
    <line stroke="black" stroke-linecap="round" stroke-width="2.0" x1="0" x2="0" y1="0" y2="24"/>
    <line stroke="black" stroke-linecap="round" stroke-width="2.0" x1="0" x2="0" y1="72" y2="96"/>
    <line stroke="black" stroke-linecap="round" stroke-width="2.0" x1="-10" x2="10" y1="40" y2="40"/>
    <line stroke="black" stroke-linecap="round" stroke-width="2.0" x1="0" x2="0" y1="30" y2="50"/>
    <line stroke="black" stroke-linecap="round" stroke-width="2.0" x1="-10" x2="10" y1="56" y2="56"/>
    <circle cx="0.0" cy="48.0" fill="none" r="24.0" stroke="black" stroke-width="2.0"/>
    <g class="text-group">
      <text fill="black" font-family="Arial" font-size="10.0px" text-anchor="start" x="40" y="21.5">VCC</text>
    </g>
    <g class="text-group">
      <text fill="black" font-family="Arial" font-size="10.0px" text-anchor="middle" x="0" y="125.5">5</text>
    </g>
  </g>
  <g s:height="96" s:type="voltage" s:width="48" transform="translate(720,448)">
    <line stroke="black" stroke-linecap="round" stroke-width="2.0" x1="0" x2="0" y1="0" y2="24"/>
    <line stroke="black" stroke-linecap="round" stroke-width="2.0" x1="0" x2="0" y1="72" y2="96"/>
    <line stroke="black" stroke-linecap="round" stroke-width="2.0" x1="-10" x2="10" y1="40" y2="40"/>
    <line stroke="black" stroke-linecap="round" stroke-width="2.0" x1="0" x2="0" y1="30" y2="50"/>
    <line stroke="black" stroke-linecap="round" stroke-width="2.0" x1="-10" x2="10" y1="56" y2="56"/>
    <circle cx="0.0" cy="48.0" fill="none" r="24.0" stroke="black" stroke-width="2.0"/>
    <g class="text-group">
      <text fill="black" font-family="Arial" font-size="10.0px" text-anchor="start" x="40" y="21.5">VEE</text>
    </g>
    <g class="text-group">
      <text fill="black" font-family="Arial" font-size="10.0px" text-anchor="middle" x="0" y="125.5">-5</text>
    </g>
  </g>
  <g s:height="24" s:type="res" s:width="96" transform="translate(248,240)">
    <line stroke="black" stroke-linecap="round" stroke-width="2.0" x1="0" x2="16" y1="0" y2="0"/>
    <line stroke="black" stroke-linecap="round" stroke-width="2.0" x1="16" x2="24" y1="0" y2="-12"/>
    <line stroke="black" stroke-linecap="round" stroke-width="2.0" x1="24" x2="40" y1="-12" y2="12"/>
    <line stroke="black" stroke-linecap="round" stroke-width="2.0" x1="40" x2="56" y1="12" y2="-12"/>
    <line stroke="black" stroke-linecap="round" stroke-width="2.0" x1="56" x2="72" y1="-12" y2="12"/>
    <line stroke="black" stroke-linecap="round" stroke-width="2.0" x1="72" x2="80" y1="12" y2="0"/>
    <line stroke="black" stroke-linecap="round" stroke-width="2.0" x1="80" x2="96" y1="0" y2="0"/>
    <g class="text-group">
      <text fill="black" font-family="Arial" font-size="10.0px" text-anchor="middle" x="48" y="-32.5">R1</text>
    </g>
    <g class="text-group">
      <text fill="black" font-family="Arial" font-size="10.0px" text-anchor="middle" x="48" y="31.5">10k</text>
    </g>
  </g>
  <g s:height="24" s:type="res" s:width="96" transform="translate(248,400)">
    <line stroke="black" stroke-linecap="round" stroke-width="2.0" x1="0" x2="16" y1="0" y2="0"/>
    <line stroke="black" stroke-linecap="round" stroke-width="2.0" x1="16" x2="24" y1="0" y2="-12"/>
    <line stroke="black" stroke-linecap="round" stroke-width="2.0" x1="24" x2="40" y1="-12" y2="12"/>
    <line stroke="black" stroke-linecap="round" stroke-width="2.0" x1="40" x2="56" y1="12" y2="-12"/>
    <line stroke="black" stroke-linecap="round" stroke-width="2.0" x1="56" x2="72" y1="-12" y2="12"/>
    <line stroke="black" stroke-linecap="round" stroke-width="2.0" x1="72" x2="80" y1="12" y2="0"/>
    <line stroke="black" stroke-linecap="round" stroke-width="2.0" x1="80" x2="96" y1="0" y2="0"/>
    <g class="text-group">
      <text fill="black" font-family="Arial" font-size="10.0px" text-anchor="middle" x="48" y="-32.5">R2</text>
    </g>
    <g class="text-group">
      <text fill="black" font-family="Arial" font-size="10.0px" text-anchor="middle" x="48" y="31.5">20k</text>
    </g>
  </g>
  <g s:height="24" s:type="res" s:width="96" transform="translate(464,128)">
    <line stroke="black" stroke-linecap="round" stroke-width="2.0" x1="0" x2="16" y1="0" y2="0"/>
    <line stroke="black" stroke-linecap="round" stroke-width="2.0" x1="16" x2="24" y1="0" y2="-12"/>
    <line stroke="black" stroke-linecap="round" stroke-width="2.0" x1="24" x2="40" y1="-12" y2="12"/>
    <line stroke="black" stroke-linecap="round" stroke-width="2.0" x1="40" x2="56" y1="12" y2="-12"/>
    <line stroke="black" stroke-linecap="round" stroke-width="2.0" x1="56" x2="72" y1="-12" y2="12"/>
    <line stroke="black" stroke-linecap="round" stroke-width="2.0" x1="72" x2="80" y1="12" y2="0"/>
    <line stroke="black" stroke-linecap="round" stroke-width="2.0" x1="80" x2="96" y1="0" y2="0"/>
    <g class="text-group">
      <text fill="black" font-family="Arial" font-size="10.0px" text-anchor="middle" x="48" y="-32.5">RF</text>
    </g>
    <g class="text-group">
      <text fill="black" font-family="Arial" font-size="10.0px" text-anchor="middle" x="48" y="31.5">20k</text>
    </g>
  </g>
  <g s:height="128" s:type="opamp2" s:width="144" transform="translate(416,208)">
    <line stroke="black" stroke-linecap="round" stroke-width="2.0" x1="0" x2="24" y1="32" y2="32"/>
    <line stroke="black" stroke-linecap="round" stroke-width="2.0" x1="0" x2="24" y1="96" y2="96"/>
    <line stroke="black" stroke-linecap="round" stroke-width="2.0" x1="48" x2="48" y1="0" y2="24"/>
    <line stroke="black" stroke-linecap="round" stroke-width="2.0" x1="48" x2="48" y1="104" y2="128"/>
    <line stroke="black" stroke-linecap="round" stroke-width="2.0" x1="24" x2="24" y1="0" y2="128"/>
    <line stroke="black" stroke-linecap="round" stroke-width="2.0" x1="24" x2="128" y1="0" y2="64"/>
    <line stroke="black" stroke-linecap="round" stroke-width="2.0" x1="128" x2="24" y1="64" y2="128"/>
    <line stroke="black" stroke-linecap="round" stroke-width="2.0" x1="128" x2="144" y1="64" y2="64"/>
    <line stroke="black" stroke-linecap="round" stroke-width="2.0" x1="30" x2="44" y1="32" y2="32"/>
    <line stroke="black" stroke-linecap="round" stroke-width="2.0" x1="37" x2="37" y1="25" y2="39"/>
    <line stroke="black" stroke-linecap="round" stroke-width="2.0" x1="30" x2="44" y1="96" y2="96"/>
    <g class="text-group">
      <text fill="black" font-family="Arial" font-size="10.0px" text-anchor="middle" x="72" y="21.5">XU1</text>
    </g>
  </g>
  <g s:height="96" s:type="res_v" s:width="24" transform="translate(640,272)">
    <line stroke="black" stroke-linecap="round" stroke-width="2.0" x1="0" x2="0" y1="0" y2="16"/>
    <line stroke="black" stroke-linecap="round" stroke-width="2.0" x1="0" x2="-12" y1="16" y2="24"/>
    <line stroke="black" stroke-linecap="round" stroke-width="2.0" x1="-12" x2="12" y1="24" y2="40"/>
    <line stroke="black" stroke-linecap="round" stroke-width="2.0" x1="12" x2="-12" y1="40" y2="56"/>
    <line stroke="black" stroke-linecap="round" stroke-width="2.0" x1="-12" x2="12" y1="56" y2="72"/>
    <line stroke="black" stroke-linecap="round" stroke-width="2.0" x1="12" x2="0" y1="72" y2="80"/>
    <line stroke="black" stroke-linecap="round" stroke-width="2.0" x1="0" x2="0" y1="80" y2="96"/>
    <g class="text-group">
      <text fill="black" font-family="Arial" font-size="10.0px" text-anchor="start" x="28" y="23.5">RL</text>
    </g>
    <g class="text-group">
      <text fill="black" font-family="Arial" font-size="10.0px" text-anchor="start" x="28" y="61.5">10k</text>
    </g>
  </g>
  <g class="text-group">
    <text fill="black" font-family="Arial" font-size="16.0px" text-anchor="start" x="64" y="661.6">.include ../../lib/claw_opamps.lib</text>
  </g>
  <g class="text-group">
    <text fill="black" font-family="Arial" font-size="16.0px" text-anchor="start" x="64" y="693.6">.tran 0 4m 0 5u</text>
  </g>
  <g class="text-group">
    <text fill="black" font-family="Arial" font-size="16.0px" text-anchor="start" x="64" y="725.6">.meas TRAN vout_2ms FIND V(out) AT=2m</text>
  </g>
  <g class="text-group">
    <text fill="black" font-family="Arial" font-size="16.0px" text-anchor="start" x="64" y="757.6">.meas TRAN vout_3ms FIND V(out) AT=3m</text>
  </g>
  <g class="text-group">
    <text fill="black" font-family="Arial" font-size="24.0px" text-anchor="end" x="26" y="152.4">in1</text>
  </g>
  <g class="io-pin" transform="translate(64,144) rotate(90)">
    <line stroke="black" stroke-linecap="round" stroke-width="2.0" x1="0" x2="16" y1="0" y2="16"/>
    <line stroke="black" stroke-linecap="round" stroke-width="2.0" x1="16" x2="16" y1="16" y2="32"/>
    <line stroke="black" stroke-linecap="round" stroke-width="2.0" x1="16" x2="-16" y1="32" y2="32"/>
    <line stroke="black" stroke-linecap="round" stroke-width="2.0" x1="-16" x2="-16" y1="32" y2="16"/>
    <line stroke="black" stroke-linecap="round" stroke-width="2.0" x1="-16" x2="0" y1="16" y2="0"/>
  </g>
  <g class="text-group">
    <text fill="black" font-family="Arial" font-size="24.0px" text-anchor="end" x="26" y="408.4">in2</text>
  </g>
  <g class="io-pin" transform="translate(64,400) rotate(90)">
    <line stroke="black" stroke-linecap="round" stroke-width="2.0" x1="0" x2="16" y1="0" y2="16"/>
    <line stroke="black" stroke-linecap="round" stroke-width="2.0" x1="16" x2="16" y1="16" y2="32"/>
    <line stroke="black" stroke-linecap="round" stroke-width="2.0" x1="16" x2="-16" y1="32" y2="32"/>
    <line stroke="black" stroke-linecap="round" stroke-width="2.0" x1="-16" x2="-16" y1="32" y2="16"/>
    <line stroke="black" stroke-linecap="round" stroke-width="2.0" x1="-16" x2="0" y1="16" y2="0"/>
  </g>
  <g class="text-group">
    <text fill="black" font-family="Arial" font-size="24.0px" text-anchor="start" x="756" y="280.4">out</text>
  </g>
  <g class="io-pin" transform="translate(704,272) rotate(270)">
    <line stroke="black" stroke-linecap="round" stroke-width="2.0" x1="-16" x2="0" y1="32" y2="48"/>
    <line stroke="black" stroke-linecap="round" stroke-width="2.0" x1="16" x2="16" y1="16" y2="32"/>
    <line stroke="black" stroke-linecap="round" stroke-width="2.0" x1="16" x2="-16" y1="16" y2="16"/>
    <line stroke="black" stroke-linecap="round" stroke-width="2.0" x1="-16" x2="-16" y1="32" y2="16"/>
    <line stroke="black" stroke-linecap="round" stroke-width="2.0" x1="0" x2="16" y1="48" y2="32"/>
    <line stroke="black" stroke-linecap="round" stroke-width="2.0" x1="0" x2="0" y1="16" y2="0"/>
  </g>
  <g class="ground-flag">
    <g transform="translate(96,240) rotate(0)">
      <line stroke="black" stroke-linecap="round" stroke-width="2.0" x1="-16" x2="16" y1="0" y2="0"/>
      <line stroke="black" stroke-linecap="round" stroke-width="2.0" x1="-16" x2="0" y1="0" y2="16"/>
      <line stroke="black" stroke-linecap="round" stroke-width="2.0" x1="16" x2="0" y1="0" y2="16"/>
    </g>
  </g>
  <g class="ground-flag">
    <g transform="translate(96,496) rotate(0)">
      <line stroke="black" stroke-linecap="round" stroke-width="2.0" x1="-16" x2="16" y1="0" y2="0"/>
      <line stroke="black" stroke-linecap="round" stroke-width="2.0" x1="-16" x2="0" y1="0" y2="16"/>
      <line stroke="black" stroke-linecap="round" stroke-width="2.0" x1="16" x2="0" y1="0" y2="16"/>
    </g>
  </g>
  <g class="ground-flag">
    <g transform="translate(416,240) rotate(0)">
      <line stroke="black" stroke-linecap="round" stroke-width="2.0" x1="-16" x2="16" y1="0" y2="0"/>
      <line stroke="black" stroke-linecap="round" stroke-width="2.0" x1="-16" x2="0" y1="0" y2="16"/>
      <line stroke="black" stroke-linecap="round" stroke-width="2.0" x1="16" x2="0" y1="0" y2="16"/>
    </g>
  </g>
  <g class="ground-flag">
    <g transform="translate(640,368) rotate(0)">
      <line stroke="black" stroke-linecap="round" stroke-width="2.0" x1="-16" x2="16" y1="0" y2="0"/>
      <line stroke="black" stroke-linecap="round" stroke-width="2.0" x1="-16" x2="0" y1="0" y2="16"/>
      <line stroke="black" stroke-linecap="round" stroke-width="2.0" x1="16" x2="0" y1="0" y2="16"/>
    </g>
  </g>
  <g transform="rotate(-90, 720, 48)">
    <g class="text-group">
      <text fill="black" font-family="Arial" font-size="12.0px" text-anchor="middle" x="720" y="43.2">VCC</text>
    </g>
  </g>
  <g class="net-label"/>
  <g class="ground-flag">
    <g transform="translate(720,144) rotate(0)">
      <line stroke="black" stroke-linecap="round" stroke-width="2.0" x1="-16" x2="16" y1="0" y2="0"/>
      <line stroke="black" stroke-linecap="round" stroke-width="2.0" x1="-16" x2="0" y1="0" y2="16"/>
      <line stroke="black" stroke-linecap="round" stroke-width="2.0" x1="16" x2="0" y1="0" y2="16"/>
    </g>
  </g>
  <g transform="rotate(-90, 720, 448)">
    <g class="text-group">
      <text fill="black" font-family="Arial" font-size="12.0px" text-anchor="middle" x="720" y="443.2">VEE</text>
    </g>
  </g>
  <g class="net-label"/>
  <g class="ground-flag">
    <g transform="translate(720,544) rotate(0)">
      <line stroke="black" stroke-linecap="round" stroke-width="2.0" x1="-16" x2="16" y1="0" y2="0"/>
      <line stroke="black" stroke-linecap="round" stroke-width="2.0" x1="-16" x2="0" y1="0" y2="16"/>
      <line stroke="black" stroke-linecap="round" stroke-width="2.0" x1="16" x2="0" y1="0" y2="16"/>
    </g>
  </g>
  <g transform="rotate(-90, 464, 160)">
    <g class="text-group">
      <text fill="black" font-family="Arial" font-size="12.0px" text-anchor="start" x="464" y="168.4">VCC</text>
    </g>
  </g>
  <g class="net-label"/>
  <g transform="rotate(-90, 464, 384)">
    <g class="text-group">
      <text fill="black" font-family="Arial" font-size="12.0px" text-anchor="end" x="464" y="392.4">VEE</text>
    </g>
  </g>
  <g class="net-label"/>
</svg>
