<?xml version="1.0" encoding="utf-8" ?>
<svg xmlns="http://www.w3.org/2000/svg" xmlns:ev="http://www.w3.org/2001/xml-events" xmlns:s="https://github.com/nturley/netlistsvg" xmlns:xlink="http://www.w3.org/1999/xlink" baseProfile="full" height="100%" version="1.1" viewBox="-252.8 -268.8 1881.6 1289.6" width="100%">
  <title>rs2_bloco_a.svg</title>
  <defs/>
  <rect data-claw-background="true" fill="white" height="1289.6" width="1881.6" x="-252.8" y="-268.8"/>
  <line stroke="black" stroke-linecap="round" stroke-width="2.0" x1="608" x2="624" y1="96" y2="96"/>
  <line stroke="black" stroke-linecap="round" stroke-width="2.0" x1="608" x2="624" y1="256" y2="256"/>
  <line stroke="black" stroke-linecap="round" stroke-width="2.0" x1="608" x2="624" y1="416" y2="416"/>
  <line stroke="black" stroke-linecap="round" stroke-width="2.0" x1="624" x2="624" y1="80" y2="416"/>
  <line stroke="black" stroke-linecap="round" stroke-width="2.0" x1="624" x2="688" y1="256" y2="256"/>
  <line stroke="black" stroke-linecap="round" stroke-width="2.0" x1="736" x2="736" y1="160" y2="112"/>
  <line stroke="black" stroke-linecap="round" stroke-width="2.0" x1="736" x2="736" y1="288" y2="336"/>
  <line stroke="black" stroke-linecap="round" stroke-width="2.0" x1="624" x2="736" y1="80" y2="80"/>
  <line stroke="black" stroke-linecap="round" stroke-width="2.0" x1="832" x2="832" y1="80" y2="224"/>
  <line stroke="black" stroke-linecap="round" stroke-width="2.0" x1="224" x2="240" y1="608" y2="608"/>
  <line stroke="black" stroke-linecap="round" stroke-width="2.0" x1="240" x2="240" y1="432" y2="608"/>
  <line stroke="black" stroke-linecap="round" stroke-width="2.0" x1="240" x2="304" y1="608" y2="608"/>
  <line stroke="black" stroke-linecap="round" stroke-width="2.0" x1="352" x2="352" y1="512" y2="464"/>
  <line stroke="black" stroke-linecap="round" stroke-width="2.0" x1="352" x2="352" y1="640" y2="688"/>
  <line stroke="black" stroke-linecap="round" stroke-width="2.0" x1="240" x2="352" y1="432" y2="432"/>
  <line stroke="black" stroke-linecap="round" stroke-width="2.0" x1="448" x2="448" y1="432" y2="576"/>
  <line stroke="black" stroke-linecap="round" stroke-width="2.0" x1="448" x2="448" y1="576" y2="416"/>
  <line stroke="black" stroke-linecap="round" stroke-width="2.0" x1="448" x2="512" y1="416" y2="416"/>
  <line stroke="black" stroke-linecap="round" stroke-width="2.0" x1="64" x2="512" y1="96" y2="96"/>
  <line stroke="black" stroke-linecap="round" stroke-width="2.0" x1="64" x2="512" y1="256" y2="256"/>
  <line stroke="black" stroke-linecap="round" stroke-width="2.0" x1="64" x2="128" y1="608" y2="608"/>
  <line stroke="black" stroke-linecap="round" stroke-width="2.0" x1="832" x2="944" y1="224" y2="224"/>
  <circle cx="240" cy="608" fill="black" r="3.0"/>
  <g s:height="24" s:type="res" s:width="96" transform="translate(512,96)">
    <line stroke="black" stroke-linecap="round" stroke-width="2.0" x1="0" x2="16" y1="0" y2="0"/>
    <line stroke="black" stroke-linecap="round" stroke-width="2.0" x1="16" x2="24" y1="0" y2="-12"/>
    <line stroke="black" stroke-linecap="round" stroke-width="2.0" x1="24" x2="40" y1="-12" y2="12"/>
    <line stroke="black" stroke-linecap="round" stroke-width="2.0" x1="40" x2="56" y1="12" y2="-12"/>
    <line stroke="black" stroke-linecap="round" stroke-width="2.0" x1="56" x2="72" y1="-12" y2="12"/>
    <line stroke="black" stroke-linecap="round" stroke-width="2.0" x1="72" x2="80" y1="12" y2="0"/>
    <line stroke="black" stroke-linecap="round" stroke-width="2.0" x1="80" x2="96" y1="0" y2="0"/>
    <g class="text-group">
      <text fill="black" font-family="Arial" font-size="10.0px" text-anchor="middle" x="48" y="-32.5">RA1</text>
    </g>
    <g class="text-group">
      <text fill="black" font-family="Arial" font-size="10.0px" text-anchor="middle" x="48" y="31.5">11.1111k</text>
    </g>
  </g>
  <g s:height="24" s:type="res" s:width="96" transform="translate(512,256)">
    <line stroke="black" stroke-linecap="round" stroke-width="2.0" x1="0" x2="16" y1="0" y2="0"/>
    <line stroke="black" stroke-linecap="round" stroke-width="2.0" x1="16" x2="24" y1="0" y2="-12"/>
    <line stroke="black" stroke-linecap="round" stroke-width="2.0" x1="24" x2="40" y1="-12" y2="12"/>
    <line stroke="black" stroke-linecap="round" stroke-width="2.0" x1="40" x2="56" y1="12" y2="-12"/>
    <line stroke="black" stroke-linecap="round" stroke-width="2.0" x1="56" x2="72" y1="-12" y2="12"/>
    <line stroke="black" stroke-linecap="round" stroke-width="2.0" x1="72" x2="80" y1="12" y2="0"/>
    <line stroke="black" stroke-linecap="round" stroke-width="2.0" x1="80" x2="96" y1="0" y2="0"/>
    <g class="text-group">
      <text fill="black" font-family="Arial" font-size="10.0px" text-anchor="middle" x="48" y="-32.5">RA2</text>
    </g>
    <g class="text-group">
      <text fill="black" font-family="Arial" font-size="10.0px" text-anchor="middle" x="48" y="31.5">35.7143k</text>
    </g>
  </g>
  <g s:height="24" s:type="res" s:width="96" transform="translate(512,416)">
    <line stroke="black" stroke-linecap="round" stroke-width="2.0" x1="0" x2="16" y1="0" y2="0"/>
    <line stroke="black" stroke-linecap="round" stroke-width="2.0" x1="16" x2="24" y1="0" y2="-12"/>
    <line stroke="black" stroke-linecap="round" stroke-width="2.0" x1="24" x2="40" y1="-12" y2="12"/>
    <line stroke="black" stroke-linecap="round" stroke-width="2.0" x1="40" x2="56" y1="12" y2="-12"/>
    <line stroke="black" stroke-linecap="round" stroke-width="2.0" x1="56" x2="72" y1="-12" y2="12"/>
    <line stroke="black" stroke-linecap="round" stroke-width="2.0" x1="72" x2="80" y1="12" y2="0"/>
    <line stroke="black" stroke-linecap="round" stroke-width="2.0" x1="80" x2="96" y1="0" y2="0"/>
    <g class="text-group">
      <text fill="black" font-family="Arial" font-size="10.0px" text-anchor="middle" x="48" y="-32.5">RA3</text>
    </g>
    <g class="text-group">
      <text fill="black" font-family="Arial" font-size="10.0px" text-anchor="middle" x="48" y="31.5">100k</text>
    </g>
  </g>
  <g s:height="128" s:type="opamp2" s:width="144" transform="translate(688,160)">
    <line stroke="black" stroke-linecap="round" stroke-width="2.0" x1="0" x2="24" y1="32" y2="32"/>
    <line stroke="black" stroke-linecap="round" stroke-width="2.0" x1="0" x2="24" y1="96" y2="96"/>
    <line stroke="black" stroke-linecap="round" stroke-width="2.0" x1="48" x2="48" y1="0" y2="24"/>
    <line stroke="black" stroke-linecap="round" stroke-width="2.0" x1="48" x2="48" y1="104" y2="128"/>
    <line stroke="black" stroke-linecap="round" stroke-width="2.0" x1="24" x2="24" y1="0" y2="128"/>
    <line stroke="black" stroke-linecap="round" stroke-width="2.0" x1="24" x2="128" y1="0" y2="64"/>
    <line stroke="black" stroke-linecap="round" stroke-width="2.0" x1="128" x2="24" y1="64" y2="128"/>
    <line stroke="black" stroke-linecap="round" stroke-width="2.0" x1="128" x2="144" y1="64" y2="64"/>
    <line stroke="black" stroke-linecap="round" stroke-width="2.0" x1="30" x2="44" y1="32" y2="32"/>
    <line stroke="black" stroke-linecap="round" stroke-width="2.0" x1="37" x2="37" y1="25" y2="39"/>
    <line stroke="black" stroke-linecap="round" stroke-width="2.0" x1="30" x2="44" y1="96" y2="96"/>
    <g class="text-group">
      <text fill="black" font-family="Arial" font-size="10.0px" text-anchor="middle" x="72" y="21.5">XA2</text>
    </g>
  </g>
  <g s:height="24" s:type="res" s:width="96" transform="translate(736,80)">
    <line stroke="black" stroke-linecap="round" stroke-width="2.0" x1="0" x2="16" y1="0" y2="0"/>
    <line stroke="black" stroke-linecap="round" stroke-width="2.0" x1="16" x2="24" y1="0" y2="-12"/>
    <line stroke="black" stroke-linecap="round" stroke-width="2.0" x1="24" x2="40" y1="-12" y2="12"/>
    <line stroke="black" stroke-linecap="round" stroke-width="2.0" x1="40" x2="56" y1="12" y2="-12"/>
    <line stroke="black" stroke-linecap="round" stroke-width="2.0" x1="56" x2="72" y1="-12" y2="12"/>
    <line stroke="black" stroke-linecap="round" stroke-width="2.0" x1="72" x2="80" y1="12" y2="0"/>
    <line stroke="black" stroke-linecap="round" stroke-width="2.0" x1="80" x2="96" y1="0" y2="0"/>
    <g class="text-group">
      <text fill="black" font-family="Arial" font-size="10.0px" text-anchor="middle" x="48" y="-32.5">RAF2</text>
    </g>
    <g class="text-group">
      <text fill="black" font-family="Arial" font-size="10.0px" text-anchor="middle" x="48" y="31.5">100k</text>
    </g>
  </g>
  <g s:height="24" s:type="res" s:width="96" transform="translate(128,608)">
    <line stroke="black" stroke-linecap="round" stroke-width="2.0" x1="0" x2="16" y1="0" y2="0"/>
    <line stroke="black" stroke-linecap="round" stroke-width="2.0" x1="16" x2="24" y1="0" y2="-12"/>
    <line stroke="black" stroke-linecap="round" stroke-width="2.0" x1="24" x2="40" y1="-12" y2="12"/>
    <line stroke="black" stroke-linecap="round" stroke-width="2.0" x1="40" x2="56" y1="12" y2="-12"/>
    <line stroke="black" stroke-linecap="round" stroke-width="2.0" x1="56" x2="72" y1="-12" y2="12"/>
    <line stroke="black" stroke-linecap="round" stroke-width="2.0" x1="72" x2="80" y1="12" y2="0"/>
    <line stroke="black" stroke-linecap="round" stroke-width="2.0" x1="80" x2="96" y1="0" y2="0"/>
    <g class="text-group">
      <text fill="black" font-family="Arial" font-size="10.0px" text-anchor="middle" x="48" y="-32.5">RA4</text>
    </g>
    <g class="text-group">
      <text fill="black" font-family="Arial" font-size="10.0px" text-anchor="middle" x="48" y="31.5">10k</text>
    </g>
  </g>
  <g s:height="128" s:type="opamp2" s:width="144" transform="translate(304,512)">
    <line stroke="black" stroke-linecap="round" stroke-width="2.0" x1="0" x2="24" y1="32" y2="32"/>
    <line stroke="black" stroke-linecap="round" stroke-width="2.0" x1="0" x2="24" y1="96" y2="96"/>
    <line stroke="black" stroke-linecap="round" stroke-width="2.0" x1="48" x2="48" y1="0" y2="24"/>
    <line stroke="black" stroke-linecap="round" stroke-width="2.0" x1="48" x2="48" y1="104" y2="128"/>
    <line stroke="black" stroke-linecap="round" stroke-width="2.0" x1="24" x2="24" y1="0" y2="128"/>
    <line stroke="black" stroke-linecap="round" stroke-width="2.0" x1="24" x2="128" y1="0" y2="64"/>
    <line stroke="black" stroke-linecap="round" stroke-width="2.0" x1="128" x2="24" y1="64" y2="128"/>
    <line stroke="black" stroke-linecap="round" stroke-width="2.0" x1="128" x2="144" y1="64" y2="64"/>
    <line stroke="black" stroke-linecap="round" stroke-width="2.0" x1="30" x2="44" y1="32" y2="32"/>
    <line stroke="black" stroke-linecap="round" stroke-width="2.0" x1="37" x2="37" y1="25" y2="39"/>
    <line stroke="black" stroke-linecap="round" stroke-width="2.0" x1="30" x2="44" y1="96" y2="96"/>
    <g class="text-group">
      <text fill="black" font-family="Arial" font-size="10.0px" text-anchor="middle" x="72" y="21.5">XA1</text>
    </g>
  </g>
  <g s:height="24" s:type="res" s:width="96" transform="translate(352,432)">
    <line stroke="black" stroke-linecap="round" stroke-width="2.0" x1="0" x2="16" y1="0" y2="0"/>
    <line stroke="black" stroke-linecap="round" stroke-width="2.0" x1="16" x2="24" y1="0" y2="-12"/>
    <line stroke="black" stroke-linecap="round" stroke-width="2.0" x1="24" x2="40" y1="-12" y2="12"/>
    <line stroke="black" stroke-linecap="round" stroke-width="2.0" x1="40" x2="56" y1="12" y2="-12"/>
    <line stroke="black" stroke-linecap="round" stroke-width="2.0" x1="56" x2="72" y1="-12" y2="12"/>
    <line stroke="black" stroke-linecap="round" stroke-width="2.0" x1="72" x2="80" y1="12" y2="0"/>
    <line stroke="black" stroke-linecap="round" stroke-width="2.0" x1="80" x2="96" y1="0" y2="0"/>
    <g class="text-group">
      <text fill="black" font-family="Arial" font-size="10.0px" text-anchor="middle" x="48" y="-32.5">RAF1</text>
    </g>
    <g class="text-group">
      <text fill="black" font-family="Arial" font-size="10.0px" text-anchor="middle" x="48" y="31.5">25k</text>
    </g>
  </g>
  <g s:height="96" s:type="voltage" s:width="48" transform="translate(96,96)">
    <line stroke="black" stroke-linecap="round" stroke-width="2.0" x1="0" x2="0" y1="0" y2="24"/>
    <line stroke="black" stroke-linecap="round" stroke-width="2.0" x1="0" x2="0" y1="72" y2="96"/>
    <line stroke="black" stroke-linecap="round" stroke-width="2.0" x1="-10" x2="10" y1="40" y2="40"/>
    <line stroke="black" stroke-linecap="round" stroke-width="2.0" x1="0" x2="0" y1="30" y2="50"/>
    <line stroke="black" stroke-linecap="round" stroke-width="2.0" x1="-10" x2="10" y1="56" y2="56"/>
    <circle cx="0.0" cy="48.0" fill="none" r="24.0" stroke="black" stroke-width="2.0"/>
    <g class="text-group">
      <text fill="black" font-family="Arial" font-size="10.0px" text-anchor="start" x="40" y="21.5">VIN1</text>
    </g>
    <g class="text-group">
      <text fill="black" font-family="Arial" font-size="10.0px" text-anchor="middle" x="0" y="125.5">SINE(0 0.1 300)</text>
    </g>
  </g>
  <g s:height="96" s:type="voltage" s:width="48" transform="translate(96,256)">
    <line stroke="black" stroke-linecap="round" stroke-width="2.0" x1="0" x2="0" y1="0" y2="24"/>
    <line stroke="black" stroke-linecap="round" stroke-width="2.0" x1="0" x2="0" y1="72" y2="96"/>
    <line stroke="black" stroke-linecap="round" stroke-width="2.0" x1="-10" x2="10" y1="40" y2="40"/>
    <line stroke="black" stroke-linecap="round" stroke-width="2.0" x1="0" x2="0" y1="30" y2="50"/>
    <line stroke="black" stroke-linecap="round" stroke-width="2.0" x1="-10" x2="10" y1="56" y2="56"/>
    <circle cx="0.0" cy="48.0" fill="none" r="24.0" stroke="black" stroke-width="2.0"/>
    <g class="text-group">
      <text fill="black" font-family="Arial" font-size="10.0px" text-anchor="start" x="40" y="21.5">VIN2</text>
    </g>
    <g class="text-group">
      <text fill="black" font-family="Arial" font-size="10.0px" text-anchor="middle" x="0" y="125.5">SINE(0 0.2 700)</text>
    </g>
  </g>
  <g s:height="96" s:type="voltage" s:width="48" transform="translate(96,608)">
    <line stroke="black" stroke-linecap="round" stroke-width="2.0" x1="0" x2="0" y1="0" y2="24"/>
    <line stroke="black" stroke-linecap="round" stroke-width="2.0" x1="0" x2="0" y1="72" y2="96"/>
    <line stroke="black" stroke-linecap="round" stroke-width="2.0" x1="-10" x2="10" y1="40" y2="40"/>
    <line stroke="black" stroke-linecap="round" stroke-width="2.0" x1="0" x2="0" y1="30" y2="50"/>
    <line stroke="black" stroke-linecap="round" stroke-width="2.0" x1="-10" x2="10" y1="56" y2="56"/>
    <circle cx="0.0" cy="48.0" fill="none" r="24.0" stroke="black" stroke-width="2.0"/>
    <g class="text-group">
      <text fill="black" font-family="Arial" font-size="10.0px" text-anchor="start" x="40" y="21.5">VIN3</text>
    </g>
    <g class="text-group">
      <text fill="black" font-family="Arial" font-size="10.0px" text-anchor="middle" x="0" y="125.5">SINE(0 0.4 1300)</text>
    </g>
  </g>
  <g s:height="96" s:type="res_v" s:width="24" transform="translate(896,224)">
    <line stroke="black" stroke-linecap="round" stroke-width="2.0" x1="0" x2="0" y1="0" y2="16"/>
    <line stroke="black" stroke-linecap="round" stroke-width="2.0" x1="0" x2="-12" y1="16" y2="24"/>
    <line stroke="black" stroke-linecap="round" stroke-width="2.0" x1="-12" x2="12" y1="24" y2="40"/>
    <line stroke="black" stroke-linecap="round" stroke-width="2.0" x1="12" x2="-12" y1="40" y2="56"/>
    <line stroke="black" stroke-linecap="round" stroke-width="2.0" x1="-12" x2="12" y1="56" y2="72"/>
    <line stroke="black" stroke-linecap="round" stroke-width="2.0" x1="12" x2="0" y1="72" y2="80"/>
    <line stroke="black" stroke-linecap="round" stroke-width="2.0" x1="0" x2="0" y1="80" y2="96"/>
    <g class="text-group">
      <text fill="black" font-family="Arial" font-size="10.0px" text-anchor="start" x="28" y="23.5">RL</text>
    </g>
    <g class="text-group">
      <text fill="black" font-family="Arial" font-size="10.0px" text-anchor="start" x="28" y="61.5">10k</text>
    </g>
  </g>
  <g s:height="96" s:type="voltage" s:width="48" transform="translate(1280,96)">
    <line stroke="black" stroke-linecap="round" stroke-width="2.0" x1="0" x2="0" y1="0" y2="24"/>
    <line stroke="black" stroke-linecap="round" stroke-width="2.0" x1="0" x2="0" y1="72" y2="96"/>
    <line stroke="black" stroke-linecap="round" stroke-width="2.0" x1="-10" x2="10" y1="40" y2="40"/>
    <line stroke="black" stroke-linecap="round" stroke-width="2.0" x1="0" x2="0" y1="30" y2="50"/>
    <line stroke="black" stroke-linecap="round" stroke-width="2.0" x1="-10" x2="10" y1="56" y2="56"/>
    <circle cx="0.0" cy="48.0" fill="none" r="24.0" stroke="black" stroke-width="2.0"/>
    <g class="text-group">
      <text fill="black" font-family="Arial" font-size="10.0px" text-anchor="start" x="40" y="21.5">VCC</text>
    </g>
    <g class="text-group">
      <text fill="black" font-family="Arial" font-size="10.0px" text-anchor="middle" x="0" y="125.5">15</text>
    </g>
  </g>
  <g s:height="96" s:type="voltage" s:width="48" transform="translate(1280,288)">
    <line stroke="black" stroke-linecap="round" stroke-width="2.0" x1="0" x2="0" y1="0" y2="24"/>
    <line stroke="black" stroke-linecap="round" stroke-width="2.0" x1="0" x2="0" y1="72" y2="96"/>
    <line stroke="black" stroke-linecap="round" stroke-width="2.0" x1="-10" x2="10" y1="40" y2="40"/>
    <line stroke="black" stroke-linecap="round" stroke-width="2.0" x1="0" x2="0" y1="30" y2="50"/>
    <line stroke="black" stroke-linecap="round" stroke-width="2.0" x1="-10" x2="10" y1="56" y2="56"/>
    <circle cx="0.0" cy="48.0" fill="none" r="24.0" stroke="black" stroke-width="2.0"/>
    <g class="text-group">
      <text fill="black" font-family="Arial" font-size="10.0px" text-anchor="start" x="40" y="21.5">VEE</text>
    </g>
    <g class="text-group">
      <text fill="black" font-family="Arial" font-size="10.0px" text-anchor="middle" x="0" y="125.5">-15</text>
    </g>
  </g>
  <g class="text-group">
    <text fill="black" font-family="Arial" font-size="16.0px" text-anchor="start" x="64" y="821.6">.include models/lm741_level1.lib</text>
  </g>
  <g class="text-group">
    <text fill="black" font-family="Arial" font-size="16.0px" text-anchor="start" x="64" y="853.6">.tran 0 20m 0 10u</text>
  </g>
  <g class="text-group">
    <text fill="black" font-family="Arial" font-size="16.0px" text-anchor="start" x="64" y="885.6">.meas TRAN vout1_max MAX V(vout1)</text>
  </g>
  <g class="ground-flag">
    <g transform="translate(688,192) rotate(0)">
      <line stroke="black" stroke-linecap="round" stroke-width="2.0" x1="-16" x2="16" y1="0" y2="0"/>
      <line stroke="black" stroke-linecap="round" stroke-width="2.0" x1="-16" x2="0" y1="0" y2="16"/>
      <line stroke="black" stroke-linecap="round" stroke-width="2.0" x1="16" x2="0" y1="0" y2="16"/>
    </g>
  </g>
  <g transform="rotate(-90, 736, 112)">
    <g class="text-group">
      <text fill="black" font-family="Arial" font-size="12.0px" text-anchor="start" x="736" y="120.4">VCC</text>
    </g>
  </g>
  <g class="net-label"/>
  <g transform="rotate(-90, 736, 336)">
    <g class="text-group">
      <text fill="black" font-family="Arial" font-size="12.0px" text-anchor="end" x="736" y="344.4">VEE</text>
    </g>
  </g>
  <g class="net-label"/>
  <g class="ground-flag">
    <g transform="translate(304,544) rotate(0)">
      <line stroke="black" stroke-linecap="round" stroke-width="2.0" x1="-16" x2="16" y1="0" y2="0"/>
      <line stroke="black" stroke-linecap="round" stroke-width="2.0" x1="-16" x2="0" y1="0" y2="16"/>
      <line stroke="black" stroke-linecap="round" stroke-width="2.0" x1="16" x2="0" y1="0" y2="16"/>
    </g>
  </g>
  <g transform="rotate(-90, 352, 464)">
    <g class="text-group">
      <text fill="black" font-family="Arial" font-size="12.0px" text-anchor="start" x="352" y="472.4">VCC</text>
    </g>
  </g>
  <g class="net-label"/>
  <g transform="rotate(-90, 352, 688)">
    <g class="text-group">
      <text fill="black" font-family="Arial" font-size="12.0px" text-anchor="end" x="352" y="696.4">VEE</text>
    </g>
  </g>
  <g class="net-label"/>
  <g class="ground-flag">
    <g transform="translate(96,192) rotate(0)">
      <line stroke="black" stroke-linecap="round" stroke-width="2.0" x1="-16" x2="16" y1="0" y2="0"/>
      <line stroke="black" stroke-linecap="round" stroke-width="2.0" x1="-16" x2="0" y1="0" y2="16"/>
      <line stroke="black" stroke-linecap="round" stroke-width="2.0" x1="16" x2="0" y1="0" y2="16"/>
    </g>
  </g>
  <g class="text-group">
    <text fill="black" font-family="Arial" font-size="24.0px" text-anchor="end" x="26" y="104.4">in1</text>
  </g>
  <g class="io-pin" transform="translate(64,96) rotate(90)">
    <line stroke="black" stroke-linecap="round" stroke-width="2.0" x1="0" x2="16" y1="0" y2="16"/>
    <line stroke="black" stroke-linecap="round" stroke-width="2.0" x1="16" x2="16" y1="16" y2="32"/>
    <line stroke="black" stroke-linecap="round" stroke-width="2.0" x1="16" x2="-16" y1="32" y2="32"/>
    <line stroke="black" stroke-linecap="round" stroke-width="2.0" x1="-16" x2="-16" y1="32" y2="16"/>
    <line stroke="black" stroke-linecap="round" stroke-width="2.0" x1="-16" x2="0" y1="16" y2="0"/>
  </g>
  <g class="ground-flag">
    <g transform="translate(96,352) rotate(0)">
      <line stroke="black" stroke-linecap="round" stroke-width="2.0" x1="-16" x2="16" y1="0" y2="0"/>
      <line stroke="black" stroke-linecap="round" stroke-width="2.0" x1="-16" x2="0" y1="0" y2="16"/>
      <line stroke="black" stroke-linecap="round" stroke-width="2.0" x1="16" x2="0" y1="0" y2="16"/>
    </g>
  </g>
  <g class="text-group">
    <text fill="black" font-family="Arial" font-size="24.0px" text-anchor="end" x="26" y="264.4">in2</text>
  </g>
  <g class="io-pin" transform="translate(64,256) rotate(90)">
    <line stroke="black" stroke-linecap="round" stroke-width="2.0" x1="0" x2="16" y1="0" y2="16"/>
    <line stroke="black" stroke-linecap="round" stroke-width="2.0" x1="16" x2="16" y1="16" y2="32"/>
    <line stroke="black" stroke-linecap="round" stroke-width="2.0" x1="16" x2="-16" y1="32" y2="32"/>
    <line stroke="black" stroke-linecap="round" stroke-width="2.0" x1="-16" x2="-16" y1="32" y2="16"/>
    <line stroke="black" stroke-linecap="round" stroke-width="2.0" x1="-16" x2="0" y1="16" y2="0"/>
  </g>
  <g class="ground-flag">
    <g transform="translate(96,704) rotate(0)">
      <line stroke="black" stroke-linecap="round" stroke-width="2.0" x1="-16" x2="16" y1="0" y2="0"/>
      <line stroke="black" stroke-linecap="round" stroke-width="2.0" x1="-16" x2="0" y1="0" y2="16"/>
      <line stroke="black" stroke-linecap="round" stroke-width="2.0" x1="16" x2="0" y1="0" y2="16"/>
    </g>
  </g>
  <g class="text-group">
    <text fill="black" font-family="Arial" font-size="24.0px" text-anchor="end" x="26" y="616.4">in3</text>
  </g>
  <g class="io-pin" transform="translate(64,608) rotate(90)">
    <line stroke="black" stroke-linecap="round" stroke-width="2.0" x1="0" x2="16" y1="0" y2="16"/>
    <line stroke="black" stroke-linecap="round" stroke-width="2.0" x1="16" x2="16" y1="16" y2="32"/>
    <line stroke="black" stroke-linecap="round" stroke-width="2.0" x1="16" x2="-16" y1="32" y2="32"/>
    <line stroke="black" stroke-linecap="round" stroke-width="2.0" x1="-16" x2="-16" y1="32" y2="16"/>
    <line stroke="black" stroke-linecap="round" stroke-width="2.0" x1="-16" x2="0" y1="16" y2="0"/>
  </g>
  <g class="ground-flag">
    <g transform="translate(896,320) rotate(0)">
      <line stroke="black" stroke-linecap="round" stroke-width="2.0" x1="-16" x2="16" y1="0" y2="0"/>
      <line stroke="black" stroke-linecap="round" stroke-width="2.0" x1="-16" x2="0" y1="0" y2="16"/>
      <line stroke="black" stroke-linecap="round" stroke-width="2.0" x1="16" x2="0" y1="0" y2="16"/>
    </g>
  </g>
  <g class="text-group">
    <text fill="black" font-family="Arial" font-size="24.0px" text-anchor="start" x="996" y="232.4">vout1</text>
  </g>
  <g class="io-pin" transform="translate(944,224) rotate(270)">
    <line stroke="black" stroke-linecap="round" stroke-width="2.0" x1="-16" x2="0" y1="32" y2="48"/>
    <line stroke="black" stroke-linecap="round" stroke-width="2.0" x1="16" x2="16" y1="16" y2="32"/>
    <line stroke="black" stroke-linecap="round" stroke-width="2.0" x1="16" x2="-16" y1="16" y2="16"/>
    <line stroke="black" stroke-linecap="round" stroke-width="2.0" x1="-16" x2="-16" y1="32" y2="16"/>
    <line stroke="black" stroke-linecap="round" stroke-width="2.0" x1="0" x2="16" y1="48" y2="32"/>
    <line stroke="black" stroke-linecap="round" stroke-width="2.0" x1="0" x2="0" y1="16" y2="0"/>
  </g>
  <g transform="rotate(-90, 1280, 96)">
    <g class="text-group">
      <text fill="black" font-family="Arial" font-size="12.0px" text-anchor="middle" x="1280" y="91.2">VCC</text>
    </g>
  </g>
  <g class="net-label"/>
  <g class="ground-flag">
    <g transform="translate(1280,192) rotate(0)">
      <line stroke="black" stroke-linecap="round" stroke-width="2.0" x1="-16" x2="16" y1="0" y2="0"/>
      <line stroke="black" stroke-linecap="round" stroke-width="2.0" x1="-16" x2="0" y1="0" y2="16"/>
      <line stroke="black" stroke-linecap="round" stroke-width="2.0" x1="16" x2="0" y1="0" y2="16"/>
    </g>
  </g>
  <g transform="rotate(-90, 1280, 288)">
    <g class="text-group">
      <text fill="black" font-family="Arial" font-size="12.0px" text-anchor="middle" x="1280" y="283.2">VEE</text>
    </g>
  </g>
  <g class="net-label"/>
  <g class="ground-flag">
    <g transform="translate(1280,384) rotate(0)">
      <line stroke="black" stroke-linecap="round" stroke-width="2.0" x1="-16" x2="16" y1="0" y2="0"/>
      <line stroke="black" stroke-linecap="round" stroke-width="2.0" x1="-16" x2="0" y1="0" y2="16"/>
      <line stroke="black" stroke-linecap="round" stroke-width="2.0" x1="16" x2="0" y1="0" y2="16"/>
    </g>
  </g>
</svg>
