<svg xmlns="http://www.w3.org/2000/svg" viewBox="0 0 960 560" width="960" height="560" role="img">
<rect width="100%" height="100%" fill="#ffffff"/>
<style>.title{font:700 20px system-ui,sans-serif;fill:#111827}.axis{font:12px ui-monospace,SFMono-Regular,Menlo,monospace;fill:#374151}.legend{font:13px ui-monospace,SFMono-Regular,Menlo,monospace;fill:#111827}.grid{stroke:#e5e7eb;stroke-width:1}.frame{stroke:#374151;stroke-width:1.5;fill:none}.reference{stroke-dasharray:7 5;stroke-width:1.7}.reference-label{font:12px ui-monospace,SFMono-Regular,Menlo,monospace;fill:#374151}</style>
<text x="86" y="34" class="title">Diode clipper response</text>
<line x1="86.00" y1="72" x2="86.00" y2="478" class="grid"/>
<text x="86.00" y="502" text-anchor="middle" class="axis">0</text>
<line x1="255.20" y1="72" x2="255.20" y2="478" class="grid"/>
<text x="255.20" y="502" text-anchor="middle" class="axis">0.00168</text>
<line x1="424.40" y1="72" x2="424.40" y2="478" class="grid"/>
<text x="424.40" y="502" text-anchor="middle" class="axis">0.00336</text>
<line x1="593.60" y1="72" x2="593.60" y2="478" class="grid"/>
<text x="593.60" y="502" text-anchor="middle" class="axis">0.00504</text>
<line x1="762.80" y1="72" x2="762.80" y2="478" class="grid"/>
<text x="762.80" y="502" text-anchor="middle" class="axis">0.00672</text>
<line x1="932.00" y1="72" x2="932.00" y2="478" class="grid"/>
<text x="932.00" y="502" text-anchor="middle" class="axis">0.0084</text>
<line x1="86" y1="478.00" x2="932" y2="478.00" class="grid"/>
<text x="74" y="482.00" text-anchor="end" class="axis">-3.293</text>
<line x1="86" y1="396.80" x2="932" y2="396.80" class="grid"/>
<text x="74" y="400.80" text-anchor="end" class="axis">-1.976</text>
<line x1="86" y1="315.60" x2="932" y2="315.60" class="grid"/>
<text x="74" y="319.60" text-anchor="end" class="axis">-0.6587</text>
<line x1="86" y1="234.40" x2="932" y2="234.40" class="grid"/>
<text x="74" y="238.40" text-anchor="end" class="axis">0.6587</text>
<line x1="86" y1="153.20" x2="932" y2="153.20" class="grid"/>
<text x="74" y="157.20" text-anchor="end" class="axis">1.976</text>
<line x1="86" y1="72.00" x2="932" y2="72.00" class="grid"/>
<text x="74" y="76.00" text-anchor="end" class="axis">3.293</text>
<rect x="86" y="72" width="846" height="406" class="frame"/>
<polyline points="86.00,275.00 90.03,229.01 94.06,185.92 98.09,148.42 102.11,118.88 106.14,99.14 110.17,90.45 114.20,93.36 118.23,107.69 122.26,132.52 126.29,166.31 130.31,206.93 134.34,251.82 138.37,298.18 142.40,343.07 146.43,383.69 150.46,417.48 154.49,442.31 158.51,456.64 162.54,459.55 166.57,450.86 170.60,431.12 174.63,401.58 178.66,364.08 182.69,320.99 186.71,275.00 190.74,229.01 194.77,185.92 198.80,148.42 202.83,118.88 206.86,99.14 210.89,90.45 214.91,93.36 218.94,107.69 222.97,132.52 227.00,166.31 231.03,206.93 235.06,251.82 239.09,298.18 243.11,343.07 247.14,383.69 251.17,417.48 255.20,442.31 259.23,456.64 263.26,459.55 267.29,450.86 271.31,431.12 275.34,401.58 279.37,364.08 283.40,320.99 287.43,275.00 291.46,229.01 295.49,185.92 299.51,148.42 303.54,118.88 307.57,99.14 311.60,90.45 315.63,93.36 319.66,107.69 323.69,132.52 327.71,166.31 331.74,206.93 335.77,251.82 339.80,298.18 343.83,343.07 347.86,383.69 351.89,417.48 355.91,442.31 359.94,456.64 363.97,459.55 368.00,450.86 372.03,431.12 376.06,401.58 380.09,364.08 384.11,320.99 388.14,275.00 392.17,229.01 396.20,185.92 400.23,148.42 404.26,118.88 408.29,99.14 412.31,90.45 416.34,93.36 420.37,107.69 424.40,132.52 428.43,166.31 432.46,206.93 436.49,251.82 440.51,298.18 444.54,343.07 448.57,383.69 452.60,417.48 456.63,442.31 460.66,456.64 464.69,459.55 468.71,450.86 472.74,431.12 476.77,401.58 480.80,364.08 484.83,320.99 488.86,275.00 492.89,229.01 496.91,185.92 500.94,148.42 504.97,118.88 509.00,99.14 513.03,90.45 517.06,93.36 521.09,107.69 525.11,132.52 529.14,166.31 533.17,206.93 537.20,251.82 541.23,298.18 545.26,343.07 549.29,383.69 553.31,417.48 557.34,442.31 561.37,456.64 565.40,459.55 569.43,450.86 573.46,431.12 577.49,401.58 581.51,364.08 585.54,320.99 589.57,275.00 593.60,229.01 597.63,185.92 601.66,148.42 605.69,118.88 609.71,99.14 613.74,90.45 617.77,93.36 621.80,107.69 625.83,132.52 629.86,166.31 633.89,206.93 637.91,251.82 641.94,298.18 645.97,343.07 650.00,383.69 654.03,417.48 658.06,442.31 662.09,456.64 666.11,459.55 670.14,450.86 674.17,431.12 678.20,401.58 682.23,364.08 686.26,320.99 690.29,275.00 694.31,229.01 698.34,185.92 702.37,148.42 706.40,118.88 710.43,99.14 714.46,90.45 718.49,93.36 722.51,107.69 726.54,132.52 730.57,166.31 734.60,206.93 738.63,251.82 742.66,298.18 746.69,343.07 750.71,383.69 754.74,417.48 758.77,442.31 762.80,456.64 766.83,459.55 770.86,450.86 774.89,431.12 778.91,401.58 782.94,364.08 786.97,320.99 791.00,275.00 795.03,229.01 799.06,185.92 803.09,148.42 807.11,118.88 811.14,99.14 815.17,90.45 819.20,93.36 823.23,107.69 827.26,132.52 831.29,166.31 835.31,206.93 839.34,251.82 843.37,298.18 847.40,343.07 851.43,383.69 855.46,417.48 859.49,442.31 863.51,456.64 867.54,459.55 871.57,450.86 875.60,431.12 879.63,401.58 883.66,364.08 887.69,320.99 891.71,275.00" fill="none" stroke="#2563eb" stroke-width="2.25" stroke-linejoin="round" stroke-linecap="round"/>
<polyline points="86.00,275.00 90.03,230.53 94.06,227.94 98.09,225.69 102.11,223.92 106.14,222.73 110.17,222.21 114.20,222.39 118.23,223.25 122.26,224.74 126.29,226.76 130.31,229.20 134.34,251.82 138.37,298.18 142.40,343.07 146.43,383.69 150.46,417.48 154.49,442.31 158.51,456.64 162.54,459.55 166.57,450.86 170.60,431.12 174.63,401.58 178.66,364.08 182.69,320.99 186.71,275.00 190.74,230.53 194.77,227.94 198.80,225.69 202.83,223.92 206.86,222.73 210.89,222.21 214.91,222.39 218.94,223.25 222.97,224.74 227.00,226.76 231.03,229.20 235.06,251.82 239.09,298.18 243.11,343.07 247.14,383.69 251.17,417.48 255.20,442.31 259.23,456.64 263.26,459.55 267.29,450.86 271.31,431.12 275.34,401.58 279.37,364.08 283.40,320.99 287.43,275.00 291.46,230.53 295.49,227.94 299.51,225.69 303.54,223.92 307.57,222.73 311.60,222.21 315.63,222.39 319.66,223.25 323.69,224.74 327.71,226.76 331.74,229.20 335.77,251.82 339.80,298.18 343.83,343.07 347.86,383.69 351.89,417.48 355.91,442.31 359.94,456.64 363.97,459.55 368.00,450.86 372.03,431.12 376.06,401.58 380.09,364.08 384.11,320.99 388.14,275.00 392.17,230.53 396.20,227.94 400.23,225.69 404.26,223.92 408.29,222.73 412.31,222.21 416.34,222.39 420.37,223.25 424.40,224.74 428.43,226.76 432.46,229.20 436.49,251.82 440.51,298.18 444.54,343.07 448.57,383.69 452.60,417.48 456.63,442.31 460.66,456.64 464.69,459.55 468.71,450.86 472.74,431.12 476.77,401.58 480.80,364.08 484.83,320.99 488.86,275.00 492.89,230.53 496.91,227.94 500.94,225.69 504.97,223.92 509.00,222.73 513.03,222.21 517.06,222.39 521.09,223.25 525.11,224.74 529.14,226.76 533.17,229.20 537.20,251.82 541.23,298.18 545.26,343.07 549.29,383.69 553.31,417.48 557.34,442.31 561.37,456.64 565.40,459.55 569.43,450.86 573.46,431.12 577.49,401.58 581.51,364.08 585.54,320.99 589.57,275.00 593.60,230.53 597.63,227.94 601.66,225.69 605.69,223.92 609.71,222.73 613.74,222.21 617.77,222.39 621.80,223.25 625.83,224.74 629.86,226.76 633.89,229.20 637.91,251.82 641.94,298.18 645.97,343.07 650.00,383.69 654.03,417.48 658.06,442.31 662.09,456.64 666.11,459.55 670.14,450.86 674.17,431.12 678.20,401.58 682.23,364.08 686.26,320.99 690.29,275.00 694.31,230.53 698.34,227.94 702.37,225.69 706.40,223.92 710.43,222.73 714.46,222.21 718.49,222.39 722.51,223.25 726.54,224.74 730.57,226.76 734.60,229.20 738.63,251.82 742.66,298.18 746.69,343.07 750.71,383.69 754.74,417.48 758.77,442.31 762.80,456.64 766.83,459.55 770.86,450.86 774.89,431.12 778.91,401.58 782.94,364.08 786.97,320.99 791.00,275.00 795.03,230.53 799.06,227.94 803.09,225.69 807.11,223.92 811.14,222.73 815.17,222.21 819.20,222.39 823.23,223.25 827.26,224.74 831.29,226.76 835.31,229.20 839.34,251.82 843.37,298.18 847.40,343.07 851.43,383.69 855.46,417.48 859.49,442.31 863.51,456.64 867.54,459.55 871.57,450.86 875.60,431.12 879.63,401.58 883.66,364.08 887.69,320.99 891.71,275.00" fill="none" stroke="#dc2626" stroke-width="2.25" stroke-linejoin="round" stroke-linecap="round"/>
<line x1="86" y1="521" x2="114" y2="521" stroke="#2563eb" stroke-width="3"/>
<text x="122" y="526" class="legend">V(in)</text>
<line x1="276" y1="521" x2="304" y2="521" stroke="#dc2626" stroke-width="3"/>
<text x="312" y="526" class="legend">V(clip)</text>
<text x="509.00" y="546" text-anchor="middle" class="axis">time</text>
<text x="22" y="275.00" text-anchor="middle" class="axis" transform="rotate(-90 22 275.00)">signal</text>
</svg>