<svg xmlns="http://www.w3.org/2000/svg" viewBox="0 0 960 560" width="960" height="560" role="img">
<rect width="100%" height="100%" fill="#ffffff"/>
<style>.title{font:700 20px system-ui,sans-serif;fill:#111827}.axis{font:12px ui-monospace,SFMono-Regular,Menlo,monospace;fill:#374151}.legend{font:13px ui-monospace,SFMono-Regular,Menlo,monospace;fill:#111827}.grid{stroke:#e5e7eb;stroke-width:1}.frame{stroke:#374151;stroke-width:1.5;fill:none}.reference{stroke-dasharray:7 5;stroke-width:1.7}.reference-label{font:12px ui-monospace,SFMono-Regular,Menlo,monospace;fill:#374151}</style>
<text x="86" y="34" class="title">FFT of diode-clipped output</text>
<line x1="86.00" y1="72" x2="86.00" y2="478" class="grid"/>
<text x="86.00" y="502" text-anchor="middle" class="axis">0</text>
<line x1="255.20" y1="72" x2="255.20" y2="478" class="grid"/>
<text x="255.20" y="502" text-anchor="middle" class="axis">5.25e+03</text>
<line x1="424.40" y1="72" x2="424.40" y2="478" class="grid"/>
<text x="424.40" y="502" text-anchor="middle" class="axis">1.05e+04</text>
<line x1="593.60" y1="72" x2="593.60" y2="478" class="grid"/>
<text x="593.60" y="502" text-anchor="middle" class="axis">1.58e+04</text>
<line x1="762.80" y1="72" x2="762.80" y2="478" class="grid"/>
<text x="762.80" y="502" text-anchor="middle" class="axis">2.1e+04</text>
<line x1="932.00" y1="72" x2="932.00" y2="478" class="grid"/>
<text x="932.00" y="502" text-anchor="middle" class="axis">2.63e+04</text>
<line x1="86" y1="478.00" x2="932" y2="478.00" class="grid"/>
<text x="74" y="482.00" text-anchor="end" class="axis">-0.09718</text>
<line x1="86" y1="396.80" x2="932" y2="396.80" class="grid"/>
<text x="74" y="400.80" text-anchor="end" class="axis">0.3304</text>
<line x1="86" y1="315.60" x2="932" y2="315.60" class="grid"/>
<text x="74" y="319.60" text-anchor="end" class="axis">0.758</text>
<line x1="86" y1="234.40" x2="932" y2="234.40" class="grid"/>
<text x="74" y="238.40" text-anchor="end" class="axis">1.186</text>
<line x1="86" y1="153.20" x2="932" y2="153.20" class="grid"/>
<text x="74" y="157.20" text-anchor="end" class="axis">1.613</text>
<line x1="86" y1="72.00" x2="932" y2="72.00" class="grid"/>
<text x="74" y="76.00" text-anchor="end" class="axis">2.041</text>
<rect x="86" y="72" width="846" height="406" class="frame"/>
<polyline points="86.00,453.79 89.15,453.92 92.29,459.40 95.44,459.33 98.59,459.21 101.74,458.97 104.88,458.42 108.03,456.88 111.18,450.36 114.33,333.73 117.47,90.45 120.62,199.17 123.77,436.47 126.92,454.81 130.06,457.72 133.21,458.56 136.36,458.77 139.50,458.47 142.65,456.81 145.80,440.51 148.95,369.96 152.09,372.19 155.24,442.81 158.39,457.11 161.54,458.75 164.68,459.21 167.83,459.39 170.98,459.45 174.12,459.23 177.27,457.72 180.42,441.71 183.57,435.67 186.71,451.94 189.86,458.89 193.01,459.34 196.16,459.45 199.30,459.49 202.45,459.51 205.60,459.50 208.75,459.43 211.89,452.25 215.04,445.82 218.19,453.07 221.33,459.47 224.48,459.52 227.63,459.53 230.78,459.53 233.92,459.51 237.07,459.47 240.22,459.26 243.37,454.94 246.51,446.94 249.66,451.13 252.81,458.93 255.96,459.41 259.10,459.50 262.25,459.52 265.40,459.53 268.54,459.53 271.69,459.50 274.84,459.24 277.99,458.24 281.13,458.34 284.28,459.34 287.43,459.52 290.58,459.54 293.72,459.54 296.87,459.53 300.02,459.50 303.17,459.43 306.31,458.91 309.46,454.29 312.61,452.86 315.75,457.58 318.90,459.36 322.05,459.49 325.20,459.52 328.34,459.53 331.49,459.54 334.64,459.54 337.79,459.52 340.93,458.48 344.08,457.67 347.23,458.71 350.37,459.52 353.52,459.54 356.67,459.54 359.82,459.54 362.96,459.54 366.11,459.53 369.26,459.48 372.41,458.14 375.55,455.95 378.70,457.27 381.85,459.42 385.00,459.52 388.14,459.54 391.29,459.54 394.44,459.54 397.58,459.52 400.73,459.47 403.88,458.93 407.03,457.09 410.17,457.39 413.32,459.21 416.47,459.49 419.62,459.53 422.76,459.53 425.91,459.54 429.06,459.53 432.21,459.52 435.35,459.40 438.50,458.49 441.65,458.27 444.79,459.20 447.94,459.51 451.09,459.53 454.24,459.54 457.38,459.54 460.53,459.54 463.68,459.53 466.83,459.48 469.97,458.03 473.12,457.01 476.27,458.49 479.42,459.51 482.56,459.53 485.71,459.54 488.86,459.54 492.00,459.54 495.15,459.54 498.30,459.54 501.45,459.51 504.59,459.47 507.74,459.50 510.89,459.54 514.04,459.54 517.18,459.54 520.33,459.54 523.48,459.54 526.62,459.53 529.77,459.49 532.92,459.06 536.07,457.76 539.21,458.06 542.36,459.34 545.51,459.51 548.66,459.53 551.80,459.54 554.95,459.54 558.10,459.54 561.25,459.53 564.39,459.43 567.54,458.81 570.69,458.70 573.83,459.33 576.98,459.52 580.13,459.54 583.28,459.54 586.42,459.54 589.57,459.54 592.72,459.54 595.87,459.50 599.01,458.83 602.16,458.41 605.31,459.10 608.46,459.52 611.60,459.54 614.75,459.54 617.90,459.54 621.04,459.54 624.19,459.54 627.34,459.53 630.49,458.96 633.63,458.23 636.78,458.80 639.93,459.52 643.08,459.54 646.22,459.54 649.37,459.54 652.52,459.54 655.67,459.54 658.81,459.54 661.96,459.45 665.11,459.21 668.25,459.28 671.40,459.51 674.55,459.54 677.70,459.54 680.84,459.54 683.99,459.54 687.14,459.54 690.29,459.52 693.43,459.36 696.58,458.46 699.73,458.38 702.87,459.28 706.02,459.51 709.17,459.53 712.32,459.54 715.46,459.54 718.61,459.54 721.76,459.54 724.91,459.53 728.05,459.33 731.20,459.23 734.35,459.43 737.50,459.54 740.64,459.54 743.79,459.54 746.94,459.55 750.08,459.55 753.23,459.54 756.38,459.54 759.53,459.05 762.67,458.50 765.82,458.99 768.97,459.54 772.12,459.54 775.26,459.54 778.41,459.54 781.56,459.54 784.71,459.54 787.85,459.52 791.00,459.30 794.15,458.76 797.29,458.96 800.44,459.48 803.59,459.53 806.74,459.54 809.88,459.54 813.03,459.54 816.18,459.54 819.33,459.53 822.47,459.45 825.62,459.07 828.77,459.05 831.92,459.44 835.06,459.53 838.21,459.54 841.36,459.54 844.50,459.54 847.65,459.54 850.80,459.53 853.95,459.48 857.09,458.81 860.24,458.50 863.39,459.19 866.54,459.52 869.68,459.54 872.83,459.54 875.98,459.54 879.12,459.54 882.27,459.54 885.42,459.55 888.57,459.55 891.71,459.55" fill="none" stroke="#2563eb" stroke-width="2.25" stroke-linejoin="round" stroke-linecap="round"/>
<line x1="86" y1="521" x2="114" y2="521" stroke="#2563eb" stroke-width="3"/>
<text x="122" y="526" class="legend">FFT V(clip)</text>
<text x="509.00" y="546" text-anchor="middle" class="axis">frequency (Hz)</text>
<text x="22" y="275.00" text-anchor="middle" class="axis" transform="rotate(-90 22 275.00)">signal</text>
</svg>