<svg xmlns="http://www.w3.org/2000/svg" viewBox="0 0 960 560" width="960" height="560" role="img">
<title>Op-amp MLP forward-pass response</title>
<desc>Waveform plot with 3 signal trace(s).</desc>
<rect width="100%" height="100%" fill="#ffffff"/>
<style>.title{font:700 20px system-ui,sans-serif;fill:#111827}.axis{font:12px ui-monospace,SFMono-Regular,Menlo,monospace;fill:#374151}.legend{font:13px ui-monospace,SFMono-Regular,Menlo,monospace;fill:#111827}.grid{stroke:#e5e7eb;stroke-width:1}.frame{stroke:#374151;stroke-width:1.5;fill:none}.reference{stroke-dasharray:7 5;stroke-width:1.7}.reference-label{font:12px ui-monospace,SFMono-Regular,Menlo,monospace;fill:#374151}</style>
<text x="86" y="34" class="title">Op-amp MLP forward-pass response</text>
<line x1="86.00" y1="72" x2="86.00" y2="478" class="grid"/>
<text x="86.00" y="502" text-anchor="middle" class="axis">0</text>
<line x1="255.20" y1="72" x2="255.20" y2="478" class="grid"/>
<text x="255.20" y="502" text-anchor="middle" class="axis">0.00168</text>
<line x1="424.40" y1="72" x2="424.40" y2="478" class="grid"/>
<text x="424.40" y="502" text-anchor="middle" class="axis">0.00336</text>
<line x1="593.60" y1="72" x2="593.60" y2="478" class="grid"/>
<text x="593.60" y="502" text-anchor="middle" class="axis">0.00504</text>
<line x1="762.80" y1="72" x2="762.80" y2="478" class="grid"/>
<text x="762.80" y="502" text-anchor="middle" class="axis">0.00672</text>
<line x1="932.00" y1="72" x2="932.00" y2="478" class="grid"/>
<text x="932.00" y="502" text-anchor="middle" class="axis">0.0084</text>
<line x1="86" y1="478.00" x2="932" y2="478.00" class="grid"/>
<text x="74" y="482.00" text-anchor="end" class="axis">-0.045</text>
<line x1="86" y1="396.80" x2="932" y2="396.80" class="grid"/>
<text x="74" y="400.80" text-anchor="end" class="axis">0.153</text>
<line x1="86" y1="315.60" x2="932" y2="315.60" class="grid"/>
<text x="74" y="319.60" text-anchor="end" class="axis">0.351</text>
<line x1="86" y1="234.40" x2="932" y2="234.40" class="grid"/>
<text x="74" y="238.40" text-anchor="end" class="axis">0.549</text>
<line x1="86" y1="153.20" x2="932" y2="153.20" class="grid"/>
<text x="74" y="157.20" text-anchor="end" class="axis">0.747</text>
<line x1="86" y1="72.00" x2="932" y2="72.00" class="grid"/>
<text x="74" y="76.00" text-anchor="end" class="axis">0.945</text>
<rect x="86" y="72" width="846" height="406" class="frame"/>
<polyline points="86.00,459.55 90.03,459.55 94.06,459.55 98.09,459.55 102.11,459.55 106.14,459.55 110.17,459.55 114.20,459.55 118.23,459.55 122.26,459.55 126.29,459.55 130.31,459.55 134.34,459.55 138.37,459.55 142.40,459.55 146.43,459.55 150.46,459.55 154.49,459.55 158.51,459.55 162.54,459.55 166.57,459.55 170.60,459.55 174.63,459.55 178.66,459.55 182.69,459.55 186.71,459.55 190.74,459.55 194.77,459.55 198.80,459.55 202.83,459.55 206.86,459.55 210.89,459.55 214.91,459.55 218.94,459.55 222.97,459.55 227.00,459.55 231.03,459.55 235.06,459.55 239.09,459.55 243.11,459.55 247.14,459.55 251.17,459.55 255.20,459.55 259.23,459.55 263.26,459.55 267.29,459.55 271.31,459.55 275.34,459.55 279.37,459.55 283.40,459.55 287.43,131.46 291.46,131.46 295.49,131.46 299.51,131.46 303.54,131.46 307.57,131.46 311.60,131.46 315.63,131.46 319.66,131.46 323.69,131.46 327.71,131.46 331.74,131.46 335.77,131.46 339.80,131.46 343.83,131.46 347.86,131.46 351.89,131.46 355.91,131.46 359.94,131.46 363.97,131.46 368.00,131.46 372.03,131.46 376.06,131.46 380.09,131.46 384.11,131.46 388.14,131.46 392.17,131.46 396.20,131.46 400.23,131.46 404.26,131.46 408.29,131.46 412.31,131.46 416.34,131.46 420.37,131.46 424.40,131.46 428.43,131.46 432.46,131.46 436.49,131.46 440.51,131.46 444.54,131.46 448.57,131.46 452.60,131.46 456.63,131.46 460.66,131.46 464.69,131.46 468.71,131.46 472.74,131.46 476.77,131.46 480.80,131.46 484.83,131.46 488.86,418.54 492.89,418.54 496.91,418.54 500.94,418.54 504.97,418.54 509.00,418.54 513.03,418.54 517.06,418.54 521.09,418.54 525.11,418.54 529.14,418.54 533.17,418.54 537.20,418.54 541.23,418.54 545.26,418.54 549.29,418.54 553.31,418.54 557.34,418.54 561.37,418.54 565.40,418.54 569.43,418.54 573.46,418.54 577.49,418.54 581.51,418.54 585.54,418.54 589.57,418.54 593.60,418.54 597.63,418.54 601.66,418.54 605.69,418.54 609.71,418.54 613.74,418.54 617.77,418.54 621.80,418.54 625.83,418.54 629.86,418.54 633.89,418.54 637.91,418.54 641.94,418.54 645.97,418.54 650.00,418.54 654.03,418.54 658.06,418.54 662.09,418.54 666.11,418.54 670.14,418.54 674.17,418.54 678.20,418.54 682.23,418.54 686.26,418.54 690.29,213.48 694.31,213.48 698.34,213.48 702.37,213.48 706.40,213.48 710.43,213.48 714.46,213.48 718.49,213.48 722.51,213.48 726.54,213.48 730.57,213.48 734.60,213.48 738.63,213.48 742.66,213.48 746.69,213.48 750.71,213.48 754.74,213.48 758.77,213.48 762.80,213.48 766.83,213.48 770.86,213.48 774.89,213.48 778.91,213.48 782.94,213.48 786.97,213.48 791.00,213.48 795.03,213.48 799.06,213.48 803.09,213.48 807.11,213.48 811.14,213.48 815.17,213.48 819.20,213.48 823.23,213.48 827.26,213.48 831.29,213.48 835.31,213.48 839.34,213.48 843.37,213.48 847.40,213.48 851.43,213.48 855.46,213.48 859.49,213.48 863.51,213.48 867.54,213.48 871.57,213.48 875.60,213.48 879.63,213.48 883.66,213.48 887.69,213.48 891.71,213.48" fill="none" stroke="#2563eb" stroke-width="2.25" stroke-linejoin="round" stroke-linecap="round"/>
<polyline points="86.00,459.55 90.03,459.55 94.06,459.55 98.09,459.55 102.11,459.55 106.14,459.55 110.17,459.55 114.20,459.55 118.23,459.55 122.26,459.55 126.29,459.55 130.31,459.55 134.34,459.55 138.37,459.55 142.40,459.55 146.43,459.55 150.46,459.55 154.49,459.55 158.51,459.55 162.54,459.55 166.57,459.55 170.60,459.55 174.63,459.55 178.66,459.55 182.69,459.55 186.71,459.55 190.74,459.55 194.77,459.55 198.80,459.55 202.83,459.55 206.86,459.55 210.89,459.55 214.91,459.55 218.94,459.55 222.97,459.55 227.00,459.55 231.03,459.55 235.06,459.55 239.09,459.55 243.11,459.55 247.14,459.55 251.17,459.55 255.20,459.55 259.23,459.55 263.26,459.55 267.29,459.55 271.31,459.55 275.34,459.55 279.37,459.55 283.40,459.55 287.43,418.54 291.46,418.54 295.49,418.54 299.51,418.54 303.54,418.54 307.57,418.54 311.60,418.54 315.63,418.54 319.66,418.54 323.69,418.54 327.71,418.54 331.74,418.54 335.77,418.54 339.80,418.54 343.83,418.54 347.86,418.54 351.89,418.54 355.91,418.54 359.94,418.54 363.97,418.54 368.00,418.54 372.03,418.54 376.06,418.54 380.09,418.54 384.11,418.54 388.14,418.54 392.17,418.54 396.20,418.54 400.23,418.54 404.26,418.54 408.29,418.54 412.31,418.54 416.34,418.54 420.37,418.54 424.40,418.54 428.43,418.54 432.46,418.54 436.49,418.54 440.51,418.54 444.54,418.54 448.57,418.54 452.60,418.54 456.63,418.54 460.66,418.54 464.69,418.54 468.71,418.54 472.74,418.54 476.77,418.54 480.80,418.54 484.83,418.54 488.86,90.45 492.89,90.45 496.91,90.45 500.94,90.45 504.97,90.45 509.00,90.45 513.03,90.45 517.06,90.45 521.09,90.45 525.11,90.45 529.14,90.45 533.17,90.45 537.20,90.45 541.23,90.45 545.26,90.45 549.29,90.45 553.31,90.45 557.34,90.45 561.37,90.45 565.40,90.45 569.43,90.45 573.46,90.45 577.49,90.45 581.51,90.45 585.54,90.45 589.57,90.45 593.60,90.45 597.63,90.45 601.66,90.45 605.69,90.45 609.71,90.45 613.74,90.45 617.77,90.45 621.80,90.45 625.83,90.45 629.86,90.45 633.89,90.45 637.91,90.45 641.94,90.45 645.97,90.45 650.00,90.45 654.03,90.45 658.06,90.45 662.09,90.45 666.11,90.45 670.14,90.45 674.17,90.45 678.20,90.45 682.23,90.45 686.26,90.45 690.29,254.49 694.31,254.49 698.34,254.49 702.37,254.49 706.40,254.49 710.43,254.49 714.46,254.49 718.49,254.49 722.51,254.49 726.54,254.49 730.57,254.49 734.60,254.49 738.63,254.49 742.66,254.49 746.69,254.49 750.71,254.49 754.74,254.49 758.77,254.49 762.80,254.49 766.83,254.49 770.86,254.49 774.89,254.49 778.91,254.49 782.94,254.49 786.97,254.49 791.00,254.49 795.03,254.49 799.06,254.49 803.09,254.49 807.11,254.49 811.14,254.49 815.17,254.49 819.20,254.49 823.23,254.49 827.26,254.49 831.29,254.49 835.31,254.49 839.34,254.49 843.37,254.49 847.40,254.49 851.43,254.49 855.46,254.49 859.49,254.49 863.51,254.49 867.54,254.49 871.57,254.49 875.60,254.49 879.63,254.49 883.66,254.49 887.69,254.49 891.71,254.49" fill="none" stroke="#dc2626" stroke-width="2.25" stroke-linejoin="round" stroke-linecap="round"/>
<polyline points="86.00,389.83 90.03,389.83 94.06,389.83 98.09,389.83 102.11,389.83 106.14,389.83 110.17,389.83 114.20,389.83 118.23,389.83 122.26,389.83 126.29,389.83 130.31,389.83 134.34,389.83 138.37,389.83 142.40,389.83 146.43,389.83 150.46,389.83 154.49,389.83 158.51,389.83 162.54,389.83 166.57,389.83 170.60,389.83 174.63,389.83 178.66,389.83 182.69,389.83 186.71,389.83 190.74,389.83 194.77,389.83 198.80,389.83 202.83,389.83 206.86,389.83 210.89,389.83 214.91,389.83 218.94,389.83 222.97,389.83 227.00,389.83 231.03,389.83 235.06,389.83 239.09,389.83 243.11,389.83 247.14,389.83 251.17,389.83 255.20,389.83 259.23,389.83 263.26,389.83 267.29,389.83 271.31,389.83 275.34,389.83 279.37,389.83 283.40,389.83 287.43,271.92 291.46,271.92 295.49,271.92 299.51,271.92 303.54,271.92 307.57,271.92 311.60,271.92 315.63,271.92 319.66,271.92 323.69,271.92 327.71,271.92 331.74,271.92 335.77,271.92 339.80,271.92 343.83,271.92 347.86,271.92 351.89,271.92 355.91,271.92 359.94,271.92 363.97,271.92 368.00,271.92 372.03,271.92 376.06,271.92 380.09,271.92 384.11,271.92 388.14,271.92 392.17,271.92 396.20,271.92 400.23,271.92 404.26,271.92 408.29,271.92 412.31,271.92 416.34,271.92 420.37,271.92 424.40,271.92 428.43,271.92 432.46,271.92 436.49,271.92 440.51,271.92 444.54,271.92 448.57,271.92 452.60,271.92 456.63,271.92 460.66,271.92 464.69,271.92 468.71,271.92 472.74,271.92 476.77,271.92 480.80,271.92 484.83,271.92 488.86,205.28 492.89,205.28 496.91,205.28 500.94,205.28 504.97,205.28 509.00,205.28 513.03,205.28 517.06,205.28 521.09,205.28 525.11,205.28 529.14,205.28 533.17,205.28 537.20,205.28 541.23,205.28 545.26,205.28 549.29,205.28 553.31,205.28 557.34,205.28 561.37,205.28 565.40,205.28 569.43,205.28 573.46,205.28 577.49,205.28 581.51,205.28 585.54,205.28 589.57,205.28 593.60,205.28 597.63,205.28 601.66,205.28 605.69,205.28 609.71,205.28 613.74,205.28 617.77,205.28 621.80,205.28 625.83,205.28 629.86,205.28 633.89,205.28 637.91,205.28 641.94,205.28 645.97,205.28 650.00,205.28 654.03,205.28 658.06,205.28 662.09,205.28 666.11,205.28 670.14,205.28 674.17,205.28 678.20,205.28 682.23,205.28 686.26,205.28 690.29,212.46 694.31,212.46 698.34,212.46 702.37,212.46 706.40,212.46 710.43,212.46 714.46,212.46 718.49,212.46 722.51,212.46 726.54,212.46 730.57,212.46 734.60,212.46 738.63,212.46 742.66,212.46 746.69,212.46 750.71,212.46 754.74,212.46 758.77,212.46 762.80,212.46 766.83,212.46 770.86,212.46 774.89,212.46 778.91,212.46 782.94,212.46 786.97,212.46 791.00,212.46 795.03,212.46 799.06,212.46 803.09,212.46 807.11,212.46 811.14,212.46 815.17,212.46 819.20,212.46 823.23,212.46 827.26,212.46 831.29,212.46 835.31,212.46 839.34,212.46 843.37,212.46 847.40,212.46 851.43,212.46 855.46,212.46 859.49,212.46 863.51,212.46 867.54,212.46 871.57,212.46 875.60,212.46 879.63,212.46 883.66,212.46 887.69,212.46 891.71,212.46" fill="none" stroke="#16a34a" stroke-width="2.25" stroke-linejoin="round" stroke-linecap="round"/>
<line x1="86" y1="521" x2="114" y2="521" stroke="#2563eb" stroke-width="3"/>
<text x="122" y="526" class="legend">V(x1)</text>
<line x1="276" y1="521" x2="304" y2="521" stroke="#dc2626" stroke-width="3"/>
<text x="312" y="526" class="legend">V(x2)</text>
<line x1="466" y1="521" x2="494" y2="521" stroke="#16a34a" stroke-width="3"/>
<text x="502" y="526" class="legend">V(yout)</text>
<text x="509.00" y="546" text-anchor="middle" class="axis">time</text>
<text x="22" y="275.00" text-anchor="middle" class="axis" transform="rotate(-90 22 275.00)">signal</text>
</svg>