<svg xmlns="http://www.w3.org/2000/svg" viewBox="0 0 960 560" width="960" height="560" role="img">
<rect width="100%" height="100%" fill="#ffffff"/>
<style>.title{font:700 20px system-ui,sans-serif;fill:#111827}.axis{font:12px ui-monospace,SFMono-Regular,Menlo,monospace;fill:#374151}.legend{font:13px ui-monospace,SFMono-Regular,Menlo,monospace;fill:#111827}.grid{stroke:#e5e7eb;stroke-width:1}.frame{stroke:#374151;stroke-width:1.5;fill:none}</style>
<text x="86" y="34" class="title">Practical inverting integrator response</text>
<line x1="86.00" y1="72" x2="86.00" y2="478" class="grid"/>
<text x="86.00" y="502" text-anchor="middle" class="axis">0</text>
<line x1="255.20" y1="72" x2="255.20" y2="478" class="grid"/>
<text x="255.20" y="502" text-anchor="middle" class="axis">0.0021</text>
<line x1="424.40" y1="72" x2="424.40" y2="478" class="grid"/>
<text x="424.40" y="502" text-anchor="middle" class="axis">0.0042</text>
<line x1="593.60" y1="72" x2="593.60" y2="478" class="grid"/>
<text x="593.60" y="502" text-anchor="middle" class="axis">0.0063</text>
<line x1="762.80" y1="72" x2="762.80" y2="478" class="grid"/>
<text x="762.80" y="502" text-anchor="middle" class="axis">0.0084</text>
<line x1="932.00" y1="72" x2="932.00" y2="478" class="grid"/>
<text x="932.00" y="502" text-anchor="middle" class="axis">0.0105</text>
<line x1="86" y1="478.00" x2="932" y2="478.00" class="grid"/>
<text x="74" y="482.00" text-anchor="end" class="axis">-0.11</text>
<line x1="86" y1="396.80" x2="932" y2="396.80" class="grid"/>
<text x="74" y="400.80" text-anchor="end" class="axis">-0.066</text>
<line x1="86" y1="315.60" x2="932" y2="315.60" class="grid"/>
<text x="74" y="319.60" text-anchor="end" class="axis">-0.022</text>
<line x1="86" y1="234.40" x2="932" y2="234.40" class="grid"/>
<text x="74" y="238.40" text-anchor="end" class="axis">0.022</text>
<line x1="86" y1="153.20" x2="932" y2="153.20" class="grid"/>
<text x="74" y="157.20" text-anchor="end" class="axis">0.066</text>
<line x1="86" y1="72.00" x2="932" y2="72.00" class="grid"/>
<text x="74" y="76.00" text-anchor="end" class="axis">0.11</text>
<rect x="86" y="72" width="846" height="406" class="frame"/>
<polyline points="86.00,90.45 94.06,90.45 102.11,90.45 110.17,90.45 118.23,90.45 126.29,90.45 134.34,90.45 142.40,90.45 150.46,90.45 158.51,90.45 166.57,459.55 174.63,459.55 182.69,459.55 190.74,459.55 198.80,459.55 206.86,459.55 214.91,459.55 222.97,459.55 231.03,459.55 239.09,459.55 247.14,90.45 255.20,90.45 263.26,90.45 271.31,90.45 279.37,90.45 287.43,90.45 295.49,90.45 303.54,90.45 311.60,90.45 319.66,90.45 327.71,459.55 335.77,459.55 343.83,459.55 351.89,459.55 359.94,459.55 368.00,459.55 376.06,459.55 384.11,459.55 392.17,459.55 400.23,459.55 408.29,90.45 416.34,90.45 424.40,90.45 432.46,90.45 440.51,90.45 448.57,90.45 456.63,90.45 464.69,90.45 472.74,90.45 480.80,90.45 488.86,459.55 496.91,459.55 504.97,459.55 513.03,459.55 521.09,459.55 529.14,459.55 537.20,459.55 545.26,459.55 553.31,459.55 561.37,459.55 569.43,90.45 577.49,90.45 585.54,90.45 593.60,90.45 601.66,90.45 609.71,90.45 617.77,90.45 625.83,90.45 633.89,90.45 641.94,90.45 650.00,459.55 658.06,459.55 666.11,459.55 674.17,459.55 682.23,459.55 690.29,459.55 698.34,459.55 706.40,459.55 714.46,459.55 722.51,459.55 730.57,90.45 738.63,90.45 746.69,90.45 754.74,90.45 762.80,90.45 770.86,90.45 778.91,90.45 786.97,90.45 795.03,90.45 803.09,90.45 811.14,459.55 819.20,459.55 827.26,459.55 835.31,459.55 843.37,459.55 851.43,459.55 859.49,459.55 867.54,459.55 875.60,459.55 883.66,459.55 891.71,90.45" fill="none" stroke="#2563eb" stroke-width="2.25" stroke-linejoin="round" stroke-linecap="round"/>
<polyline points="86.00,293.36 94.06,311.63 102.11,329.81 110.17,347.90 118.23,365.90 126.29,383.81 134.34,401.62 142.40,419.35 150.46,436.99 158.51,454.55 166.57,435.29 174.63,416.12 182.69,397.05 190.74,378.08 198.80,359.20 206.86,340.42 214.91,321.73 222.97,303.14 231.03,284.63 239.09,266.22 247.14,284.63 255.20,302.94 263.26,321.16 271.31,339.30 279.37,357.34 287.43,375.29 295.49,393.15 303.54,410.92 311.60,428.60 319.66,446.20 327.71,426.98 335.77,407.86 343.83,388.83 351.89,369.90 359.94,351.06 368.00,332.32 376.06,313.67 384.11,295.11 392.17,276.65 400.23,258.28 408.29,276.73 416.34,295.08 424.40,313.34 432.46,331.51 440.51,349.59 448.57,367.58 456.63,385.48 464.69,403.29 472.74,421.01 480.80,438.64 488.86,419.46 496.91,400.38 504.97,381.39 513.03,362.50 521.09,343.70 529.14,324.99 537.20,306.38 545.26,287.86 553.31,269.43 561.37,251.10 569.43,269.58 577.49,287.97 585.54,306.27 593.60,324.47 601.66,342.59 609.71,360.61 617.77,378.55 625.83,396.39 633.89,414.15 641.94,431.81 650.00,412.67 658.06,393.62 666.11,374.66 674.17,355.80 682.23,337.03 690.29,318.36 698.34,299.78 706.40,281.30 714.46,262.90 722.51,244.60 730.57,263.11 738.63,281.54 746.69,299.87 754.74,318.10 762.80,336.25 770.86,354.31 778.91,372.27 786.97,390.15 795.03,407.93 803.09,425.63 811.14,406.52 819.20,387.50 827.26,368.57 835.31,349.74 843.37,331.01 851.43,312.36 859.49,293.81 867.54,275.36 875.60,256.99 883.66,238.72 891.71,257.27" fill="none" stroke="#dc2626" stroke-width="2.25" stroke-linejoin="round" stroke-linecap="round"/>
<line x1="86" y1="521" x2="114" y2="521" stroke="#2563eb" stroke-width="3"/>
<text x="122" y="526" class="legend">V(in)</text>
<line x1="276" y1="521" x2="304" y2="521" stroke="#dc2626" stroke-width="3"/>
<text x="312" y="526" class="legend">V(out)</text>
<text x="509.00" y="546" text-anchor="middle" class="axis">time</text>
<text x="22" y="275.00" text-anchor="middle" class="axis" transform="rotate(-90 22 275.00)">signal</text>
</svg>