<svg xmlns="http://www.w3.org/2000/svg" viewBox="0 0 960 560" width="960" height="560" role="img">
<title>Op-amp non-inverting gain</title>
<desc>Waveform plot with 2 signal trace(s).</desc>
<rect width="100%" height="100%" fill="#ffffff"/>
<style>.title{font:700 20px system-ui,sans-serif;fill:#111827}.axis{font:12px ui-monospace,SFMono-Regular,Menlo,monospace;fill:#374151}.legend{font:13px ui-monospace,SFMono-Regular,Menlo,monospace;fill:#111827}.grid{stroke:#e5e7eb;stroke-width:1}.frame{stroke:#374151;stroke-width:1.5;fill:none}.reference{stroke-dasharray:7 5;stroke-width:1.7}.reference-label{font:12px ui-monospace,SFMono-Regular,Menlo,monospace;fill:#374151}</style>
<text x="86" y="34" class="title">Op-amp non-inverting gain</text>
<line x1="86.00" y1="72" x2="86.00" y2="478" class="grid"/>
<text x="86.00" y="502" text-anchor="middle" class="axis">0</text>
<line x1="255.20" y1="72" x2="255.20" y2="478" class="grid"/>
<text x="255.20" y="502" text-anchor="middle" class="axis">0.00084</text>
<line x1="424.40" y1="72" x2="424.40" y2="478" class="grid"/>
<text x="424.40" y="502" text-anchor="middle" class="axis">0.00168</text>
<line x1="593.60" y1="72" x2="593.60" y2="478" class="grid"/>
<text x="593.60" y="502" text-anchor="middle" class="axis">0.00252</text>
<line x1="762.80" y1="72" x2="762.80" y2="478" class="grid"/>
<text x="762.80" y="502" text-anchor="middle" class="axis">0.00336</text>
<line x1="932.00" y1="72" x2="932.00" y2="478" class="grid"/>
<text x="932.00" y="502" text-anchor="middle" class="axis">0.0042</text>
<line x1="86" y1="478.00" x2="932" y2="478.00" class="grid"/>
<text x="74" y="482.00" text-anchor="end" class="axis">-0.15</text>
<line x1="86" y1="396.80" x2="932" y2="396.80" class="grid"/>
<text x="74" y="400.80" text-anchor="end" class="axis">0.51</text>
<line x1="86" y1="315.60" x2="932" y2="315.60" class="grid"/>
<text x="74" y="319.60" text-anchor="end" class="axis">1.17</text>
<line x1="86" y1="234.40" x2="932" y2="234.40" class="grid"/>
<text x="74" y="238.40" text-anchor="end" class="axis">1.83</text>
<line x1="86" y1="153.20" x2="932" y2="153.20" class="grid"/>
<text x="74" y="157.20" text-anchor="end" class="axis">2.49</text>
<line x1="86" y1="72.00" x2="932" y2="72.00" class="grid"/>
<text x="74" y="76.00" text-anchor="end" class="axis">3.15</text>
<rect x="86" y="72" width="846" height="406" class="frame"/>
<polyline points="86.00,336.52 106.14,336.52 126.29,336.52 146.43,336.52 166.57,336.52 186.71,336.52 206.86,336.52 227.00,336.52 247.14,336.52 267.29,336.52 287.43,336.52 307.57,336.52 327.71,336.52 347.86,336.52 368.00,336.52 388.14,336.52 408.29,336.52 428.43,336.52 448.57,336.52 468.71,336.52 488.86,336.52 509.00,336.52 529.14,336.52 549.29,336.52 569.43,336.52 589.57,336.52 609.71,336.52 629.86,336.52 650.00,336.52 670.14,336.52 690.29,336.52 710.43,336.52 730.57,336.52 750.71,336.52 770.86,336.52 791.00,336.52 811.14,336.52 831.29,336.52 851.43,336.52 871.57,336.52 891.71,336.52" fill="none" stroke="#2563eb" stroke-width="2.25" stroke-linejoin="round" stroke-linecap="round"/>
<polyline points="86.00,459.55 106.14,250.86 126.29,160.17 146.43,120.75 166.57,103.62 186.71,96.18 206.86,92.94 227.00,91.54 247.14,90.92 267.29,90.66 287.43,90.54 307.57,90.49 327.71,90.47 347.86,90.46 368.00,90.46 388.14,90.46 408.29,90.46 428.43,90.45 448.57,90.45 468.71,90.45 488.86,90.45 509.00,90.45 529.14,90.45 549.29,90.45 569.43,90.45 589.57,90.45 609.71,90.45 629.86,90.45 650.00,90.45 670.14,90.45 690.29,90.45 710.43,90.45 730.57,90.45 750.71,90.45 770.86,90.45 791.00,90.45 811.14,90.45 831.29,90.45 851.43,90.45 871.57,90.45 891.71,90.45" fill="none" stroke="#dc2626" stroke-width="2.25" stroke-linejoin="round" stroke-linecap="round"/>
<line x1="86" y1="521" x2="114" y2="521" stroke="#2563eb" stroke-width="3"/>
<text x="122" y="526" class="legend">V(in)</text>
<line x1="276" y1="521" x2="304" y2="521" stroke="#dc2626" stroke-width="3"/>
<text x="312" y="526" class="legend">V(out)</text>
<text x="509.00" y="546" text-anchor="middle" class="axis">time</text>
<text x="22" y="275.00" text-anchor="middle" class="axis" transform="rotate(-90 22 275.00)">signal</text>
</svg>