<svg xmlns="http://www.w3.org/2000/svg" viewBox="0 0 960 560" width="960" height="560" role="img">
<rect width="100%" height="100%" fill="#ffffff"/>
<style>.title{font:700 20px system-ui,sans-serif;fill:#111827}.axis{font:12px ui-monospace,SFMono-Regular,Menlo,monospace;fill:#374151}.legend{font:13px ui-monospace,SFMono-Regular,Menlo,monospace;fill:#111827}.grid{stroke:#e5e7eb;stroke-width:1}.frame{stroke:#374151;stroke-width:1.5;fill:none}.reference{stroke-dasharray:7 5;stroke-width:1.7}.reference-label{font:12px ui-monospace,SFMono-Regular,Menlo,monospace;fill:#374151}</style>
<text x="86" y="34" class="title">Practical inverting differentiator response</text>
<line x1="86.00" y1="72" x2="86.00" y2="478" class="grid"/>
<text x="86.00" y="502" text-anchor="middle" class="axis">0</text>
<line x1="255.20" y1="72" x2="255.20" y2="478" class="grid"/>
<text x="255.20" y="502" text-anchor="middle" class="axis">0.00315</text>
<line x1="424.40" y1="72" x2="424.40" y2="478" class="grid"/>
<text x="424.40" y="502" text-anchor="middle" class="axis">0.0063</text>
<line x1="593.60" y1="72" x2="593.60" y2="478" class="grid"/>
<text x="593.60" y="502" text-anchor="middle" class="axis">0.00945</text>
<line x1="762.80" y1="72" x2="762.80" y2="478" class="grid"/>
<text x="762.80" y="502" text-anchor="middle" class="axis">0.0126</text>
<line x1="932.00" y1="72" x2="932.00" y2="478" class="grid"/>
<text x="932.00" y="502" text-anchor="middle" class="axis">0.01575</text>
<line x1="86" y1="478.00" x2="932" y2="478.00" class="grid"/>
<text x="74" y="482.00" text-anchor="end" class="axis">-0.05489</text>
<line x1="86" y1="396.80" x2="932" y2="396.80" class="grid"/>
<text x="74" y="400.80" text-anchor="end" class="axis">-0.03293</text>
<line x1="86" y1="315.60" x2="932" y2="315.60" class="grid"/>
<text x="74" y="319.60" text-anchor="end" class="axis">-0.01098</text>
<line x1="86" y1="234.40" x2="932" y2="234.40" class="grid"/>
<text x="74" y="238.40" text-anchor="end" class="axis">0.01098</text>
<line x1="86" y1="153.20" x2="932" y2="153.20" class="grid"/>
<text x="74" y="157.20" text-anchor="end" class="axis">0.03293</text>
<line x1="86" y1="72.00" x2="932" y2="72.00" class="grid"/>
<text x="74" y="76.00" text-anchor="end" class="axis">0.05489</text>
<rect x="86" y="72" width="846" height="406" class="frame"/>
<polyline points="86.00,275.00 91.37,251.82 96.74,229.01 102.11,206.93 107.49,185.92 112.86,166.31 118.23,148.42 123.60,132.52 128.97,118.88 134.34,107.69 139.71,99.14 145.09,93.36 150.46,90.45 155.83,90.45 161.20,93.36 166.57,99.14 171.94,107.69 177.31,118.88 182.69,132.52 188.06,148.42 193.43,166.31 198.80,185.92 204.17,206.93 209.54,229.01 214.91,251.82 220.29,275.00 225.66,298.18 231.03,320.99 236.40,343.07 241.77,364.08 247.14,383.69 252.51,401.58 257.89,417.48 263.26,431.12 268.63,442.31 274.00,450.86 279.37,456.64 284.74,459.55 290.11,459.55 295.49,456.64 300.86,450.86 306.23,442.31 311.60,431.12 316.97,417.48 322.34,401.58 327.71,383.69 333.09,364.08 338.46,343.07 343.83,320.99 349.20,298.18 354.57,275.00 359.94,251.82 365.31,229.01 370.69,206.93 376.06,185.92 381.43,166.31 386.80,148.42 392.17,132.52 397.54,118.88 402.91,107.69 408.29,99.14 413.66,93.36 419.03,90.45 424.40,90.45 429.77,93.36 435.14,99.14 440.51,107.69 445.89,118.88 451.26,132.52 456.63,148.42 462.00,166.31 467.37,185.92 472.74,206.93 478.11,229.01 483.49,251.82 488.86,275.00 494.23,298.18 499.60,320.99 504.97,343.07 510.34,364.08 515.71,383.69 521.09,401.58 526.46,417.48 531.83,431.12 537.20,442.31 542.57,450.86 547.94,456.64 553.31,459.55 558.69,459.55 564.06,456.64 569.43,450.86 574.80,442.31 580.17,431.12 585.54,417.48 590.91,401.58 596.29,383.69 601.66,364.08 607.03,343.07 612.40,320.99 617.77,298.18 623.14,275.00 628.51,251.82 633.89,229.01 639.26,206.93 644.63,185.92 650.00,166.31 655.37,148.42 660.74,132.52 666.11,118.88 671.49,107.69 676.86,99.14 682.23,93.36 687.60,90.45 692.97,90.45 698.34,93.36 703.71,99.14 709.09,107.69 714.46,118.88 719.83,132.52 725.20,148.42 730.57,166.31 735.94,185.92 741.31,206.93 746.69,229.01 752.06,251.82 757.43,275.00 762.80,298.18 768.17,320.99 773.54,343.07 778.91,364.08 784.29,383.69 789.66,401.58 795.03,417.48 800.40,431.12 805.77,442.31 811.14,450.86 816.51,456.64 821.89,459.55 827.26,459.55 832.63,456.64 838.00,450.86 843.37,442.31 848.74,431.12 854.11,417.48 859.49,401.58 864.86,383.69 870.23,364.08 875.60,343.07 880.97,320.99 886.34,298.18 891.71,275.00" fill="none" stroke="#2563eb" stroke-width="2.25" stroke-linejoin="round" stroke-linecap="round"/>
<polyline points="86.00,275.00 91.37,332.94 96.74,332.02 102.11,330.21 107.49,327.53 112.86,324.02 118.23,319.73 123.60,314.74 128.97,309.12 134.34,302.97 139.71,296.37 145.09,289.44 150.46,282.28 155.83,275.00 161.20,267.72 166.57,260.56 171.94,253.63 177.31,247.03 182.69,240.88 188.06,235.26 193.43,230.27 198.80,225.98 204.17,222.47 209.54,219.79 214.91,217.98 220.29,217.06 225.66,217.06 231.03,217.98 236.40,219.79 241.77,222.47 247.14,225.98 252.51,230.27 257.89,235.26 263.26,240.88 268.63,247.03 274.00,253.63 279.37,260.56 284.74,267.72 290.11,275.00 295.49,282.28 300.86,289.44 306.23,296.37 311.60,302.97 316.97,309.12 322.34,314.74 327.71,319.73 333.09,324.02 338.46,327.53 343.83,330.21 349.20,332.02 354.57,332.94 359.94,332.94 365.31,332.02 370.69,330.21 376.06,327.53 381.43,324.02 386.80,319.73 392.17,314.74 397.54,309.12 402.91,302.97 408.29,296.37 413.66,289.44 419.03,282.28 424.40,275.00 429.77,267.72 435.14,260.56 440.51,253.63 445.89,247.03 451.26,240.88 456.63,235.26 462.00,230.27 467.37,225.98 472.74,222.47 478.11,219.79 483.49,217.98 488.86,217.06 494.23,217.06 499.60,217.98 504.97,219.79 510.34,222.47 515.71,225.98 521.09,230.27 526.46,235.26 531.83,240.88 537.20,247.03 542.57,253.63 547.94,260.56 553.31,267.72 558.69,275.00 564.06,282.28 569.43,289.44 574.80,296.37 580.17,302.97 585.54,309.12 590.91,314.74 596.29,319.73 601.66,324.02 607.03,327.53 612.40,330.21 617.77,332.02 623.14,332.94 628.51,332.94 633.89,332.02 639.26,330.21 644.63,327.53 650.00,324.02 655.37,319.73 660.74,314.74 666.11,309.12 671.49,302.97 676.86,296.37 682.23,289.44 687.60,282.28 692.97,275.00 698.34,267.72 703.71,260.56 709.09,253.63 714.46,247.03 719.83,240.88 725.20,235.26 730.57,230.27 735.94,225.98 741.31,222.47 746.69,219.79 752.06,217.98 757.43,217.06 762.80,217.06 768.17,217.98 773.54,219.79 778.91,222.47 784.29,225.98 789.66,230.27 795.03,235.26 800.40,240.88 805.77,247.03 811.14,253.63 816.51,260.56 821.89,267.72 827.26,275.00 832.63,282.28 838.00,289.44 843.37,296.37 848.74,302.97 854.11,309.12 859.49,314.74 864.86,319.73 870.23,324.02 875.60,327.53 880.97,330.21 886.34,332.02 891.71,332.94" fill="none" stroke="#dc2626" stroke-width="2.25" stroke-linejoin="round" stroke-linecap="round"/>
<line x1="86" y1="521" x2="114" y2="521" stroke="#2563eb" stroke-width="3"/>
<text x="122" y="526" class="legend">V(in)</text>
<line x1="276" y1="521" x2="304" y2="521" stroke="#dc2626" stroke-width="3"/>
<text x="312" y="526" class="legend">V(out)</text>
<text x="509.00" y="546" text-anchor="middle" class="axis">time</text>
<text x="22" y="275.00" text-anchor="middle" class="axis" transform="rotate(-90 22 275.00)">signal</text>
</svg>