<svg xmlns="http://www.w3.org/2000/svg" viewBox="0 0 960 560" width="960" height="560" role="img">
<rect width="100%" height="100%" fill="#ffffff"/>
<style>.title{font:700 20px system-ui,sans-serif;fill:#111827}.axis{font:12px ui-monospace,SFMono-Regular,Menlo,monospace;fill:#374151}.legend{font:13px ui-monospace,SFMono-Regular,Menlo,monospace;fill:#111827}.grid{stroke:#e5e7eb;stroke-width:1}.frame{stroke:#374151;stroke-width:1.5;fill:none}.reference{stroke-dasharray:7 5;stroke-width:1.7}.reference-label{font:12px ui-monospace,SFMono-Regular,Menlo,monospace;fill:#374151}</style>
<text x="86" y="34" class="title">Passive RC spectrum split</text>
<line x1="86.00" y1="72" x2="86.00" y2="478" class="grid"/>
<text x="86.00" y="502" text-anchor="middle" class="axis">0</text>
<line x1="255.20" y1="72" x2="255.20" y2="478" class="grid"/>
<text x="255.20" y="502" text-anchor="middle" class="axis">0.0042</text>
<line x1="424.40" y1="72" x2="424.40" y2="478" class="grid"/>
<text x="424.40" y="502" text-anchor="middle" class="axis">0.0084</text>
<line x1="593.60" y1="72" x2="593.60" y2="478" class="grid"/>
<text x="593.60" y="502" text-anchor="middle" class="axis">0.0126</text>
<line x1="762.80" y1="72" x2="762.80" y2="478" class="grid"/>
<text x="762.80" y="502" text-anchor="middle" class="axis">0.0168</text>
<line x1="932.00" y1="72" x2="932.00" y2="478" class="grid"/>
<text x="932.00" y="502" text-anchor="middle" class="axis">0.021</text>
<line x1="86" y1="478.00" x2="932" y2="478.00" class="grid"/>
<text x="74" y="482.00" text-anchor="end" class="axis">-1.724</text>
<line x1="86" y1="396.80" x2="932" y2="396.80" class="grid"/>
<text x="74" y="400.80" text-anchor="end" class="axis">-1.035</text>
<line x1="86" y1="315.60" x2="932" y2="315.60" class="grid"/>
<text x="74" y="319.60" text-anchor="end" class="axis">-0.3449</text>
<line x1="86" y1="234.40" x2="932" y2="234.40" class="grid"/>
<text x="74" y="238.40" text-anchor="end" class="axis">0.3449</text>
<line x1="86" y1="153.20" x2="932" y2="153.20" class="grid"/>
<text x="74" y="157.20" text-anchor="end" class="axis">1.035</text>
<line x1="86" y1="72.00" x2="932" y2="72.00" class="grid"/>
<text x="74" y="76.00" text-anchor="end" class="axis">1.724</text>
<rect x="86" y="72" width="846" height="406" class="frame"/>
<polyline points="86.00,275.00 88.01,198.58 90.03,215.06 92.04,289.04 94.06,305.80 96.07,229.95 98.09,154.37 100.10,171.97 102.11,247.32 104.13,265.72 106.14,191.75 108.16,118.30 110.17,138.24 112.19,216.14 114.20,237.28 116.21,166.23 118.23,95.85 120.24,119.00 122.26,200.24 124.27,224.81 126.29,157.27 128.30,90.45 130.31,117.20 132.33,202.04 134.34,230.21 136.36,166.23 138.37,102.92 140.39,133.10 142.40,221.28 144.41,252.66 146.43,191.75 148.44,131.36 150.46,164.28 152.47,255.01 154.49,288.73 156.50,229.95 158.51,171.44 160.53,206.00 162.54,298.10 164.56,332.94 166.57,275.00 168.59,217.06 170.60,251.90 172.61,344.00 174.63,378.56 176.64,320.05 178.66,261.27 180.67,294.99 182.69,385.72 184.70,418.64 186.71,358.25 188.73,297.34 190.74,328.72 192.76,416.90 194.77,447.08 196.79,383.77 198.80,319.79 200.81,347.96 202.83,432.80 204.84,459.55 206.86,392.73 208.87,325.19 210.89,349.76 212.90,431.00 214.91,454.15 216.93,383.77 218.94,312.72 220.96,333.86 222.97,411.76 224.99,431.70 227.00,358.25 229.01,284.28 231.03,302.68 233.04,378.03 235.06,395.63 237.07,320.05 239.09,244.20 241.10,260.96 243.11,334.94 245.13,351.42 247.14,275.00 249.16,198.58 251.17,215.06 253.19,289.04 255.20,305.80 257.21,229.95 259.23,154.37 261.24,171.97 263.26,247.32 265.27,265.72 267.29,191.75 269.30,118.30 271.31,138.24 273.33,216.14 275.34,237.28 277.36,166.23 279.37,95.85 281.39,119.00 283.40,200.24 285.41,224.81 287.43,157.27 289.44,90.45 291.46,117.20 293.47,202.04 295.49,230.21 297.50,166.23 299.51,102.92 301.53,133.10 303.54,221.28 305.56,252.66 307.57,191.75 309.59,131.36 311.60,164.28 313.61,255.01 315.63,288.73 317.64,229.95 319.66,171.44 321.67,206.00 323.69,298.10 325.70,332.94 327.71,275.00 329.73,217.06 331.74,251.90 333.76,344.00 335.77,378.56 337.79,320.05 339.80,261.27 341.81,294.99 343.83,385.72 345.84,418.64 347.86,358.25 349.87,297.34 351.89,328.72 353.90,416.90 355.91,447.08 357.93,383.77 359.94,319.79 361.96,347.96 363.97,432.80 365.99,459.55 368.00,392.73 370.01,325.19 372.03,349.76 374.04,431.00 376.06,454.15 378.07,383.77 380.09,312.72 382.10,333.86 384.11,411.76 386.13,431.70 388.14,358.25 390.16,284.28 392.17,302.68 394.19,378.03 396.20,395.63 398.21,320.05 400.23,244.20 402.24,260.96 404.26,334.94 406.27,351.42 408.29,275.00 410.30,198.58 412.31,215.06 414.33,289.04 416.34,305.80 418.36,229.95 420.37,154.37 422.39,171.97 424.40,247.32 426.41,265.72 428.43,191.75 430.44,118.30 432.46,138.24 434.47,216.14 436.49,237.28 438.50,166.23 440.51,95.85 442.53,119.00 444.54,200.24 446.56,224.81 448.57,157.27 450.59,90.45 452.60,117.20 454.61,202.04 456.63,230.21 458.64,166.23 460.66,102.92 462.67,133.10 464.69,221.28 466.70,252.66 468.71,191.75 470.73,131.36 472.74,164.28 474.76,255.01 476.77,288.73 478.79,229.95 480.80,171.44 482.81,206.00 484.83,298.10 486.84,332.94 488.86,275.00 490.87,217.06 492.89,251.90 494.90,344.00 496.91,378.56 498.93,320.05 500.94,261.27 502.96,294.99 504.97,385.72 506.99,418.64 509.00,358.25 511.01,297.34 513.03,328.72 515.04,416.90 517.06,447.08 519.07,383.77 521.09,319.79 523.10,347.96 525.11,432.80 527.13,459.55 529.14,392.73 531.16,325.19 533.17,349.76 535.19,431.00 537.20,454.15 539.21,383.77 541.23,312.72 543.24,333.86 545.26,411.76 547.27,431.70 549.29,358.25 551.30,284.28 553.31,302.68 555.33,378.03 557.34,395.63 559.36,320.05 561.37,244.20 563.39,260.96 565.40,334.94 567.41,351.42 569.43,275.00 571.44,198.58 573.46,215.06 575.47,289.04 577.49,305.80 579.50,229.95 581.51,154.37 583.53,171.97 585.54,247.32 587.56,265.72 589.57,191.75 591.59,118.30 593.60,138.24 595.61,216.14 597.63,237.28 599.64,166.23 601.66,95.85 603.67,119.00 605.69,200.24 607.70,224.81 609.71,157.27 611.73,90.45 613.74,117.20 615.76,202.04 617.77,230.21 619.79,166.23 621.80,102.92 623.81,133.10 625.83,221.28 627.84,252.66 629.86,191.75 631.87,131.36 633.89,164.28 635.90,255.01 637.91,288.73 639.93,229.95 641.94,171.44 643.96,206.00 645.97,298.10 647.99,332.94 650.00,275.00 652.01,217.06 654.03,251.90 656.04,344.00 658.06,378.56 660.07,320.05 662.09,261.27 664.10,294.99 666.11,385.72 668.13,418.64 670.14,358.25 672.16,297.34 674.17,328.72 676.19,416.90 678.20,447.08 680.21,383.77 682.23,319.79 684.24,347.96 686.26,432.80 688.27,459.55 690.29,392.73 692.30,325.19 694.31,349.76 696.33,431.00 698.34,454.15 700.36,383.77 702.37,312.72 704.39,333.86 706.40,411.76 708.41,431.70 710.43,358.25 712.44,284.28 714.46,302.68 716.47,378.03 718.49,395.63 720.50,320.05 722.51,244.20 724.53,260.96 726.54,334.94 728.56,351.42 730.57,275.00 732.59,198.58 734.60,215.06 736.61,289.04 738.63,305.80 740.64,229.95 742.66,154.37 744.67,171.97 746.69,247.32 748.70,265.72 750.71,191.75 752.73,118.30 754.74,138.24 756.76,216.14 758.77,237.28 760.79,166.23 762.80,95.85 764.81,119.00 766.83,200.24 768.84,224.81 770.86,157.27 772.87,90.45 774.89,117.20 776.90,202.04 778.91,230.21 780.93,166.23 782.94,102.92 784.96,133.10 786.97,221.28 788.99,252.66 791.00,191.75 793.01,131.36 795.03,164.28 797.04,255.01 799.06,288.73 801.07,229.95 803.09,171.44 805.10,206.00 807.11,298.10 809.13,332.94 811.14,275.00 813.16,217.06 815.17,251.90 817.19,344.00 819.20,378.56 821.21,320.05 823.23,261.27 825.24,294.99 827.26,385.72 829.27,418.64 831.29,358.25 833.30,297.34 835.31,328.72 837.33,416.90 839.34,447.08 841.36,383.77 843.37,319.79 845.39,347.96 847.40,432.80 849.41,459.55 851.43,392.73 853.44,325.19 855.46,349.76 857.47,431.00 859.49,454.15 861.50,383.77 863.51,312.72 865.53,333.86 867.54,411.76 869.56,431.70 871.57,358.25 873.59,284.28 875.60,302.68 877.61,378.03 879.63,395.63 881.64,320.05 883.66,244.20 885.67,260.96 887.69,334.94 889.70,351.42 891.71,275.00" fill="none" stroke="#2563eb" stroke-width="2.25" stroke-linejoin="round" stroke-linecap="round"/>
<polyline points="86.00,275.00 88.01,254.40 90.03,243.79 92.04,255.99 94.06,269.42 96.07,258.78 98.09,230.63 100.10,214.82 102.11,223.58 104.13,234.94 106.14,223.30 108.16,194.99 110.17,179.69 112.19,189.52 114.20,202.39 116.21,192.65 118.23,166.55 120.24,153.73 122.26,166.27 124.27,182.05 126.29,175.37 128.30,152.48 130.31,142.97 132.33,158.89 134.34,178.12 136.36,174.92 138.37,155.51 140.39,149.47 142.40,168.83 144.41,191.43 146.43,191.52 148.44,175.30 150.46,172.33 152.47,194.62 154.49,219.99 156.50,222.68 158.51,208.86 160.53,208.09 162.54,232.36 164.56,259.47 166.57,263.66 168.59,251.10 170.60,251.31 172.61,276.30 174.63,303.87 176.64,308.23 178.66,295.57 180.67,295.42 182.69,319.76 184.70,346.42 186.71,349.61 188.73,335.52 190.74,333.69 192.76,356.12 194.77,380.64 196.79,381.48 198.80,364.85 200.81,360.30 202.83,379.84 204.84,401.33 206.86,399.01 208.87,379.11 210.89,371.20 212.90,387.32 214.91,405.33 216.93,399.52 218.94,376.12 220.96,364.73 222.97,377.41 224.99,392.04 227.00,382.93 229.01,356.34 231.03,341.87 233.04,351.62 235.06,363.48 237.07,351.78 239.09,322.77 241.10,306.11 243.11,313.88 245.13,324.00 247.14,310.79 249.16,280.54 251.17,262.89 253.19,269.94 255.20,279.61 257.21,266.22 259.23,236.06 261.24,218.78 263.26,226.48 265.27,237.06 267.29,224.84 269.30,196.12 271.31,180.51 273.33,190.12 275.34,202.83 277.36,192.97 279.37,166.79 281.39,153.90 283.40,166.40 285.41,182.15 287.43,175.44 289.44,152.53 291.46,143.00 293.47,158.92 295.49,178.14 297.50,174.93 299.51,155.52 301.53,149.47 303.54,168.83 305.56,191.43 307.57,191.52 309.59,175.30 311.60,172.33 313.61,194.62 315.63,219.99 317.64,222.68 319.66,208.86 321.67,208.09 323.69,232.36 325.70,259.47 327.71,263.66 329.73,251.10 331.74,251.31 333.76,276.30 335.77,303.87 337.79,308.23 339.80,295.57 341.81,295.42 343.83,319.76 345.84,346.42 347.86,349.61 349.87,335.52 351.89,333.69 353.90,356.12 355.91,380.64 357.93,381.48 359.94,364.85 361.96,360.30 363.97,379.84 365.99,401.33 368.00,399.01 370.01,379.11 372.03,371.20 374.04,387.32 376.06,405.33 378.07,399.52 380.09,376.12 382.10,364.73 384.11,377.41 386.13,392.04 388.14,382.93 390.16,356.34 392.17,341.87 394.19,351.62 396.20,363.48 398.21,351.78 400.23,322.77 402.24,306.11 404.26,313.88 406.27,324.00 408.29,310.79 410.30,280.54 412.31,262.89 414.33,269.94 416.34,279.61 418.36,266.22 420.37,236.06 422.39,218.78 424.40,226.48 426.41,237.06 428.43,224.84 430.44,196.12 432.46,180.51 434.47,190.12 436.49,202.83 438.50,192.97 440.51,166.79 442.53,153.90 444.54,166.40 446.56,182.15 448.57,175.44 450.59,152.53 452.60,143.00 454.61,158.92 456.63,178.14 458.64,174.93 460.66,155.52 462.67,149.47 464.69,168.83 466.70,191.43 468.71,191.52 470.73,175.30 472.74,172.33 474.76,194.62 476.77,219.99 478.79,222.68 480.80,208.86 482.81,208.09 484.83,232.36 486.84,259.47 488.86,263.66 490.87,251.10 492.89,251.31 494.90,276.30 496.91,303.87 498.93,308.23 500.94,295.57 502.96,295.42 504.97,319.76 506.99,346.42 509.00,349.61 511.01,335.52 513.03,333.69 515.04,356.12 517.06,380.64 519.07,381.48 521.09,364.85 523.10,360.30 525.11,379.84 527.13,401.33 529.14,399.01 531.16,379.11 533.17,371.20 535.19,387.32 537.20,405.33 539.21,399.52 541.23,376.12 543.24,364.73 545.26,377.41 547.27,392.04 549.29,382.93 551.30,356.34 553.31,341.87 555.33,351.62 557.34,363.48 559.36,351.78 561.37,322.77 563.39,306.11 565.40,313.88 567.41,324.00 569.43,310.79 571.44,280.54 573.46,262.89 575.47,269.94 577.49,279.61 579.50,266.22 581.51,236.06 583.53,218.78 585.54,226.48 587.56,237.06 589.57,224.84 591.59,196.12 593.60,180.51 595.61,190.12 597.63,202.83 599.64,192.97 601.66,166.79 603.67,153.90 605.69,166.40 607.70,182.15 609.71,175.44 611.73,152.53 613.74,143.00 615.76,158.92 617.77,178.14 619.79,174.93 621.80,155.52 623.81,149.47 625.83,168.83 627.84,191.43 629.86,191.52 631.87,175.30 633.89,172.33 635.90,194.62 637.91,219.99 639.93,222.68 641.94,208.86 643.96,208.09 645.97,232.36 647.99,259.47 650.00,263.66 652.01,251.10 654.03,251.31 656.04,276.30 658.06,303.87 660.07,308.23 662.09,295.57 664.10,295.42 666.11,319.76 668.13,346.42 670.14,349.61 672.16,335.52 674.17,333.69 676.19,356.12 678.20,380.64 680.21,381.48 682.23,364.85 684.24,360.30 686.26,379.84 688.27,401.33 690.29,399.01 692.30,379.11 694.31,371.20 696.33,387.32 698.34,405.33 700.36,399.52 702.37,376.12 704.39,364.73 706.40,377.41 708.41,392.04 710.43,382.93 712.44,356.34 714.46,341.87 716.47,351.62 718.49,363.48 720.50,351.78 722.51,322.77 724.53,306.11 726.54,313.88 728.56,324.00 730.57,310.79 732.59,280.54 734.60,262.89 736.61,269.94 738.63,279.61 740.64,266.22 742.66,236.06 744.67,218.78 746.69,226.48 748.70,237.06 750.71,224.84 752.73,196.12 754.74,180.51 756.76,190.12 758.77,202.83 760.79,192.97 762.80,166.79 764.81,153.90 766.83,166.40 768.84,182.15 770.86,175.44 772.87,152.53 774.89,143.00 776.90,158.92 778.91,178.14 780.93,174.93 782.94,155.52 784.96,149.47 786.97,168.83 788.99,191.43 791.00,191.52 793.01,175.30 795.03,172.33 797.04,194.62 799.06,219.99 801.07,222.68 803.09,208.86 805.10,208.09 807.11,232.36 809.13,259.47 811.14,263.66 813.16,251.10 815.17,251.31 817.19,276.30 819.20,303.87 821.21,308.23 823.23,295.57 825.24,295.42 827.26,319.76 829.27,346.42 831.29,349.61 833.30,335.52 835.31,333.69 837.33,356.12 839.34,380.64 841.36,381.48 843.37,364.85 845.39,360.30 847.40,379.84 849.41,401.33 851.43,399.01 853.44,379.11 855.46,371.20 857.47,387.32 859.49,405.33 861.50,399.52 863.51,376.12 865.53,364.73 867.54,377.41 869.56,392.04 871.57,382.93 873.59,356.34 875.60,341.87 877.61,351.62 879.63,363.48 881.64,351.78 883.66,322.77 885.67,306.11 887.69,313.88 889.70,324.00 891.71,310.79" fill="none" stroke="#dc2626" stroke-width="2.25" stroke-linejoin="round" stroke-linecap="round"/>
<polyline points="86.00,275.00 88.01,219.19 90.03,246.27 92.04,308.05 94.06,311.38 96.07,246.17 98.09,198.74 100.10,232.15 102.11,298.74 104.13,305.78 106.14,243.46 108.16,198.31 110.17,233.55 112.19,301.62 114.20,309.89 116.21,248.59 118.23,204.30 120.24,240.27 122.26,308.97 124.27,317.76 126.29,256.90 128.30,212.98 130.31,249.23 132.33,318.15 134.34,327.09 136.36,266.32 138.37,222.42 140.39,258.63 142.40,327.45 144.41,336.23 146.43,275.24 148.44,231.06 150.46,266.95 152.47,335.39 154.49,343.74 156.50,282.27 158.51,237.58 160.53,272.91 162.54,340.75 164.56,348.47 166.57,286.34 168.59,240.96 170.60,275.59 172.61,342.70 174.63,349.69 176.64,286.82 178.66,240.70 180.67,274.58 182.69,340.96 184.70,347.22 186.71,283.64 188.73,236.83 190.74,270.04 192.76,335.78 194.77,341.44 196.79,277.28 198.80,229.94 200.81,262.66 202.83,327.96 204.84,333.22 206.86,268.72 208.87,221.08 210.89,253.56 212.90,318.68 214.91,323.81 216.93,259.25 218.94,211.60 220.96,244.14 222.97,309.36 224.99,314.66 227.00,250.31 229.01,202.94 231.03,235.81 233.04,301.41 235.06,307.14 237.07,243.28 239.09,196.43 241.10,229.85 243.11,296.06 245.13,302.42 247.14,239.21 249.16,193.04 251.17,227.18 253.19,294.10 255.20,301.19 257.21,238.73 259.23,193.31 261.24,228.18 263.26,295.84 265.27,303.66 267.29,241.91 269.30,197.18 271.31,232.72 273.33,301.02 275.34,309.45 277.36,248.27 279.37,204.07 281.39,240.10 283.40,308.84 285.41,317.67 287.43,256.83 289.44,212.93 291.46,249.20 293.47,318.12 295.49,327.07 297.50,266.30 299.51,222.41 301.53,258.63 303.54,327.44 305.56,336.23 307.57,275.24 309.59,231.06 311.60,266.95 313.61,335.39 315.63,343.74 317.64,282.27 319.66,237.58 321.67,272.91 323.69,340.75 325.70,348.47 327.71,286.34 329.73,240.96 331.74,275.59 333.76,342.70 335.77,349.69 337.79,286.82 339.80,240.70 341.81,274.58 343.83,340.96 345.84,347.22 347.86,283.64 349.87,236.83 351.89,270.04 353.90,335.78 355.91,341.44 357.93,277.28 359.94,229.94 361.96,262.66 363.97,327.96 365.99,333.22 368.00,268.72 370.01,221.08 372.03,253.56 374.04,318.68 376.06,323.81 378.07,259.25 380.09,211.60 382.10,244.14 384.11,309.36 386.13,314.66 388.14,250.31 390.16,202.94 392.17,235.81 394.19,301.41 396.20,307.14 398.21,243.28 400.23,196.43 402.24,229.85 404.26,296.06 406.27,302.42 408.29,239.21 410.30,193.04 412.31,227.18 414.33,294.10 416.34,301.19 418.36,238.73 420.37,193.31 422.39,228.18 424.40,295.84 426.41,303.66 428.43,241.91 430.44,197.18 432.46,232.72 434.47,301.02 436.49,309.45 438.50,248.27 440.51,204.07 442.53,240.10 444.54,308.84 446.56,317.67 448.57,256.83 450.59,212.93 452.60,249.20 454.61,318.12 456.63,327.07 458.64,266.30 460.66,222.41 462.67,258.63 464.69,327.44 466.70,336.23 468.71,275.24 470.73,231.06 472.74,266.95 474.76,335.39 476.77,343.74 478.79,282.27 480.80,237.58 482.81,272.91 484.83,340.75 486.84,348.47 488.86,286.34 490.87,240.96 492.89,275.59 494.90,342.70 496.91,349.69 498.93,286.82 500.94,240.70 502.96,274.58 504.97,340.96 506.99,347.22 509.00,283.64 511.01,236.83 513.03,270.04 515.04,335.78 517.06,341.44 519.07,277.28 521.09,229.94 523.10,262.66 525.11,327.96 527.13,333.22 529.14,268.72 531.16,221.08 533.17,253.56 535.19,318.68 537.20,323.81 539.21,259.25 541.23,211.60 543.24,244.14 545.26,309.36 547.27,314.66 549.29,250.31 551.30,202.94 553.31,235.81 555.33,301.41 557.34,307.14 559.36,243.28 561.37,196.43 563.39,229.85 565.40,296.06 567.41,302.42 569.43,239.21 571.44,193.04 573.46,227.18 575.47,294.10 577.49,301.19 579.50,238.73 581.51,193.31 583.53,228.18 585.54,295.84 587.56,303.66 589.57,241.91 591.59,197.18 593.60,232.72 595.61,301.02 597.63,309.45 599.64,248.27 601.66,204.07 603.67,240.10 605.69,308.84 607.70,317.67 609.71,256.83 611.73,212.93 613.74,249.20 615.76,318.12 617.77,327.07 619.79,266.30 621.80,222.41 623.81,258.63 625.83,327.44 627.84,336.23 629.86,275.24 631.87,231.06 633.89,266.95 635.90,335.39 637.91,343.74 639.93,282.27 641.94,237.58 643.96,272.91 645.97,340.75 647.99,348.47 650.00,286.34 652.01,240.96 654.03,275.59 656.04,342.70 658.06,349.69 660.07,286.82 662.09,240.70 664.10,274.58 666.11,340.96 668.13,347.22 670.14,283.64 672.16,236.83 674.17,270.04 676.19,335.78 678.20,341.44 680.21,277.28 682.23,229.94 684.24,262.66 686.26,327.96 688.27,333.22 690.29,268.72 692.30,221.08 694.31,253.56 696.33,318.68 698.34,323.81 700.36,259.25 702.37,211.60 704.39,244.14 706.40,309.36 708.41,314.66 710.43,250.31 712.44,202.94 714.46,235.81 716.47,301.41 718.49,307.14 720.50,243.28 722.51,196.43 724.53,229.85 726.54,296.06 728.56,302.42 730.57,239.21 732.59,193.04 734.60,227.18 736.61,294.10 738.63,301.19 740.64,238.73 742.66,193.31 744.67,228.18 746.69,295.84 748.70,303.66 750.71,241.91 752.73,197.18 754.74,232.72 756.76,301.02 758.77,309.45 760.79,248.27 762.80,204.07 764.81,240.10 766.83,308.84 768.84,317.67 770.86,256.83 772.87,212.93 774.89,249.20 776.90,318.12 778.91,327.07 780.93,266.30 782.94,222.41 784.96,258.63 786.97,327.44 788.99,336.23 791.00,275.24 793.01,231.06 795.03,266.95 797.04,335.39 799.06,343.74 801.07,282.27 803.09,237.58 805.10,272.91 807.11,340.75 809.13,348.47 811.14,286.34 813.16,240.96 815.17,275.59 817.19,342.70 819.20,349.69 821.21,286.82 823.23,240.70 825.24,274.58 827.26,340.96 829.27,347.22 831.29,283.64 833.30,236.83 835.31,270.04 837.33,335.78 839.34,341.44 841.36,277.28 843.37,229.94 845.39,262.66 847.40,327.96 849.41,333.22 851.43,268.72 853.44,221.08 855.46,253.56 857.47,318.68 859.49,323.81 861.50,259.25 863.51,211.60 865.53,244.14 867.54,309.36 869.56,314.66 871.57,250.31 873.59,202.94 875.60,235.81 877.61,301.41 879.63,307.14 881.64,243.28 883.66,196.43 885.67,229.85 887.69,296.06 889.70,302.42 891.71,239.21" fill="none" stroke="#16a34a" stroke-width="2.25" stroke-linejoin="round" stroke-linecap="round"/>
<line x1="86" y1="521" x2="114" y2="521" stroke="#2563eb" stroke-width="3"/>
<text x="122" y="526" class="legend">V(in)</text>
<line x1="276" y1="521" x2="304" y2="521" stroke="#dc2626" stroke-width="3"/>
<text x="312" y="526" class="legend">V(low)</text>
<line x1="466" y1="521" x2="494" y2="521" stroke="#16a34a" stroke-width="3"/>
<text x="502" y="526" class="legend">V(high)</text>
<text x="509.00" y="546" text-anchor="middle" class="axis">time</text>
<text x="22" y="275.00" text-anchor="middle" class="axis" transform="rotate(-90 22 275.00)">signal</text>
</svg>