<svg xmlns="http://www.w3.org/2000/svg" viewBox="0 0 960 560" width="960" height="560" role="img">
<rect width="100%" height="100%" fill="#ffffff"/>
<style>.title{font:700 20px system-ui,sans-serif;fill:#111827}.axis{font:12px ui-monospace,SFMono-Regular,Menlo,monospace;fill:#374151}.legend{font:13px ui-monospace,SFMono-Regular,Menlo,monospace;fill:#111827}.grid{stroke:#e5e7eb;stroke-width:1}.frame{stroke:#374151;stroke-width:1.5;fill:none}.reference{stroke-dasharray:7 5;stroke-width:1.7}.reference-label{font:12px ui-monospace,SFMono-Regular,Menlo,monospace;fill:#374151}</style>
<text x="86" y="34" class="title">FFT of RC high-pass output</text>
<line x1="86.00" y1="72" x2="86.00" y2="478" class="grid"/>
<text x="86.00" y="502" text-anchor="middle" class="axis">0</text>
<line x1="255.20" y1="72" x2="255.20" y2="478" class="grid"/>
<text x="255.20" y="502" text-anchor="middle" class="axis">5.25e+03</text>
<line x1="424.40" y1="72" x2="424.40" y2="478" class="grid"/>
<text x="424.40" y="502" text-anchor="middle" class="axis">1.05e+04</text>
<line x1="593.60" y1="72" x2="593.60" y2="478" class="grid"/>
<text x="593.60" y="502" text-anchor="middle" class="axis">1.58e+04</text>
<line x1="762.80" y1="72" x2="762.80" y2="478" class="grid"/>
<text x="762.80" y="502" text-anchor="middle" class="axis">2.1e+04</text>
<line x1="932.00" y1="72" x2="932.00" y2="478" class="grid"/>
<text x="932.00" y="502" text-anchor="middle" class="axis">2.63e+04</text>
<line x1="86" y1="478.00" x2="932" y2="478.00" class="grid"/>
<text x="74" y="482.00" text-anchor="end" class="axis">-0.02729</text>
<line x1="86" y1="396.80" x2="932" y2="396.80" class="grid"/>
<text x="74" y="400.80" text-anchor="end" class="axis">0.09277</text>
<line x1="86" y1="315.60" x2="932" y2="315.60" class="grid"/>
<text x="74" y="319.60" text-anchor="end" class="axis">0.2128</text>
<line x1="86" y1="234.40" x2="932" y2="234.40" class="grid"/>
<text x="74" y="238.40" text-anchor="end" class="axis">0.3329</text>
<line x1="86" y1="153.20" x2="932" y2="153.20" class="grid"/>
<text x="74" y="157.20" text-anchor="end" class="axis">0.4529</text>
<line x1="86" y1="72.00" x2="932" y2="72.00" class="grid"/>
<text x="74" y="76.00" text-anchor="end" class="axis">0.573</text>
<rect x="86" y="72" width="846" height="406" class="frame"/>
<polyline points="86.00,457.32 89.15,438.61 92.29,333.65 95.44,324.15 98.59,427.94 101.74,455.39 104.88,458.13 108.03,458.87 111.18,459.16 114.33,459.30 117.47,459.38 120.62,459.43 123.77,459.46 126.92,459.48 130.06,459.50 133.21,459.51 136.36,459.52 139.50,459.52 142.65,459.53 145.80,459.53 148.95,459.53 152.09,459.54 155.24,459.54 158.39,459.54 161.54,459.54 164.68,459.54 167.83,459.54 170.98,459.54 174.12,459.54 177.27,459.53 180.42,459.53 183.57,459.53 186.71,459.52 189.86,459.51 193.01,459.49 196.16,459.45 199.30,459.39 202.45,459.24 205.60,458.81 208.75,456.63 211.89,263.18 215.04,90.45 218.19,285.30 221.33,457.47 224.48,459.04 227.63,459.35 230.78,459.45 233.92,459.50 237.07,459.52 240.22,459.53 243.37,459.53 246.51,459.54 249.66,459.54 252.81,459.54 255.96,459.54 259.10,459.54 262.25,459.54 265.40,459.54 268.54,459.54 271.69,459.54 274.84,459.55 277.99,459.55 281.13,459.55 284.28,459.55 287.43,459.55 290.58,459.55 293.72,459.55 296.87,459.55 300.02,459.55 303.17,459.55 306.31,459.55 309.46,459.55 312.61,459.55 315.75,459.55 318.90,459.55 322.05,459.55 325.20,459.55 328.34,459.55 331.49,459.55 334.64,459.55 337.79,459.55 340.93,459.55 344.08,459.55 347.23,459.55 350.37,459.55 353.52,459.55 356.67,459.55 359.82,459.55 362.96,459.55 366.11,459.55 369.26,459.55 372.41,459.55 375.55,459.55 378.70,459.55 381.85,459.55 385.00,459.55 388.14,459.55 391.29,459.55 394.44,459.55 397.58,459.55 400.73,459.55 403.88,459.55 407.03,459.55 410.17,459.55 413.32,459.55 416.47,459.55 419.62,459.55 422.76,459.55 425.91,459.55 429.06,459.55 432.21,459.55 435.35,459.55 438.50,459.55 441.65,459.55 444.79,459.55 447.94,459.55 451.09,459.55 454.24,459.55 457.38,459.55 460.53,459.55 463.68,459.55 466.83,459.55 469.97,459.55 473.12,459.55 476.27,459.55 479.42,459.55 482.56,459.55 485.71,459.55 488.86,459.55 492.00,459.55 495.15,459.55 498.30,459.55 501.45,459.55 504.59,459.55 507.74,459.55 510.89,459.55 514.04,459.55 517.18,459.55 520.33,459.55 523.48,459.55 526.62,459.55 529.77,459.55 532.92,459.55 536.07,459.55 539.21,459.55 542.36,459.55 545.51,459.55 548.66,459.55 551.80,459.55 554.95,459.55 558.10,459.55 561.25,459.55 564.39,459.55 567.54,459.55 570.69,459.55 573.83,459.55 576.98,459.55 580.13,459.55 583.28,459.55 586.42,459.55 589.57,459.55 592.72,459.55 595.87,459.55 599.01,459.55 602.16,459.55 605.31,459.55 608.46,459.55 611.60,459.55 614.75,459.55 617.90,459.55 621.04,459.55 624.19,459.55 627.34,459.55 630.49,459.55 633.63,459.55 636.78,459.55 639.93,459.55 643.08,459.55 646.22,459.55 649.37,459.55 652.52,459.55 655.67,459.55 658.81,459.55 661.96,459.55 665.11,459.55 668.25,459.55 671.40,459.55 674.55,459.55 677.70,459.55 680.84,459.55 683.99,459.55 687.14,459.55 690.29,459.55 693.43,459.55 696.58,459.55 699.73,459.55 702.87,459.55 706.02,459.55 709.17,459.55 712.32,459.55 715.46,459.55 718.61,459.55 721.76,459.55 724.91,459.55 728.05,459.55 731.20,459.55 734.35,459.55 737.50,459.55 740.64,459.55 743.79,459.55 746.94,459.55 750.08,459.55 753.23,459.55 756.38,459.55 759.53,459.55 762.67,459.55 765.82,459.55 768.97,459.55 772.12,459.55 775.26,459.55 778.41,459.55 781.56,459.55 784.71,459.55 787.85,459.55 791.00,459.55 794.15,459.55 797.29,459.55 800.44,459.55 803.59,459.55 806.74,459.55 809.88,459.55 813.03,459.55 816.18,459.55 819.33,459.55 822.47,459.55 825.62,459.55 828.77,459.55 831.92,459.55 835.06,459.55 838.21,459.55 841.36,459.55 844.50,459.55 847.65,459.55 850.80,459.55 853.95,459.55 857.09,459.55 860.24,459.55 863.39,459.55 866.54,459.55 869.68,459.55 872.83,459.55 875.98,459.55 879.12,459.55 882.27,459.55 885.42,459.55 888.57,459.55 891.71,459.55" fill="none" stroke="#2563eb" stroke-width="2.25" stroke-linejoin="round" stroke-linecap="round"/>
<line x1="86" y1="521" x2="114" y2="521" stroke="#2563eb" stroke-width="3"/>
<text x="122" y="526" class="legend">FFT V(high)</text>
<text x="509.00" y="546" text-anchor="middle" class="axis">frequency (Hz)</text>
<text x="22" y="275.00" text-anchor="middle" class="axis" transform="rotate(-90 22 275.00)">signal</text>
</svg>