<svg xmlns="http://www.w3.org/2000/svg" viewBox="0 0 960 560" width="960" height="560" role="img">
<rect width="100%" height="100%" fill="#ffffff"/>
<style>.title{font:700 20px system-ui,sans-serif;fill:#111827}.axis{font:12px ui-monospace,SFMono-Regular,Menlo,monospace;fill:#374151}.legend{font:13px ui-monospace,SFMono-Regular,Menlo,monospace;fill:#111827}.grid{stroke:#e5e7eb;stroke-width:1}.frame{stroke:#374151;stroke-width:1.5;fill:none}</style>
<text x="86" y="34" class="title">Precision rectifier response</text>
<line x1="86.00" y1="72" x2="86.00" y2="478" class="grid"/>
<text x="86.00" y="502" text-anchor="middle" class="axis">0</text>
<line x1="255.20" y1="72" x2="255.20" y2="478" class="grid"/>
<text x="255.20" y="502" text-anchor="middle" class="axis">0.00084</text>
<line x1="424.40" y1="72" x2="424.40" y2="478" class="grid"/>
<text x="424.40" y="502" text-anchor="middle" class="axis">0.00168</text>
<line x1="593.60" y1="72" x2="593.60" y2="478" class="grid"/>
<text x="593.60" y="502" text-anchor="middle" class="axis">0.00252</text>
<line x1="762.80" y1="72" x2="762.80" y2="478" class="grid"/>
<text x="762.80" y="502" text-anchor="middle" class="axis">0.00336</text>
<line x1="932.00" y1="72" x2="932.00" y2="478" class="grid"/>
<text x="932.00" y="502" text-anchor="middle" class="axis">0.0042</text>
<line x1="86" y1="478.00" x2="932" y2="478.00" class="grid"/>
<text x="74" y="482.00" text-anchor="end" class="axis">-0.8234</text>
<line x1="86" y1="396.80" x2="932" y2="396.80" class="grid"/>
<text x="74" y="400.80" text-anchor="end" class="axis">-0.494</text>
<line x1="86" y1="315.60" x2="932" y2="315.60" class="grid"/>
<text x="74" y="319.60" text-anchor="end" class="axis">-0.1647</text>
<line x1="86" y1="234.40" x2="932" y2="234.40" class="grid"/>
<text x="74" y="238.40" text-anchor="end" class="axis">0.1647</text>
<line x1="86" y1="153.20" x2="932" y2="153.20" class="grid"/>
<text x="74" y="157.20" text-anchor="end" class="axis">0.494</text>
<line x1="86" y1="72.00" x2="932" y2="72.00" class="grid"/>
<text x="74" y="76.00" text-anchor="end" class="axis">0.8234</text>
<rect x="86" y="72" width="846" height="406" class="frame"/>
<polyline points="86.00,275.00 94.06,229.01 102.11,185.92 110.17,148.42 118.23,118.88 126.29,99.14 134.34,90.45 142.40,93.36 150.46,107.69 158.51,132.52 166.57,166.31 174.63,206.93 182.69,251.82 190.74,298.18 198.80,343.07 206.86,383.69 214.91,417.48 222.97,442.31 231.03,456.64 239.09,459.55 247.14,450.86 255.20,431.12 263.26,401.58 271.31,364.08 279.37,320.99 287.43,275.00 295.49,229.01 303.54,185.92 311.60,148.42 319.66,118.88 327.71,99.14 335.77,90.45 343.83,93.36 351.89,107.69 359.94,132.52 368.00,166.31 376.06,206.93 384.11,251.82 392.17,298.18 400.23,343.07 408.29,383.69 416.34,417.48 424.40,442.31 432.46,456.64 440.51,459.55 448.57,450.86 456.63,431.12 464.69,401.58 472.74,364.08 480.80,320.99 488.86,275.00 496.91,229.01 504.97,185.92 513.03,148.42 521.09,118.88 529.14,99.14 537.20,90.45 545.26,93.36 553.31,107.69 561.37,132.52 569.43,166.31 577.49,206.93 585.54,251.82 593.60,298.18 601.66,343.07 609.71,383.69 617.77,417.48 625.83,442.31 633.89,456.64 641.94,459.55 650.00,450.86 658.06,431.12 666.11,401.58 674.17,364.08 682.23,320.99 690.29,275.00 698.34,229.01 706.40,185.92 714.46,148.42 722.51,118.88 730.57,99.14 738.63,90.45 746.69,93.36 754.74,107.69 762.80,132.52 770.86,166.31 778.91,206.93 786.97,251.82 795.03,298.18 803.09,343.07 811.14,383.69 819.20,417.48 827.26,442.31 835.31,456.64 843.37,459.55 851.43,450.86 859.49,431.12 867.54,401.58 875.60,364.08 883.66,320.99 891.71,275.00" fill="none" stroke="#2563eb" stroke-width="2.25" stroke-linejoin="round" stroke-linecap="round"/>
<polyline points="86.00,275.00 94.06,229.01 102.11,185.92 110.17,148.42 118.23,118.88 126.29,99.14 134.34,90.45 142.40,93.36 150.46,107.69 158.51,132.52 166.57,166.31 174.63,206.93 182.69,251.82 190.74,275.00 198.80,275.00 206.86,275.00 214.91,275.00 222.97,275.00 231.03,275.00 239.09,275.00 247.14,275.00 255.20,275.00 263.26,275.00 271.31,275.00 279.37,275.00 287.43,275.00 295.49,229.01 303.54,185.92 311.60,148.42 319.66,118.88 327.71,99.14 335.77,90.45 343.83,93.36 351.89,107.69 359.94,132.52 368.00,166.31 376.06,206.93 384.11,251.82 392.17,275.00 400.23,275.00 408.29,275.00 416.34,275.00 424.40,275.00 432.46,275.00 440.51,275.00 448.57,275.00 456.63,275.00 464.69,275.00 472.74,275.00 480.80,275.00 488.86,275.00 496.91,229.01 504.97,185.92 513.03,148.42 521.09,118.88 529.14,99.14 537.20,90.45 545.26,93.36 553.31,107.69 561.37,132.52 569.43,166.31 577.49,206.93 585.54,251.82 593.60,275.00 601.66,275.00 609.71,275.00 617.77,275.00 625.83,275.00 633.89,275.00 641.94,275.00 650.00,275.00 658.06,275.00 666.11,275.00 674.17,275.00 682.23,275.00 690.29,275.00 698.34,229.01 706.40,185.92 714.46,148.42 722.51,118.88 730.57,99.14 738.63,90.45 746.69,93.36 754.74,107.69 762.80,132.52 770.86,166.31 778.91,206.93 786.97,251.82 795.03,275.00 803.09,275.00 811.14,275.00 819.20,275.00 827.26,275.00 835.31,275.00 843.37,275.00 851.43,275.00 859.49,275.00 867.54,275.00 875.60,275.00 883.66,275.00 891.71,275.00" fill="none" stroke="#dc2626" stroke-width="2.25" stroke-linejoin="round" stroke-linecap="round"/>
<line x1="86" y1="521" x2="114" y2="521" stroke="#2563eb" stroke-width="3"/>
<text x="122" y="526" class="legend">V(in)</text>
<line x1="276" y1="521" x2="304" y2="521" stroke="#dc2626" stroke-width="3"/>
<text x="312" y="526" class="legend">V(rect)</text>
<text x="509.00" y="546" text-anchor="middle" class="axis">time</text>
<text x="22" y="275.00" text-anchor="middle" class="axis" transform="rotate(-90 22 275.00)">signal</text>
</svg>