<svg xmlns="http://www.w3.org/2000/svg" viewBox="0 0 960 560" width="960" height="560" role="img">
<rect width="100%" height="100%" fill="#ffffff"/>
<style>.title{font:700 20px system-ui,sans-serif;fill:#111827}.axis{font:12px ui-monospace,SFMono-Regular,Menlo,monospace;fill:#374151}.legend{font:13px ui-monospace,SFMono-Regular,Menlo,monospace;fill:#111827}.grid{stroke:#e5e7eb;stroke-width:1}.frame{stroke:#374151;stroke-width:1.5;fill:none}.reference{stroke-dasharray:7 5;stroke-width:1.7}.reference-label{font:12px ui-monospace,SFMono-Regular,Menlo,monospace;fill:#374151}</style>
<text x="86" y="34" class="title">RLC step ringing response</text>
<line x1="86.00" y1="72" x2="86.00" y2="478" class="grid"/>
<text x="86.00" y="502" text-anchor="middle" class="axis">0</text>
<line x1="255.20" y1="72" x2="255.20" y2="478" class="grid"/>
<text x="255.20" y="502" text-anchor="middle" class="axis">0.00084</text>
<line x1="424.40" y1="72" x2="424.40" y2="478" class="grid"/>
<text x="424.40" y="502" text-anchor="middle" class="axis">0.00168</text>
<line x1="593.60" y1="72" x2="593.60" y2="478" class="grid"/>
<text x="593.60" y="502" text-anchor="middle" class="axis">0.00252</text>
<line x1="762.80" y1="72" x2="762.80" y2="478" class="grid"/>
<text x="762.80" y="502" text-anchor="middle" class="axis">0.00336</text>
<line x1="932.00" y1="72" x2="932.00" y2="478" class="grid"/>
<text x="932.00" y="502" text-anchor="middle" class="axis">0.0042</text>
<line x1="86" y1="478.00" x2="932" y2="478.00" class="grid"/>
<text x="74" y="482.00" text-anchor="end" class="axis">-0.4572</text>
<line x1="86" y1="396.80" x2="932" y2="396.80" class="grid"/>
<text x="74" y="400.80" text-anchor="end" class="axis">1.554</text>
<line x1="86" y1="315.60" x2="932" y2="315.60" class="grid"/>
<text x="74" y="319.60" text-anchor="end" class="axis">3.566</text>
<line x1="86" y1="234.40" x2="932" y2="234.40" class="grid"/>
<text x="74" y="238.40" text-anchor="end" class="axis">5.577</text>
<line x1="86" y1="153.20" x2="932" y2="153.20" class="grid"/>
<text x="74" y="157.20" text-anchor="end" class="axis">7.589</text>
<line x1="86" y1="72.00" x2="932" y2="72.00" class="grid"/>
<text x="74" y="76.00" text-anchor="end" class="axis">9.601</text>
<rect x="86" y="72" width="846" height="406" class="frame"/>
<polyline points="86.00,257.71 90.03,257.71 94.06,257.71 98.09,257.71 102.11,257.71 106.14,257.71 110.17,257.71 114.20,257.71 118.23,257.71 122.26,257.71 126.29,257.71 130.31,257.71 134.34,257.71 138.37,257.71 142.40,257.71 146.43,257.71 150.46,257.71 154.49,257.71 158.51,257.71 162.54,257.71 166.57,257.71 170.60,257.71 174.63,257.71 178.66,257.71 182.69,257.71 186.71,257.71 190.74,257.71 194.77,257.71 198.80,257.71 202.83,257.71 206.86,257.71 210.89,257.71 214.91,257.71 218.94,257.71 222.97,257.71 227.00,257.71 231.03,257.71 235.06,257.71 239.09,257.71 243.11,257.71 247.14,257.71 251.17,257.71 255.20,257.71 259.23,257.71 263.26,257.71 267.29,257.71 271.31,257.71 275.34,257.71 279.37,257.71 283.40,257.71 287.43,257.71 291.46,257.71 295.49,257.71 299.51,257.71 303.54,257.71 307.57,257.71 311.60,257.71 315.63,257.71 319.66,257.71 323.69,257.71 327.71,257.71 331.74,257.71 335.77,257.71 339.80,257.71 343.83,257.71 347.86,257.71 351.89,257.71 355.91,257.71 359.94,257.71 363.97,257.71 368.00,257.71 372.03,257.71 376.06,257.71 380.09,257.71 384.11,257.71 388.14,257.71 392.17,257.71 396.20,257.71 400.23,257.71 404.26,257.71 408.29,257.71 412.31,257.71 416.34,257.71 420.37,257.71 424.40,257.71 428.43,257.71 432.46,257.71 436.49,257.71 440.51,257.71 444.54,257.71 448.57,257.71 452.60,257.71 456.63,257.71 460.66,257.71 464.69,257.71 468.71,257.71 472.74,257.71 476.77,257.71 480.80,257.71 484.83,257.71 488.86,257.71 492.89,257.71 496.91,257.71 500.94,257.71 504.97,257.71 509.00,257.71 513.03,257.71 517.06,257.71 521.09,257.71 525.11,257.71 529.14,257.71 533.17,257.71 537.20,257.71 541.23,257.71 545.26,257.71 549.29,257.71 553.31,257.71 557.34,257.71 561.37,257.71 565.40,257.71 569.43,257.71 573.46,257.71 577.49,257.71 581.51,257.71 585.54,257.71 589.57,257.71 593.60,257.71 597.63,257.71 601.66,257.71 605.69,257.71 609.71,257.71 613.74,257.71 617.77,257.71 621.80,257.71 625.83,257.71 629.86,257.71 633.89,257.71 637.91,257.71 641.94,257.71 645.97,257.71 650.00,257.71 654.03,257.71 658.06,257.71 662.09,257.71 666.11,257.71 670.14,257.71 674.17,257.71 678.20,257.71 682.23,257.71 686.26,257.71 690.29,257.71 694.31,257.71 698.34,257.71 702.37,257.71 706.40,257.71 710.43,257.71 714.46,257.71 718.49,257.71 722.51,257.71 726.54,257.71 730.57,257.71 734.60,257.71 738.63,257.71 742.66,257.71 746.69,257.71 750.71,257.71 754.74,257.71 758.77,257.71 762.80,257.71 766.83,257.71 770.86,257.71 774.89,257.71 778.91,257.71 782.94,257.71 786.97,257.71 791.00,257.71 795.03,257.71 799.06,257.71 803.09,257.71 807.11,257.71 811.14,257.71 815.17,257.71 819.20,257.71 823.23,257.71 827.26,257.71 831.29,257.71 835.31,257.71 839.34,257.71 843.37,257.71 847.40,257.71 851.43,257.71 855.46,257.71 859.49,257.71 863.51,257.71 867.54,257.71 871.57,257.71 875.60,257.71 879.63,257.71 883.66,257.71 887.69,257.71 891.71,257.71" fill="none" stroke="#2563eb" stroke-width="2.25" stroke-linejoin="round" stroke-linecap="round"/>
<polyline points="86.00,459.55 90.03,412.30 94.06,306.70 98.09,188.91 102.11,106.73 106.14,90.45 110.17,142.00 114.20,236.10 118.23,332.27 122.26,392.04 126.29,394.10 130.31,341.64 134.34,259.36 138.37,182.14 142.40,140.41 146.43,148.35 150.46,199.34 154.49,270.06 158.51,330.95 162.54,358.40 166.57,343.80 170.60,295.89 174.63,236.09 178.66,189.06 182.69,172.67 186.71,191.32 190.74,235.15 194.77,284.93 198.80,320.39 202.83,328.41 206.86,307.68 210.89,268.46 214.91,227.69 218.94,201.72 222.97,199.87 227.00,221.22 231.03,255.63 235.06,288.48 239.09,306.78 243.11,304.25 247.14,283.33 251.17,253.66 255.20,227.66 259.23,215.45 263.26,220.94 267.29,240.70 271.31,265.88 275.34,286.05 279.37,293.52 283.40,286.19 287.43,268.02 291.46,247.00 295.49,231.71 299.51,227.85 303.54,236.16 307.57,252.49 311.60,269.76 315.63,281.03 319.66,282.22 323.69,273.55 327.71,259.17 331.74,245.21 335.77,237.20 339.80,237.92 343.83,246.49 347.86,258.93 351.89,270.03 355.91,275.44 359.94,273.41 363.97,265.26 368.00,254.67 372.03,246.03 376.06,242.64 380.09,245.50 384.11,253.03 388.14,261.90 392.17,268.49 396.20,270.32 400.23,266.99 404.26,260.20 408.29,252.89 412.31,248.00 416.34,247.33 420.37,250.84 424.40,256.85 428.43,262.78 432.46,266.28 436.49,266.12 440.51,262.62 444.54,257.40 448.57,252.67 452.60,250.28 456.63,251.02 460.66,254.37 464.69,258.82 468.71,262.52 472.74,264.05 476.77,262.94 480.80,259.82 484.83,256.08 488.86,253.25 492.89,252.39 496.91,253.72 500.94,256.54 504.97,259.64 509.00,261.75 513.03,262.10 517.06,260.68 521.09,258.18 525.11,255.66 529.14,254.13 533.17,254.14 537.20,255.57 541.23,257.75 545.26,259.77 549.29,260.82 553.31,260.56 557.34,259.18 561.37,257.31 565.40,255.73 569.43,255.05 573.46,255.47 577.49,256.76 581.51,258.34 585.54,259.56 589.57,259.95 593.60,259.43 597.63,258.26 601.66,256.95 605.69,256.03 609.71,255.85 613.74,256.43 617.77,257.47 621.80,258.54 625.83,259.20 629.86,259.23 633.89,258.64 637.91,257.73 641.94,256.87 645.97,256.41 650.00,256.50 654.03,257.06 658.06,257.85 662.09,258.52 666.11,258.83 670.14,258.67 674.17,258.14 678.20,257.47 682.23,256.95 686.26,256.77 690.29,256.97 694.31,257.46 698.34,258.01 702.37,258.41 706.40,258.50 710.43,258.27 714.46,257.83 718.49,257.38 722.51,257.09 726.54,257.07 730.57,257.31 734.60,257.69 738.63,258.05 742.66,258.26 746.69,258.23 750.71,258.00 754.74,257.67 758.77,257.38 762.80,257.24 766.83,257.30 770.86,257.52 774.89,257.80 778.91,258.03 782.94,258.11 786.97,258.03 791.00,257.83 795.03,257.59 799.06,257.42 803.09,257.38 807.11,257.47 811.14,257.65 815.17,257.85 819.20,257.97 823.23,257.98 827.26,257.89 831.29,257.73 835.31,257.57 839.34,257.48 843.37,257.49 847.40,257.59 851.43,257.72 855.46,257.85 859.49,257.91 863.51,257.89 867.54,257.80 871.57,257.68 875.60,257.58 879.63,257.54 883.66,257.58 887.69,257.66 891.71,257.76" fill="none" stroke="#dc2626" stroke-width="2.25" stroke-linejoin="round" stroke-linecap="round"/>
<line x1="86" y1="521" x2="114" y2="521" stroke="#2563eb" stroke-width="3"/>
<text x="122" y="526" class="legend">V(in)</text>
<line x1="276" y1="521" x2="304" y2="521" stroke="#dc2626" stroke-width="3"/>
<text x="312" y="526" class="legend">V(out)</text>
<text x="509.00" y="546" text-anchor="middle" class="axis">time</text>
<text x="22" y="275.00" text-anchor="middle" class="axis" transform="rotate(-90 22 275.00)">signal</text>
</svg>