<svg xmlns="http://www.w3.org/2000/svg" viewBox="0 0 960 560" width="960" height="560" role="img">
<rect width="100%" height="100%" fill="#ffffff"/>
<style>.title{font:700 20px system-ui,sans-serif;fill:#111827}.axis{font:12px ui-monospace,SFMono-Regular,Menlo,monospace;fill:#374151}.legend{font:13px ui-monospace,SFMono-Regular,Menlo,monospace;fill:#111827}.grid{stroke:#e5e7eb;stroke-width:1}.frame{stroke:#374151;stroke-width:1.5;fill:none}.reference{stroke-dasharray:7 5;stroke-width:1.7}.reference-label{font:12px ui-monospace,SFMono-Regular,Menlo,monospace;fill:#374151}</style>
<text x="86" y="34" class="title">Sallen-Key low-pass response</text>
<line x1="86.00" y1="72" x2="86.00" y2="478" class="grid"/>
<text x="86.00" y="502" text-anchor="middle" class="axis">0</text>
<line x1="255.20" y1="72" x2="255.20" y2="478" class="grid"/>
<text x="255.20" y="502" text-anchor="middle" class="axis">0.00126</text>
<line x1="424.40" y1="72" x2="424.40" y2="478" class="grid"/>
<text x="424.40" y="502" text-anchor="middle" class="axis">0.00252</text>
<line x1="593.60" y1="72" x2="593.60" y2="478" class="grid"/>
<text x="593.60" y="502" text-anchor="middle" class="axis">0.00378</text>
<line x1="762.80" y1="72" x2="762.80" y2="478" class="grid"/>
<text x="762.80" y="502" text-anchor="middle" class="axis">0.00504</text>
<line x1="932.00" y1="72" x2="932.00" y2="478" class="grid"/>
<text x="932.00" y="502" text-anchor="middle" class="axis">0.0063</text>
<line x1="86" y1="478.00" x2="932" y2="478.00" class="grid"/>
<text x="74" y="482.00" text-anchor="end" class="axis">-1.423</text>
<line x1="86" y1="396.80" x2="932" y2="396.80" class="grid"/>
<text x="74" y="400.80" text-anchor="end" class="axis">-0.8537</text>
<line x1="86" y1="315.60" x2="932" y2="315.60" class="grid"/>
<text x="74" y="319.60" text-anchor="end" class="axis">-0.2846</text>
<line x1="86" y1="234.40" x2="932" y2="234.40" class="grid"/>
<text x="74" y="238.40" text-anchor="end" class="axis">0.2846</text>
<line x1="86" y1="153.20" x2="932" y2="153.20" class="grid"/>
<text x="74" y="157.20" text-anchor="end" class="axis">0.8537</text>
<line x1="86" y1="72.00" x2="932" y2="72.00" class="grid"/>
<text x="74" y="76.00" text-anchor="end" class="axis">1.423</text>
<rect x="86" y="72" width="846" height="406" class="frame"/>
<polyline points="86.00,275.00 91.37,211.94 96.74,277.99 102.11,234.90 107.49,157.22 112.86,220.49 118.23,201.39 123.60,115.24 128.97,172.92 134.34,180.09 139.71,91.83 145.09,141.12 150.46,174.77 155.83,90.45 161.20,128.60 166.57,186.81 171.94,111.73 177.31,136.16 182.69,214.91 188.06,153.28 193.43,161.79 198.80,255.32 204.17,210.06 209.54,201.05 214.91,302.30 220.29,275.00 225.66,247.70 231.03,348.95 236.40,339.94 241.77,294.68 247.14,388.21 252.51,396.72 257.89,335.09 263.26,413.84 268.63,438.27 274.00,363.19 279.37,421.40 284.74,459.55 290.11,375.23 295.49,408.88 300.86,458.17 306.23,369.91 311.60,377.08 316.97,434.76 322.34,348.61 327.71,329.51 333.09,392.78 338.46,315.10 343.83,272.01 349.20,338.06 354.57,275.00 359.94,211.94 365.31,277.99 370.69,234.90 376.06,157.22 381.43,220.49 386.80,201.39 392.17,115.24 397.54,172.92 402.91,180.09 408.29,91.83 413.66,141.12 419.03,174.77 424.40,90.45 429.77,128.60 435.14,186.81 440.51,111.73 445.89,136.16 451.26,214.91 456.63,153.28 462.00,161.79 467.37,255.32 472.74,210.06 478.11,201.05 483.49,302.30 488.86,275.00 494.23,247.70 499.60,348.95 504.97,339.94 510.34,294.68 515.71,388.21 521.09,396.72 526.46,335.09 531.83,413.84 537.20,438.27 542.57,363.19 547.94,421.40 553.31,459.55 558.69,375.23 564.06,408.88 569.43,458.17 574.80,369.91 580.17,377.08 585.54,434.76 590.91,348.61 596.29,329.51 601.66,392.78 607.03,315.10 612.40,272.01 617.77,338.06 623.14,275.00 628.51,211.94 633.89,277.99 639.26,234.90 644.63,157.22 650.00,220.49 655.37,201.39 660.74,115.24 666.11,172.92 671.49,180.09 676.86,91.83 682.23,141.12 687.60,174.77 692.97,90.45 698.34,128.60 703.71,186.81 709.09,111.73 714.46,136.16 719.83,214.91 725.20,153.28 730.57,161.79 735.94,255.32 741.31,210.06 746.69,201.05 752.06,302.30 757.43,275.00 762.80,247.70 768.17,348.95 773.54,339.94 778.91,294.68 784.29,388.21 789.66,396.72 795.03,335.09 800.40,413.84 805.77,438.27 811.14,363.19 816.51,421.40 821.89,459.55 827.26,375.23 832.63,408.88 838.00,458.17 843.37,369.91 848.74,377.08 854.11,434.76 859.49,348.61 864.86,329.51 870.23,392.78 875.60,315.10 880.97,272.01 886.34,338.06 891.71,275.00" fill="none" stroke="#2563eb" stroke-width="2.25" stroke-linejoin="round" stroke-linecap="round"/>
<polyline points="86.00,275.00 91.37,254.12 96.74,262.02 102.11,253.04 107.49,221.32 112.86,221.04 118.23,214.54 123.60,181.66 128.97,178.77 134.34,179.21 139.71,150.27 145.09,147.24 150.46,156.36 155.83,134.54 161.20,132.57 166.57,150.53 171.94,137.68 177.31,137.18 182.69,162.91 188.06,159.73 193.43,160.41 198.80,191.83 204.17,197.87 209.54,198.92 214.91,233.15 220.29,247.01 225.66,247.24 231.03,280.92 236.40,300.46 241.77,298.55 247.14,328.23 252.51,350.91 257.89,345.67 263.26,368.24 268.63,391.43 274.00,382.08 279.37,395.10 284.74,416.44 290.11,402.79 295.49,404.81 300.86,422.48 306.23,405.07 311.60,395.80 316.97,408.70 322.34,388.80 327.71,369.17 333.09,376.99 338.46,356.50 343.83,328.52 349.20,331.68 354.57,312.91 359.94,279.48 365.31,278.99 370.69,264.39 376.06,228.91 381.43,226.12 386.80,217.93 392.17,183.93 397.54,180.29 402.91,180.22 408.29,150.95 413.66,147.70 419.03,156.66 424.40,134.74 429.77,132.71 435.14,150.62 440.51,137.74 445.89,137.22 451.26,162.94 456.63,159.74 462.00,160.42 467.37,191.84 472.74,197.88 478.11,198.93 483.49,233.15 488.86,247.01 494.23,247.24 499.60,280.92 504.97,300.46 510.34,298.55 515.71,328.23 521.09,350.91 526.46,345.67 531.83,368.24 537.20,391.43 542.57,382.08 547.94,395.10 553.31,416.44 558.69,402.79 564.06,404.81 569.43,422.48 574.80,405.07 580.17,395.80 585.54,408.70 590.91,388.80 596.29,369.17 601.66,376.99 607.03,356.50 612.40,328.52 617.77,331.68 623.14,312.91 628.51,279.48 633.89,278.99 639.26,264.39 644.63,228.91 650.00,226.12 655.37,217.93 660.74,183.93 666.11,180.29 671.49,180.22 676.86,150.95 682.23,147.70 687.60,156.66 692.97,134.74 698.34,132.71 703.71,150.62 709.09,137.74 714.46,137.22 719.83,162.94 725.20,159.74 730.57,160.42 735.94,191.84 741.31,197.88 746.69,198.93 752.06,233.15 757.43,247.01 762.80,247.24 768.17,280.92 773.54,300.46 778.91,298.55 784.29,328.23 789.66,350.91 795.03,345.67 800.40,368.24 805.77,391.43 811.14,382.08 816.51,395.10 821.89,416.44 827.26,402.79 832.63,404.81 838.00,422.48 843.37,405.07 848.74,395.80 854.11,408.70 859.49,388.80 864.86,369.17 870.23,376.99 875.60,356.50 880.97,328.52 886.34,331.68 891.71,312.91" fill="none" stroke="#dc2626" stroke-width="2.25" stroke-linejoin="round" stroke-linecap="round"/>
<line x1="86" y1="521" x2="114" y2="521" stroke="#2563eb" stroke-width="3"/>
<text x="122" y="526" class="legend">V(in)</text>
<line x1="276" y1="521" x2="304" y2="521" stroke="#dc2626" stroke-width="3"/>
<text x="312" y="526" class="legend">V(out)</text>
<text x="509.00" y="546" text-anchor="middle" class="axis">time</text>
<text x="22" y="275.00" text-anchor="middle" class="axis" transform="rotate(-90 22 275.00)">signal</text>
</svg>