<svg xmlns="http://www.w3.org/2000/svg" viewBox="0 0 960 560" width="960" height="560" role="img">
<rect width="100%" height="100%" fill="#ffffff"/>
<style>.title{font:700 20px system-ui,sans-serif;fill:#111827}.axis{font:12px ui-monospace,SFMono-Regular,Menlo,monospace;fill:#374151}.legend{font:13px ui-monospace,SFMono-Regular,Menlo,monospace;fill:#111827}.grid{stroke:#e5e7eb;stroke-width:1}.frame{stroke:#374151;stroke-width:1.5;fill:none}.reference{stroke-dasharray:7 5;stroke-width:1.7}.reference-label{font:12px ui-monospace,SFMono-Regular,Menlo,monospace;fill:#374151}</style>
<text x="86" y="34" class="title">Sallen-Key high-pass response</text>
<line x1="86.00" y1="72" x2="86.00" y2="478" class="grid"/>
<text x="86.00" y="502" text-anchor="middle" class="axis">0</text>
<line x1="255.20" y1="72" x2="255.20" y2="478" class="grid"/>
<text x="255.20" y="502" text-anchor="middle" class="axis">0.00126</text>
<line x1="424.40" y1="72" x2="424.40" y2="478" class="grid"/>
<text x="424.40" y="502" text-anchor="middle" class="axis">0.00252</text>
<line x1="593.60" y1="72" x2="593.60" y2="478" class="grid"/>
<text x="593.60" y="502" text-anchor="middle" class="axis">0.00378</text>
<line x1="762.80" y1="72" x2="762.80" y2="478" class="grid"/>
<text x="762.80" y="502" text-anchor="middle" class="axis">0.00504</text>
<line x1="932.00" y1="72" x2="932.00" y2="478" class="grid"/>
<text x="932.00" y="502" text-anchor="middle" class="axis">0.0063</text>
<line x1="86" y1="478.00" x2="932" y2="478.00" class="grid"/>
<text x="74" y="482.00" text-anchor="end" class="axis">-1.423</text>
<line x1="86" y1="396.80" x2="932" y2="396.80" class="grid"/>
<text x="74" y="400.80" text-anchor="end" class="axis">-0.8537</text>
<line x1="86" y1="315.60" x2="932" y2="315.60" class="grid"/>
<text x="74" y="319.60" text-anchor="end" class="axis">-0.2846</text>
<line x1="86" y1="234.40" x2="932" y2="234.40" class="grid"/>
<text x="74" y="238.40" text-anchor="end" class="axis">0.2846</text>
<line x1="86" y1="153.20" x2="932" y2="153.20" class="grid"/>
<text x="74" y="157.20" text-anchor="end" class="axis">0.8537</text>
<line x1="86" y1="72.00" x2="932" y2="72.00" class="grid"/>
<text x="74" y="76.00" text-anchor="end" class="axis">1.423</text>
<rect x="86" y="72" width="846" height="406" class="frame"/>
<polyline points="86.00,275.00 91.37,211.94 96.74,277.99 102.11,234.90 107.49,157.22 112.86,220.49 118.23,201.39 123.60,115.24 128.97,172.92 134.34,180.09 139.71,91.83 145.09,141.12 150.46,174.77 155.83,90.45 161.20,128.60 166.57,186.81 171.94,111.73 177.31,136.16 182.69,214.91 188.06,153.28 193.43,161.79 198.80,255.32 204.17,210.06 209.54,201.05 214.91,302.30 220.29,275.00 225.66,247.70 231.03,348.95 236.40,339.94 241.77,294.68 247.14,388.21 252.51,396.72 257.89,335.09 263.26,413.84 268.63,438.27 274.00,363.19 279.37,421.40 284.74,459.55 290.11,375.23 295.49,408.88 300.86,458.17 306.23,369.91 311.60,377.08 316.97,434.76 322.34,348.61 327.71,329.51 333.09,392.78 338.46,315.10 343.83,272.01 349.20,338.06 354.57,275.00 359.94,211.94 365.31,277.99 370.69,234.90 376.06,157.22 381.43,220.49 386.80,201.39 392.17,115.24 397.54,172.92 402.91,180.09 408.29,91.83 413.66,141.12 419.03,174.77 424.40,90.45 429.77,128.60 435.14,186.81 440.51,111.73 445.89,136.16 451.26,214.91 456.63,153.28 462.00,161.79 467.37,255.32 472.74,210.06 478.11,201.05 483.49,302.30 488.86,275.00 494.23,247.70 499.60,348.95 504.97,339.94 510.34,294.68 515.71,388.21 521.09,396.72 526.46,335.09 531.83,413.84 537.20,438.27 542.57,363.19 547.94,421.40 553.31,459.55 558.69,375.23 564.06,408.88 569.43,458.17 574.80,369.91 580.17,377.08 585.54,434.76 590.91,348.61 596.29,329.51 601.66,392.78 607.03,315.10 612.40,272.01 617.77,338.06 623.14,275.00 628.51,211.94 633.89,277.99 639.26,234.90 644.63,157.22 650.00,220.49 655.37,201.39 660.74,115.24 666.11,172.92 671.49,180.09 676.86,91.83 682.23,141.12 687.60,174.77 692.97,90.45 698.34,128.60 703.71,186.81 709.09,111.73 714.46,136.16 719.83,214.91 725.20,153.28 730.57,161.79 735.94,255.32 741.31,210.06 746.69,201.05 752.06,302.30 757.43,275.00 762.80,247.70 768.17,348.95 773.54,339.94 778.91,294.68 784.29,388.21 789.66,396.72 795.03,335.09 800.40,413.84 805.77,438.27 811.14,363.19 816.51,421.40 821.89,459.55 827.26,375.23 832.63,408.88 838.00,458.17 843.37,369.91 848.74,377.08 854.11,434.76 859.49,348.61 864.86,329.51 870.23,392.78 875.60,315.10 880.97,272.01 886.34,338.06 891.71,275.00" fill="none" stroke="#2563eb" stroke-width="2.25" stroke-linejoin="round" stroke-linecap="round"/>
<polyline points="86.00,275.00 91.37,232.82 96.74,290.97 102.11,256.86 107.49,210.90 112.86,274.45 118.23,261.86 123.60,208.58 128.97,269.16 134.34,275.89 139.71,216.55 145.09,268.88 150.46,293.42 155.83,230.92 161.20,271.03 166.57,311.28 171.94,249.05 177.31,273.98 182.69,326.99 188.06,268.56 193.43,276.38 198.80,338.48 204.17,287.19 209.54,277.12 214.91,344.15 220.29,302.99 225.66,275.46 231.03,343.04 236.40,314.48 241.77,271.14 247.14,334.98 252.51,320.81 257.89,264.42 263.26,320.60 268.63,321.84 274.00,256.11 279.37,301.30 284.74,318.11 290.11,247.43 295.49,279.07 300.86,310.70 306.23,239.84 311.60,256.27 316.97,301.06 322.34,234.80 327.71,235.34 333.09,290.79 338.46,233.60 343.83,218.48 349.20,281.38 354.57,237.09 359.94,207.46 365.31,274.01 370.69,245.51 376.06,203.31 381.43,269.37 386.80,258.46 392.17,206.31 397.54,267.64 402.91,274.87 408.29,215.87 413.66,268.42 419.03,293.11 424.40,230.71 429.77,270.89 435.14,311.19 440.51,248.99 445.89,273.94 451.26,326.97 456.63,268.54 462.00,276.37 467.37,338.48 472.74,287.19 478.11,277.12 483.49,344.15 488.86,302.99 494.23,275.46 499.60,343.04 504.97,314.48 510.34,271.14 515.71,334.97 521.09,320.81 526.46,264.42 531.83,320.60 537.20,321.84 542.57,256.11 547.94,301.30 553.31,318.11 558.69,247.43 564.06,279.07 569.43,310.70 574.80,239.84 580.17,256.27 585.54,301.06 590.91,234.80 596.29,235.34 601.66,290.79 607.03,233.60 612.40,218.48 617.77,281.38 623.14,237.09 628.51,207.46 633.89,274.01 639.26,245.51 644.63,203.31 650.00,269.37 655.37,258.46 660.74,206.31 666.11,267.64 671.49,274.87 676.86,215.87 682.23,268.42 687.60,293.11 692.97,230.71 698.34,270.89 703.71,311.19 709.09,248.99 714.46,273.94 719.83,326.97 725.20,268.54 730.57,276.37 735.94,338.48 741.31,287.19 746.69,277.12 752.06,344.15 757.43,302.99 762.80,275.46 768.17,343.04 773.54,314.48 778.91,271.14 784.29,334.97 789.66,320.81 795.03,264.42 800.40,320.60 805.77,321.84 811.14,256.11 816.51,301.30 821.89,318.11 827.26,247.43 832.63,279.07 838.00,310.70 843.37,239.84 848.74,256.27 854.11,301.06 859.49,234.80 864.86,235.34 870.23,290.79 875.60,233.60 880.97,218.48 886.34,281.38 891.71,237.09" fill="none" stroke="#dc2626" stroke-width="2.25" stroke-linejoin="round" stroke-linecap="round"/>
<line x1="86" y1="521" x2="114" y2="521" stroke="#2563eb" stroke-width="3"/>
<text x="122" y="526" class="legend">V(in)</text>
<line x1="276" y1="521" x2="304" y2="521" stroke="#dc2626" stroke-width="3"/>
<text x="312" y="526" class="legend">V(out)</text>
<text x="509.00" y="546" text-anchor="middle" class="axis">time</text>
<text x="22" y="275.00" text-anchor="middle" class="axis" transform="rotate(-90 22 275.00)">signal</text>
</svg>