<svg xmlns="http://www.w3.org/2000/svg" viewBox="0 0 960 560" width="960" height="560" role="img">
<rect width="100%" height="100%" fill="#ffffff"/>
<style>.title{font:700 20px system-ui,sans-serif;fill:#111827}.axis{font:12px ui-monospace,SFMono-Regular,Menlo,monospace;fill:#374151}.legend{font:13px ui-monospace,SFMono-Regular,Menlo,monospace;fill:#111827}.grid{stroke:#e5e7eb;stroke-width:1}.frame{stroke:#374151;stroke-width:1.5;fill:none}</style>
<text x="86" y="34" class="title">Noisy temperature switch with hysteresis</text>
<line x1="86.00" y1="72" x2="86.00" y2="478" class="grid"/>
<text x="86.00" y="502" text-anchor="middle" class="axis">0</text>
<line x1="255.20" y1="72" x2="255.20" y2="478" class="grid"/>
<text x="255.20" y="502" text-anchor="middle" class="axis">0.042</text>
<line x1="424.40" y1="72" x2="424.40" y2="478" class="grid"/>
<text x="424.40" y="502" text-anchor="middle" class="axis">0.084</text>
<line x1="593.60" y1="72" x2="593.60" y2="478" class="grid"/>
<text x="593.60" y="502" text-anchor="middle" class="axis">0.126</text>
<line x1="762.80" y1="72" x2="762.80" y2="478" class="grid"/>
<text x="762.80" y="502" text-anchor="middle" class="axis">0.168</text>
<line x1="932.00" y1="72" x2="932.00" y2="478" class="grid"/>
<text x="932.00" y="502" text-anchor="middle" class="axis">0.21</text>
<line x1="86" y1="478.00" x2="932" y2="478.00" class="grid"/>
<text x="74" y="482.00" text-anchor="end" class="axis">-0.24</text>
<line x1="86" y1="396.80" x2="932" y2="396.80" class="grid"/>
<text x="74" y="400.80" text-anchor="end" class="axis">0.816</text>
<line x1="86" y1="315.60" x2="932" y2="315.60" class="grid"/>
<text x="74" y="319.60" text-anchor="end" class="axis">1.872</text>
<line x1="86" y1="234.40" x2="932" y2="234.40" class="grid"/>
<text x="74" y="238.40" text-anchor="end" class="axis">2.928</text>
<line x1="86" y1="153.20" x2="932" y2="153.20" class="grid"/>
<text x="74" y="157.20" text-anchor="end" class="axis">3.984</text>
<line x1="86" y1="72.00" x2="932" y2="72.00" class="grid"/>
<text x="74" y="76.00" text-anchor="end" class="axis">5.04</text>
<rect x="86" y="72" width="846" height="406" class="frame"/>
<polyline points="86.00,305.76 88.01,299.06 90.03,307.68 92.04,306.84 94.06,296.52 96.07,301.53 98.09,306.53 100.10,296.22 102.11,295.38 104.13,304.00 106.14,297.30 108.16,290.60 110.17,299.22 112.19,298.38 114.20,288.07 116.21,293.07 118.23,298.07 120.24,287.76 122.26,286.92 124.27,295.54 126.29,288.84 128.30,282.14 130.31,290.77 132.33,289.92 134.34,279.61 136.36,284.61 138.37,289.62 140.39,279.30 142.40,278.46 144.41,287.08 146.43,280.38 148.44,273.69 150.46,282.31 152.47,281.46 154.49,271.15 156.50,276.15 158.51,281.16 160.53,270.85 162.54,270.00 164.56,278.62 166.57,271.92 168.59,265.23 170.60,273.85 172.61,273.00 174.63,262.69 176.64,267.70 178.66,272.70 180.67,262.39 182.69,261.54 184.70,270.16 186.71,263.47 188.73,256.77 190.74,265.39 192.76,264.54 194.77,254.23 196.79,259.24 198.80,264.24 200.81,253.93 202.83,253.08 204.84,261.70 206.86,255.01 208.87,248.31 210.89,256.93 212.90,256.09 214.91,245.77 216.93,250.78 218.94,255.78 220.96,245.47 222.97,244.63 224.99,253.25 227.00,246.55 229.01,239.85 231.03,248.47 233.04,247.63 235.06,237.32 237.07,242.32 239.09,247.32 241.10,237.01 243.11,236.17 245.13,244.79 247.14,238.09 249.16,231.39 251.17,240.02 253.19,239.17 255.20,228.86 257.21,233.86 259.23,238.87 261.24,228.55 263.26,227.71 265.27,236.33 267.29,229.63 269.30,222.94 271.31,231.56 273.33,230.71 275.34,220.40 277.36,225.40 279.37,230.41 281.39,220.10 283.40,219.25 285.41,227.87 287.43,221.17 289.44,216.17 291.46,226.48 293.47,227.33 295.49,218.71 297.50,225.40 299.51,232.10 301.53,223.48 303.54,224.33 305.56,234.64 307.57,229.63 309.59,224.63 311.60,234.94 313.61,235.79 315.63,227.17 317.64,233.86 319.66,240.56 321.67,231.94 323.69,232.78 325.70,243.10 327.71,238.09 329.73,233.09 331.74,243.40 333.76,244.24 335.77,235.62 337.79,242.32 339.80,249.02 341.81,240.40 343.83,241.24 345.84,251.55 347.86,246.55 349.87,241.54 351.89,251.86 353.90,252.70 355.91,244.08 357.93,250.78 359.94,257.47 361.96,248.85 363.97,249.70 365.99,260.01 368.00,255.01 370.01,250.00 372.03,260.32 374.04,261.16 376.06,252.54 378.07,259.24 380.09,265.93 382.10,257.31 384.11,258.16 386.13,268.47 388.14,263.47 390.16,258.46 392.17,268.77 394.19,269.62 396.20,261.00 398.21,267.70 400.23,274.39 402.24,265.77 404.26,266.62 406.27,276.93 408.29,271.92 410.30,266.92 412.31,277.23 414.33,278.08 416.34,269.46 418.36,276.15 420.37,282.85 422.39,274.23 424.40,275.08 426.41,285.39 428.43,280.38 430.44,275.38 432.46,285.69 434.47,286.54 436.49,277.92 438.50,284.61 440.51,291.31 442.53,282.69 444.54,283.53 446.56,293.85 448.57,288.84 450.59,283.84 452.60,294.15 454.61,294.99 456.63,286.37 458.64,293.07 460.66,299.77 462.67,291.15 464.69,291.99 466.70,302.30 468.71,297.30 470.73,292.29 472.74,302.61 474.76,303.45 476.77,294.83 478.79,301.53 480.80,308.22 482.81,299.60 484.83,300.45 486.84,310.76 488.86,305.76 490.87,299.06 492.89,307.68 494.90,306.84 496.91,296.52 498.93,301.53 500.94,306.53 502.96,296.22 504.97,295.38 506.99,304.00 509.00,297.30 511.01,290.60 513.03,299.22 515.04,298.38 517.06,288.07 519.07,293.07 521.09,298.07 523.10,287.76 525.11,286.92 527.13,295.54 529.14,288.84 531.16,282.14 533.17,290.77 535.19,289.92 537.20,279.61 539.21,284.61 541.23,289.62 543.24,279.30 545.26,278.46 547.27,287.08 549.29,280.38 551.30,273.69 553.31,282.31 555.33,281.46 557.34,271.15 559.36,276.15 561.37,281.16 563.39,270.85 565.40,270.00 567.41,278.62 569.43,271.92 571.44,265.23 573.46,273.85 575.47,273.00 577.49,262.69 579.50,267.70 581.51,272.70 583.53,262.39 585.54,261.54 587.56,270.16 589.57,263.47 591.59,256.77 593.60,265.39 595.61,264.54 597.63,254.23 599.64,259.24 601.66,264.24 603.67,253.93 605.69,253.08 607.70,261.70 609.71,255.01 611.73,248.31 613.74,256.93 615.76,256.09 617.77,245.77 619.79,250.78 621.80,255.78 623.81,245.47 625.83,244.63 627.84,253.25 629.86,246.55 631.87,239.85 633.89,248.47 635.90,247.63 637.91,237.32 639.93,242.32 641.94,247.32 643.96,237.01 645.97,236.17 647.99,244.79 650.00,238.09 652.01,231.39 654.03,240.02 656.04,239.17 658.06,228.86 660.07,233.86 662.09,238.87 664.10,228.55 666.11,227.71 668.13,236.33 670.14,229.63 672.16,222.94 674.17,231.56 676.19,230.71 678.20,220.40 680.21,225.40 682.23,230.41 684.24,220.10 686.26,219.25 688.27,227.87 690.29,221.17 692.30,216.17 694.31,226.48 696.33,227.33 698.34,218.71 700.36,225.40 702.37,232.10 704.39,223.48 706.40,224.33 708.41,234.64 710.43,229.63 712.44,224.63 714.46,234.94 716.47,235.79 718.49,227.17 720.50,233.86 722.51,240.56 724.53,231.94 726.54,232.78 728.56,243.10 730.57,238.09 732.59,233.09 734.60,243.40 736.61,244.24 738.63,235.62 740.64,242.32 742.66,249.02 744.67,240.40 746.69,241.24 748.70,251.55 750.71,246.55 752.73,241.54 754.74,251.86 756.76,252.70 758.77,244.08 760.79,250.78 762.80,257.47 764.81,248.85 766.83,249.70 768.84,260.01 770.86,255.01 772.87,250.00 774.89,260.32 776.90,261.16 778.91,252.54 780.93,259.24 782.94,265.93 784.96,257.31 786.97,258.16 788.99,268.47 791.00,263.47 793.01,258.46 795.03,268.77 797.04,269.62 799.06,261.00 801.07,267.70 803.09,274.39 805.10,265.77 807.11,266.62 809.13,276.93 811.14,271.92 813.16,266.92 815.17,277.23 817.19,278.08 819.20,269.46 821.21,276.15 823.23,282.85 825.24,274.23 827.26,275.08 829.27,285.39 831.29,280.38 833.30,275.38 835.31,285.69 837.33,286.54 839.34,277.92 841.36,284.61 843.37,291.31 845.39,282.69 847.40,283.53 849.41,293.85 851.43,288.84 853.44,283.84 855.46,294.15 857.47,294.99 859.49,286.37 861.50,293.07 863.51,299.77 865.53,291.15 867.54,291.99 869.56,302.30 871.57,297.30 873.59,292.29 875.60,302.61 877.61,303.45 879.63,294.83 881.64,301.53 883.66,308.22 885.67,299.60 887.69,300.45 889.70,310.76 891.71,305.76" fill="none" stroke="#2563eb" stroke-width="2.25" stroke-linejoin="round" stroke-linecap="round"/>
<polyline points="86.00,459.55 88.01,443.35 90.03,429.66 92.04,417.26 94.06,405.08 96.07,394.63 98.09,385.74 100.10,376.70 102.11,368.50 104.13,361.99 106.14,355.46 108.16,348.91 110.17,343.90 112.19,339.30 114.20,334.13 116.21,329.99 118.23,326.77 120.24,322.83 122.26,319.21 124.27,316.82 126.29,314.00 128.30,310.78 130.31,308.76 132.33,306.86 134.34,304.11 136.36,302.14 138.37,300.88 140.39,298.70 142.40,296.66 144.41,295.69 146.43,294.15 148.44,292.08 150.46,291.09 152.47,290.12 154.49,288.21 156.50,286.99 158.51,286.40 160.53,284.83 162.54,283.34 164.56,282.86 166.57,281.76 168.59,280.09 170.60,279.46 172.61,278.81 174.63,277.18 176.64,276.22 178.66,275.87 180.67,274.51 182.69,273.20 184.70,272.89 186.71,271.94 188.73,270.41 190.74,269.90 192.76,269.36 194.77,267.84 196.79,266.97 198.80,266.69 200.81,265.40 202.83,264.16 204.84,263.91 206.86,263.01 208.87,261.53 210.89,261.07 212.90,260.56 214.91,259.07 216.93,258.23 218.94,257.99 220.96,256.72 222.97,255.50 224.99,255.27 227.00,254.39 229.01,252.93 231.03,252.48 233.04,251.99 235.06,250.51 237.07,249.68 239.09,249.44 241.10,248.19 243.11,246.98 245.13,246.75 247.14,245.88 249.16,244.42 251.17,243.97 253.19,243.49 255.20,242.01 257.21,241.19 259.23,240.96 261.24,239.70 263.26,238.49 265.27,238.27 267.29,237.40 269.30,235.94 271.31,235.50 273.33,235.02 275.34,233.54 277.36,232.72 279.37,232.49 281.39,231.24 283.40,230.03 285.41,229.81 287.43,228.94 289.44,227.65 291.46,227.53 293.47,227.51 295.49,226.62 297.50,226.50 299.51,227.06 301.53,226.70 303.54,226.46 305.56,227.29 307.57,227.52 309.59,227.23 311.60,228.01 313.61,228.79 315.63,228.63 317.64,229.16 319.66,230.31 321.67,230.47 323.69,230.71 325.70,231.96 327.71,232.58 329.73,232.63 331.74,233.71 333.76,234.78 335.77,234.86 337.79,235.61 339.80,236.97 341.81,237.31 343.83,237.71 345.84,239.11 347.86,239.86 349.87,240.03 351.89,241.22 353.90,242.38 355.91,242.55 357.93,243.38 359.94,244.80 361.96,245.21 363.97,245.67 365.99,247.11 368.00,247.91 370.01,248.12 372.03,249.35 374.04,250.54 376.06,250.75 378.07,251.60 380.09,253.05 382.10,253.48 384.11,253.95 386.13,255.42 388.14,256.23 390.16,256.45 392.17,257.70 394.19,258.90 396.20,259.11 398.21,259.98 400.23,261.43 402.24,261.87 404.26,262.35 406.27,263.82 408.29,264.64 410.30,264.87 412.31,266.12 414.33,267.32 416.34,267.54 418.36,268.41 420.37,269.87 422.39,270.31 424.40,270.79 426.41,272.26 428.43,273.08 430.44,273.31 432.46,274.56 434.47,275.77 436.49,275.99 438.50,276.86 440.51,278.32 442.53,278.76 444.54,279.24 446.56,280.71 448.57,281.53 450.59,281.77 452.60,283.02 454.61,284.22 456.63,284.44 458.64,285.31 460.66,286.77 462.67,287.21 464.69,287.69 466.70,289.17 468.71,289.99 470.73,290.22 472.74,291.47 474.76,292.68 476.77,292.90 478.79,293.77 480.80,295.23 482.81,295.67 484.83,296.15 486.84,297.63 488.86,298.45 490.87,298.51 492.89,299.43 494.90,300.18 496.91,299.81 498.93,299.99 500.94,300.65 502.96,300.20 504.97,299.71 506.99,300.15 509.00,299.86 511.01,298.92 513.03,298.95 515.04,298.90 517.06,297.80 519.07,297.33 521.09,297.40 523.10,296.43 525.11,295.47 527.13,295.48 529.14,294.81 531.16,293.53 533.17,293.25 535.19,292.91 537.20,291.57 539.21,290.87 541.23,290.74 543.24,289.59 545.26,288.46 547.27,288.32 549.29,287.52 551.30,286.13 553.31,285.74 555.33,285.31 557.34,283.88 559.36,283.10 561.37,282.90 563.39,281.69 565.40,280.51 567.41,280.32 569.43,279.47 571.44,278.03 573.46,277.61 575.47,277.15 577.49,275.69 579.50,274.88 581.51,274.66 583.53,273.42 585.54,272.22 587.56,272.01 589.57,271.15 591.59,269.70 593.60,269.27 595.61,268.79 597.63,267.32 599.64,266.50 601.66,266.28 603.67,265.03 605.69,263.82 607.70,263.61 609.71,262.74 611.73,261.29 613.74,260.85 615.76,260.37 617.77,258.89 619.79,258.07 621.80,257.84 623.81,256.59 625.83,255.39 627.84,255.17 629.86,254.30 631.87,252.84 633.89,252.40 635.90,251.92 637.91,250.45 639.93,249.63 641.94,249.39 643.96,248.14 645.97,246.94 647.99,246.72 650.00,245.85 652.01,244.39 654.03,243.95 656.04,243.47 658.06,241.99 660.07,241.17 662.09,240.94 664.10,239.69 666.11,238.48 668.13,238.26 670.14,237.39 672.16,235.93 674.17,235.49 676.19,235.01 678.20,233.53 680.21,232.71 682.23,232.48 684.24,231.23 686.26,230.02 688.27,229.80 690.29,228.93 692.30,227.65 694.31,227.53 696.33,227.51 698.34,226.62 700.36,226.50 702.37,227.06 704.39,226.70 706.40,226.46 708.41,227.29 710.43,227.52 712.44,227.23 714.46,228.01 716.47,228.79 718.49,228.63 720.50,229.16 722.51,230.31 724.53,230.47 726.54,230.71 728.56,231.96 730.57,232.58 732.59,232.63 734.60,233.71 736.61,234.78 738.63,234.86 740.64,235.61 742.66,236.97 744.67,237.31 746.69,237.71 748.70,239.11 750.71,239.86 752.73,240.03 754.74,241.22 756.76,242.38 758.77,242.55 760.79,243.38 762.80,244.80 764.81,245.21 766.83,245.67 768.84,247.11 770.86,247.91 772.87,248.12 774.89,249.35 776.90,250.54 778.91,250.75 780.93,251.60 782.94,253.05 784.96,253.48 786.97,253.95 788.99,255.42 791.00,256.23 793.01,256.45 795.03,257.70 797.04,258.90 799.06,259.11 801.07,259.98 803.09,261.43 805.10,261.87 807.11,262.35 809.13,263.82 811.14,264.64 813.16,264.87 815.17,266.12 817.19,267.32 819.20,267.54 821.21,268.41 823.23,269.87 825.24,270.31 827.26,270.79 829.27,272.26 831.29,273.08 833.30,273.31 835.31,274.56 837.33,275.77 839.34,275.99 841.36,276.86 843.37,278.32 845.39,278.76 847.40,279.24 849.41,280.71 851.43,281.53 853.44,281.77 855.46,283.02 857.47,284.22 859.49,284.44 861.50,285.31 863.51,286.77 865.53,287.21 867.54,287.69 869.56,289.17 871.57,289.99 873.59,290.22 875.60,291.47 877.61,292.68 879.63,292.90 881.64,293.77 883.66,295.23 885.67,295.67 887.69,296.15 889.70,297.63 891.71,298.45" fill="none" stroke="#dc2626" stroke-width="2.25" stroke-linejoin="round" stroke-linecap="round"/>
<polyline points="86.00,444.17 88.01,444.17 90.03,444.17 92.04,444.17 94.06,444.17 96.07,444.17 98.09,444.17 100.10,444.17 102.11,444.17 104.13,444.17 106.14,444.17 108.16,444.17 110.17,444.17 112.19,444.17 114.20,444.17 116.21,444.17 118.23,444.17 120.24,444.17 122.26,444.17 124.27,444.17 126.29,444.17 128.30,444.17 130.31,444.17 132.33,444.17 134.34,444.17 136.36,444.17 138.37,444.17 140.39,444.17 142.40,444.17 144.41,444.17 146.43,444.17 148.44,444.17 150.46,444.17 152.47,444.17 154.49,444.17 156.50,444.17 158.51,444.17 160.53,444.17 162.54,444.17 164.56,444.17 166.57,444.17 168.59,444.17 170.60,444.17 172.61,444.17 174.63,444.17 176.64,444.17 178.66,444.17 180.67,444.17 182.69,444.17 184.70,444.17 186.71,444.17 188.73,444.17 190.74,444.17 192.76,444.17 194.77,444.17 196.79,444.17 198.80,444.17 200.81,444.17 202.83,444.17 204.84,444.17 206.86,444.17 208.87,444.17 210.89,444.17 212.90,444.17 214.91,444.17 216.93,444.17 218.94,444.17 220.96,444.17 222.97,444.17 224.99,444.17 227.00,444.17 229.01,444.17 231.03,444.17 233.04,444.17 235.06,444.17 237.07,444.17 239.09,90.45 241.10,90.45 243.11,90.45 245.13,90.45 247.14,90.45 249.16,90.45 251.17,90.45 253.19,90.45 255.20,90.45 257.21,90.45 259.23,90.45 261.24,90.45 263.26,90.45 265.27,90.45 267.29,90.45 269.30,90.45 271.31,90.45 273.33,90.45 275.34,90.45 277.36,90.45 279.37,90.45 281.39,90.45 283.40,90.45 285.41,90.45 287.43,90.45 289.44,90.45 291.46,90.45 293.47,90.45 295.49,90.45 297.50,90.45 299.51,90.45 301.53,90.45 303.54,90.45 305.56,90.45 307.57,90.45 309.59,90.45 311.60,90.45 313.61,90.45 315.63,90.45 317.64,90.45 319.66,90.45 321.67,90.45 323.69,90.45 325.70,90.45 327.71,90.45 329.73,90.45 331.74,90.45 333.76,90.45 335.77,90.45 337.79,90.45 339.80,90.45 341.81,90.45 343.83,90.45 345.84,90.45 347.86,90.45 349.87,90.45 351.89,90.45 353.90,90.45 355.91,90.45 357.93,90.45 359.94,90.45 361.96,90.45 363.97,90.45 365.99,90.45 368.00,90.45 370.01,90.45 372.03,90.45 374.04,90.45 376.06,90.45 378.07,90.45 380.09,90.45 382.10,90.45 384.11,90.45 386.13,90.45 388.14,90.45 390.16,90.45 392.17,90.45 394.19,90.45 396.20,90.45 398.21,90.45 400.23,90.45 402.24,90.45 404.26,90.45 406.27,90.45 408.29,90.45 410.30,90.45 412.31,90.45 414.33,90.45 416.34,90.45 418.36,90.45 420.37,90.45 422.39,90.45 424.40,90.45 426.41,90.45 428.43,90.45 430.44,90.45 432.46,90.45 434.47,90.45 436.49,90.45 438.50,90.45 440.51,90.45 442.53,90.45 444.54,90.45 446.56,90.45 448.57,90.45 450.59,90.45 452.60,90.45 454.61,90.45 456.63,90.45 458.64,444.17 460.66,444.17 462.67,444.17 464.69,444.17 466.70,444.17 468.71,444.17 470.73,444.17 472.74,444.17 474.76,444.17 476.77,444.17 478.79,444.17 480.80,444.17 482.81,444.17 484.83,444.17 486.84,444.17 488.86,444.17 490.87,444.17 492.89,444.17 494.90,444.17 496.91,444.17 498.93,444.17 500.94,444.17 502.96,444.17 504.97,444.17 506.99,444.17 509.00,444.17 511.01,444.17 513.03,444.17 515.04,444.17 517.06,444.17 519.07,444.17 521.09,444.17 523.10,444.17 525.11,444.17 527.13,444.17 529.14,444.17 531.16,444.17 533.17,444.17 535.19,444.17 537.20,444.17 539.21,444.17 541.23,444.17 543.24,444.17 545.26,444.17 547.27,444.17 549.29,444.17 551.30,444.17 553.31,444.17 555.33,444.17 557.34,444.17 559.36,444.17 561.37,444.17 563.39,444.17 565.40,444.17 567.41,444.17 569.43,444.17 571.44,444.17 573.46,444.17 575.47,444.17 577.49,444.17 579.50,444.17 581.51,444.17 583.53,444.17 585.54,444.17 587.56,444.17 589.57,444.17 591.59,444.17 593.60,444.17 595.61,444.17 597.63,444.17 599.64,444.17 601.66,444.17 603.67,444.17 605.69,444.17 607.70,444.17 609.71,444.17 611.73,444.17 613.74,444.17 615.76,444.17 617.77,444.17 619.79,444.17 621.80,444.17 623.81,444.17 625.83,444.17 627.84,444.17 629.86,444.17 631.87,444.17 633.89,444.17 635.90,444.17 637.91,444.17 639.93,444.17 641.94,90.45 643.96,90.45 645.97,90.45 647.99,90.45 650.00,90.45 652.01,90.45 654.03,90.45 656.04,90.45 658.06,90.45 660.07,90.45 662.09,90.45 664.10,90.45 666.11,90.45 668.13,90.45 670.14,90.45 672.16,90.45 674.17,90.45 676.19,90.45 678.20,90.45 680.21,90.45 682.23,90.45 684.24,90.45 686.26,90.45 688.27,90.45 690.29,90.45 692.30,90.45 694.31,90.45 696.33,90.45 698.34,90.45 700.36,90.45 702.37,90.45 704.39,90.45 706.40,90.45 708.41,90.45 710.43,90.45 712.44,90.45 714.46,90.45 716.47,90.45 718.49,90.45 720.50,90.45 722.51,90.45 724.53,90.45 726.54,90.45 728.56,90.45 730.57,90.45 732.59,90.45 734.60,90.45 736.61,90.45 738.63,90.45 740.64,90.45 742.66,90.45 744.67,90.45 746.69,90.45 748.70,90.45 750.71,90.45 752.73,90.45 754.74,90.45 756.76,90.45 758.77,90.45 760.79,90.45 762.80,90.45 764.81,90.45 766.83,90.45 768.84,90.45 770.86,90.45 772.87,90.45 774.89,90.45 776.90,90.45 778.91,90.45 780.93,90.45 782.94,90.45 784.96,90.45 786.97,90.45 788.99,90.45 791.00,90.45 793.01,90.45 795.03,90.45 797.04,90.45 799.06,90.45 801.07,90.45 803.09,90.45 805.10,90.45 807.11,90.45 809.13,90.45 811.14,90.45 813.16,90.45 815.17,90.45 817.19,90.45 819.20,90.45 821.21,90.45 823.23,90.45 825.24,90.45 827.26,90.45 829.27,90.45 831.29,90.45 833.30,90.45 835.31,90.45 837.33,90.45 839.34,90.45 841.36,90.45 843.37,90.45 845.39,90.45 847.40,90.45 849.41,90.45 851.43,90.45 853.44,90.45 855.46,90.45 857.47,90.45 859.49,90.45 861.50,444.17 863.51,444.17 865.53,444.17 867.54,444.17 869.56,444.17 871.57,444.17 873.59,444.17 875.60,444.17 877.61,444.17 879.63,444.17 881.64,444.17 883.66,444.17 885.67,444.17 887.69,444.17 889.70,444.17 891.71,444.17" fill="none" stroke="#16a34a" stroke-width="2.25" stroke-linejoin="round" stroke-linecap="round"/>
<line x1="86" y1="521" x2="114" y2="521" stroke="#2563eb" stroke-width="3"/>
<text x="122" y="526" class="legend">V(sensor_raw)</text>
<line x1="276" y1="521" x2="304" y2="521" stroke="#dc2626" stroke-width="3"/>
<text x="312" y="526" class="legend">V(sense)</text>
<line x1="466" y1="521" x2="494" y2="521" stroke="#16a34a" stroke-width="3"/>
<text x="502" y="526" class="legend">V(fan_en)</text>
<text x="509.00" y="546" text-anchor="middle" class="axis">time</text>
<text x="22" y="275.00" text-anchor="middle" class="axis" transform="rotate(-90 22 275.00)">signal</text>
</svg>