<svg xmlns="http://www.w3.org/2000/svg" viewBox="0 0 960 560" width="960" height="560" role="img">
<title>Configurable Schmitt trigger hysteresis</title>
<desc>Waveform plot with 3 signal trace(s).</desc>
<rect width="100%" height="100%" fill="#ffffff"/>
<style>.title{font:700 20px system-ui,sans-serif;fill:#111827}.axis{font:12px ui-monospace,SFMono-Regular,Menlo,monospace;fill:#374151}.legend{font:13px ui-monospace,SFMono-Regular,Menlo,monospace;fill:#111827}.grid{stroke:#e5e7eb;stroke-width:1}.frame{stroke:#374151;stroke-width:1.5;fill:none}.reference{stroke-dasharray:7 5;stroke-width:1.7}.reference-label{font:12px ui-monospace,SFMono-Regular,Menlo,monospace;fill:#374151}</style>
<text x="86" y="34" class="title">Configurable Schmitt trigger hysteresis</text>
<line x1="86.00" y1="72" x2="86.00" y2="478" class="grid"/>
<text x="86.00" y="502" text-anchor="middle" class="axis">0</text>
<line x1="255.20" y1="72" x2="255.20" y2="478" class="grid"/>
<text x="255.20" y="502" text-anchor="middle" class="axis">0.00168</text>
<line x1="424.40" y1="72" x2="424.40" y2="478" class="grid"/>
<text x="424.40" y="502" text-anchor="middle" class="axis">0.00336</text>
<line x1="593.60" y1="72" x2="593.60" y2="478" class="grid"/>
<text x="593.60" y="502" text-anchor="middle" class="axis">0.00504</text>
<line x1="762.80" y1="72" x2="762.80" y2="478" class="grid"/>
<text x="762.80" y="502" text-anchor="middle" class="axis">0.00672</text>
<line x1="932.00" y1="72" x2="932.00" y2="478" class="grid"/>
<text x="932.00" y="502" text-anchor="middle" class="axis">0.0084</text>
<line x1="86" y1="478.00" x2="932" y2="478.00" class="grid"/>
<text x="74" y="482.00" text-anchor="end" class="axis">-5.28</text>
<line x1="86" y1="396.80" x2="932" y2="396.80" class="grid"/>
<text x="74" y="400.80" text-anchor="end" class="axis">-3.168</text>
<line x1="86" y1="315.60" x2="932" y2="315.60" class="grid"/>
<text x="74" y="319.60" text-anchor="end" class="axis">-1.056</text>
<line x1="86" y1="234.40" x2="932" y2="234.40" class="grid"/>
<text x="74" y="238.40" text-anchor="end" class="axis">1.056</text>
<line x1="86" y1="153.20" x2="932" y2="153.20" class="grid"/>
<text x="74" y="157.20" text-anchor="end" class="axis">3.168</text>
<line x1="86" y1="72.00" x2="932" y2="72.00" class="grid"/>
<text x="74" y="76.00" text-anchor="end" class="axis">5.28</text>
<rect x="86" y="72" width="846" height="406" class="frame"/>
<line x1="86" y1="244.24" x2="932" y2="244.24" class="reference" stroke="#7c3aed"/>
<text x="924" y="237.24" text-anchor="end" class="reference-label">upper trip</text>
<line x1="86" y1="305.76" x2="932" y2="305.76" class="reference" stroke="#7c3aed"/>
<text x="924" y="298.76" text-anchor="end" class="reference-label">lower trip</text>
<polyline points="86.00,351.89 90.03,348.82 94.06,345.74 98.09,342.67 102.11,339.59 106.14,336.52 110.17,333.44 114.20,330.36 118.23,327.29 122.26,324.21 126.29,321.14 130.31,318.06 134.34,314.98 138.37,311.91 142.40,308.83 146.43,305.76 150.46,302.68 154.49,299.61 158.51,296.53 162.54,293.45 166.57,290.38 170.60,287.30 174.63,284.23 178.66,281.15 182.69,278.08 186.71,275.00 190.74,271.92 194.77,268.85 198.80,265.77 202.83,262.70 206.86,259.62 210.89,256.55 214.91,253.47 218.94,250.39 222.97,247.32 227.00,244.24 231.03,241.17 235.06,238.09 239.09,235.02 243.11,231.94 247.14,228.86 251.17,225.79 255.20,222.71 259.23,219.64 263.26,216.56 267.29,213.48 271.31,210.41 275.34,207.33 279.37,204.26 283.40,201.18 287.43,198.11 291.46,201.18 295.49,204.26 299.51,207.33 303.54,210.41 307.57,213.48 311.60,216.56 315.63,219.64 319.66,222.71 323.69,225.79 327.71,228.86 331.74,231.94 335.77,235.02 339.80,238.09 343.83,241.17 347.86,244.24 351.89,247.32 355.91,250.39 359.94,253.47 363.97,256.55 368.00,259.62 372.03,262.70 376.06,265.77 380.09,268.85 384.11,271.92 388.14,275.00 392.17,278.08 396.20,281.15 400.23,284.23 404.26,287.30 408.29,290.38 412.31,293.45 416.34,296.53 420.37,299.61 424.40,302.68 428.43,305.76 432.46,308.83 436.49,311.91 440.51,314.98 444.54,318.06 448.57,321.14 452.60,324.21 456.63,327.29 460.66,330.36 464.69,333.44 468.71,336.52 472.74,339.59 476.77,342.67 480.80,345.74 484.83,348.82 488.86,351.89 492.89,348.82 496.91,345.74 500.94,342.67 504.97,339.59 509.00,336.52 513.03,333.44 517.06,330.36 521.09,327.29 525.11,324.21 529.14,321.14 533.17,318.06 537.20,314.98 541.23,311.91 545.26,308.83 549.29,305.76 553.31,302.68 557.34,299.61 561.37,296.53 565.40,293.45 569.43,290.38 573.46,287.30 577.49,284.23 581.51,281.15 585.54,278.08 589.57,275.00 593.60,271.92 597.63,268.85 601.66,265.77 605.69,262.70 609.71,259.62 613.74,256.55 617.77,253.47 621.80,250.39 625.83,247.32 629.86,244.24 633.89,241.17 637.91,238.09 641.94,235.02 645.97,231.94 650.00,228.86 654.03,225.79 658.06,222.71 662.09,219.64 666.11,216.56 670.14,213.48 674.17,210.41 678.20,207.33 682.23,204.26 686.26,201.18 690.29,198.11 694.31,201.18 698.34,204.26 702.37,207.33 706.40,210.41 710.43,213.48 714.46,216.56 718.49,219.64 722.51,222.71 726.54,225.79 730.57,228.86 734.60,231.94 738.63,235.02 742.66,238.09 746.69,241.17 750.71,244.24 754.74,247.32 758.77,250.39 762.80,253.47 766.83,256.55 770.86,259.62 774.89,262.70 778.91,265.77 782.94,268.85 786.97,271.92 791.00,275.00 795.03,278.08 799.06,281.15 803.09,284.23 807.11,287.30 811.14,290.38 815.17,293.45 819.20,296.53 823.23,299.61 827.26,302.68 831.29,305.76 835.31,308.83 839.34,311.91 843.37,314.98 847.40,318.06 851.43,321.14 855.46,324.21 859.49,327.29 863.51,330.36 867.54,333.44 871.57,336.52 875.60,339.59 879.63,342.67 883.66,345.74 887.69,348.82 891.71,351.89" fill="none" stroke="#2563eb" stroke-width="2.25" stroke-linejoin="round" stroke-linecap="round"/>
<polyline points="86.00,244.24 90.03,244.24 94.06,244.24 98.09,244.24 102.11,244.24 106.14,244.24 110.17,244.24 114.20,244.24 118.23,244.24 122.26,244.24 126.29,244.24 130.31,244.24 134.34,244.24 138.37,244.24 142.40,244.24 146.43,244.24 150.46,244.24 154.49,244.24 158.51,244.24 162.54,244.24 166.57,244.24 170.60,244.24 174.63,244.24 178.66,244.24 182.69,244.24 186.71,244.24 190.74,244.24 194.77,244.24 198.80,244.24 202.83,244.24 206.86,244.24 210.89,244.24 214.91,244.24 218.94,244.24 222.97,244.24 227.00,305.76 231.03,305.76 235.06,305.76 239.09,305.76 243.11,305.76 247.14,305.76 251.17,305.76 255.20,305.76 259.23,305.76 263.26,305.76 267.29,305.76 271.31,305.76 275.34,305.76 279.37,305.76 283.40,305.76 287.43,305.76 291.46,305.76 295.49,305.76 299.51,305.76 303.54,305.76 307.57,305.76 311.60,305.76 315.63,305.76 319.66,305.76 323.69,305.76 327.71,305.76 331.74,305.76 335.77,305.76 339.80,305.76 343.83,305.76 347.86,305.76 351.89,305.76 355.91,305.76 359.94,305.76 363.97,305.76 368.00,305.76 372.03,305.76 376.06,305.76 380.09,305.76 384.11,305.76 388.14,305.76 392.17,305.76 396.20,305.76 400.23,305.76 404.26,305.76 408.29,305.76 412.31,305.76 416.34,305.76 420.37,305.76 424.40,305.76 428.43,244.24 432.46,244.24 436.49,244.24 440.51,244.24 444.54,244.24 448.57,244.24 452.60,244.24 456.63,244.24 460.66,244.24 464.69,244.24 468.71,244.24 472.74,244.24 476.77,244.24 480.80,244.24 484.83,244.24 488.86,244.24 492.89,244.24 496.91,244.24 500.94,244.24 504.97,244.24 509.00,244.24 513.03,244.24 517.06,244.24 521.09,244.24 525.11,244.24 529.14,244.24 533.17,244.24 537.20,244.24 541.23,244.24 545.26,244.24 549.29,244.24 553.31,244.24 557.34,244.24 561.37,244.24 565.40,244.24 569.43,244.24 573.46,244.24 577.49,244.24 581.51,244.24 585.54,244.24 589.57,244.24 593.60,244.24 597.63,244.24 601.66,244.24 605.69,244.24 609.71,244.24 613.74,244.24 617.77,244.24 621.80,244.24 625.83,244.24 629.86,305.76 633.89,305.76 637.91,305.76 641.94,305.76 645.97,305.76 650.00,305.76 654.03,305.76 658.06,305.76 662.09,305.76 666.11,305.76 670.14,305.76 674.17,305.76 678.20,305.76 682.23,305.76 686.26,305.76 690.29,305.76 694.31,305.76 698.34,305.76 702.37,305.76 706.40,305.76 710.43,305.76 714.46,305.76 718.49,305.76 722.51,305.76 726.54,305.76 730.57,305.76 734.60,305.76 738.63,305.76 742.66,305.76 746.69,305.76 750.71,305.76 754.74,305.76 758.77,305.76 762.80,305.76 766.83,305.76 770.86,305.76 774.89,305.76 778.91,305.76 782.94,305.76 786.97,305.76 791.00,305.76 795.03,305.76 799.06,305.76 803.09,305.76 807.11,305.76 811.14,305.76 815.17,305.76 819.20,305.76 823.23,305.76 827.26,305.76 831.29,244.24 835.31,244.24 839.34,244.24 843.37,244.24 847.40,244.24 851.43,244.24 855.46,244.24 859.49,244.24 863.51,244.24 867.54,244.24 871.57,244.24 875.60,244.24 879.63,244.24 883.66,244.24 887.69,244.24 891.71,244.24" fill="none" stroke="#dc2626" stroke-width="2.25" stroke-linejoin="round" stroke-linecap="round"/>
<polyline points="86.00,90.45 90.03,90.45 94.06,90.45 98.09,90.45 102.11,90.45 106.14,90.45 110.17,90.45 114.20,90.45 118.23,90.45 122.26,90.45 126.29,90.45 130.31,90.45 134.34,90.45 138.37,90.45 142.40,90.45 146.43,90.45 150.46,90.45 154.49,90.45 158.51,90.45 162.54,90.45 166.57,90.45 170.60,90.45 174.63,90.45 178.66,90.45 182.69,90.45 186.71,90.45 190.74,90.45 194.77,90.45 198.80,90.45 202.83,90.45 206.86,90.45 210.89,90.45 214.91,90.45 218.94,90.45 222.97,90.45 227.00,459.55 231.03,459.55 235.06,459.55 239.09,459.55 243.11,459.55 247.14,459.55 251.17,459.55 255.20,459.55 259.23,459.55 263.26,459.55 267.29,459.55 271.31,459.55 275.34,459.55 279.37,459.55 283.40,459.55 287.43,459.55 291.46,459.55 295.49,459.55 299.51,459.55 303.54,459.55 307.57,459.55 311.60,459.55 315.63,459.55 319.66,459.55 323.69,459.55 327.71,459.55 331.74,459.55 335.77,459.55 339.80,459.55 343.83,459.55 347.86,459.55 351.89,459.55 355.91,459.55 359.94,459.55 363.97,459.55 368.00,459.55 372.03,459.55 376.06,459.55 380.09,459.55 384.11,459.55 388.14,459.55 392.17,459.55 396.20,459.55 400.23,459.55 404.26,459.55 408.29,459.55 412.31,459.55 416.34,459.55 420.37,459.55 424.40,459.55 428.43,90.45 432.46,90.45 436.49,90.45 440.51,90.45 444.54,90.45 448.57,90.45 452.60,90.45 456.63,90.45 460.66,90.45 464.69,90.45 468.71,90.45 472.74,90.45 476.77,90.45 480.80,90.45 484.83,90.45 488.86,90.45 492.89,90.45 496.91,90.45 500.94,90.45 504.97,90.45 509.00,90.45 513.03,90.45 517.06,90.45 521.09,90.45 525.11,90.45 529.14,90.45 533.17,90.45 537.20,90.45 541.23,90.45 545.26,90.45 549.29,90.45 553.31,90.45 557.34,90.45 561.37,90.45 565.40,90.45 569.43,90.45 573.46,90.45 577.49,90.45 581.51,90.45 585.54,90.45 589.57,90.45 593.60,90.45 597.63,90.45 601.66,90.45 605.69,90.45 609.71,90.45 613.74,90.45 617.77,90.45 621.80,90.45 625.83,90.45 629.86,459.55 633.89,459.55 637.91,459.55 641.94,459.55 645.97,459.55 650.00,459.55 654.03,459.55 658.06,459.55 662.09,459.55 666.11,459.55 670.14,459.55 674.17,459.55 678.20,459.55 682.23,459.55 686.26,459.55 690.29,459.55 694.31,459.55 698.34,459.55 702.37,459.55 706.40,459.55 710.43,459.55 714.46,459.55 718.49,459.55 722.51,459.55 726.54,459.55 730.57,459.55 734.60,459.55 738.63,459.55 742.66,459.55 746.69,459.55 750.71,459.55 754.74,459.55 758.77,459.55 762.80,459.55 766.83,459.55 770.86,459.55 774.89,459.55 778.91,459.55 782.94,459.55 786.97,459.55 791.00,459.55 795.03,459.55 799.06,459.55 803.09,459.55 807.11,459.55 811.14,459.55 815.17,459.55 819.20,459.55 823.23,459.55 827.26,459.55 831.29,90.45 835.31,90.45 839.34,90.45 843.37,90.45 847.40,90.45 851.43,90.45 855.46,90.45 859.49,90.45 863.51,90.45 867.54,90.45 871.57,90.45 875.60,90.45 879.63,90.45 883.66,90.45 887.69,90.45 891.71,90.45" fill="none" stroke="#16a34a" stroke-width="2.25" stroke-linejoin="round" stroke-linecap="round"/>
<line x1="86" y1="521" x2="114" y2="521" stroke="#2563eb" stroke-width="3"/>
<text x="122" y="526" class="legend">V(in)</text>
<line x1="276" y1="521" x2="304" y2="521" stroke="#dc2626" stroke-width="3"/>
<text x="312" y="526" class="legend">V(trip)</text>
<line x1="466" y1="521" x2="494" y2="521" stroke="#16a34a" stroke-width="3"/>
<text x="502" y="526" class="legend">V(out)</text>
<text x="509.00" y="546" text-anchor="middle" class="axis">time</text>
<text x="22" y="275.00" text-anchor="middle" class="axis" transform="rotate(-90 22 275.00)">signal</text>
</svg>